<svg width="24" height="24" viewBox="0 0 24 24" fill="none" xmlns="http://www.w3.org/2000/svg" style="opacity: 0.5">
<path d="M3.40723 15.3913L2.13731 14.6802L9.24883 1.98106L10.5187 2.69222L11.2299 1.4223L8.69006 0L0.15625 15.239L2.69608 16.6613L3.40723 15.3913Z" fill="white"/>
<path d="M20.6781 8.38146L21.948 9.09262L14.8365 21.7917L13.5666 21.0806L12.8554 22.3505L15.3952 23.7728L23.929 8.53386L21.3892 7.11155L20.6781 8.38146Z" fill="white"/>
<path d="M5.3884 14.8326L13.0079 19.0995L14.4302 16.5597L13.1603 15.8485L12.4491 17.1184L7.83483 14.5344L13.1921 12.53L12.1017 6.91494L16.716 9.49894L16.0049 10.7689L17.2748 11.48L18.6971 8.94018L11.0776 4.67327L10.4141 5.85808L11.5284 11.5983L6.05189 13.6478L5.3884 14.8326Z" fill="white"/>
</svg>
