<svg width="21" height="27" viewBox="0 0 21 27" fill="none" xmlns="http://www.w3.org/2000/svg" style="opacity: 0.2">
<path d="M4.01135 2.89993L3.06528 1.26129C0.769528 2.58674 -0.247264 5.35918 0.646244 7.8547L2.66903 13.5068L0.485104 14.7677L1.43118 16.4063L3.31726 15.3174L5.22419 20.646C5.80935 22.2799 5.14323 24.0951 3.6402 24.9629L4.58627 26.6015C6.88202 25.2761 7.89881 22.5036 7.0053 20.0081L4.98251 14.356L6.75678 13.3316L5.81071 11.693L4.33429 12.5454L2.42736 7.21683C1.8422 5.58291 2.50832 3.76771 4.01135 2.89993Z" fill="white"/>
<path d="M6.72301 5.7042L5.78364 5.59097C5.7706 5.69958 5.48646 8.2928 7.51292 11.8027C9.53938 15.3127 11.9272 16.3632 12.0278 16.4062L12.7707 14.6662C12.7525 14.6583 10.8388 13.7791 9.15157 10.8567C7.46476 7.93502 7.66104 5.83126 7.66286 5.80994L6.72301 5.7042Z" fill="white"/>
<path d="M13.3157 2.55349C13.3343 2.56117 15.2479 3.44034 16.9352 6.36279C18.622 9.28443 18.4257 11.3882 18.4239 11.4095L19.3638 11.5152L20.3031 11.6285C20.3165 11.5191 20.6003 8.92664 18.5739 5.41671C16.5474 1.90678 14.1595 0.856245 14.059 0.813232L13.3157 2.55349Z" fill="white"/>
<path d="M12.3539 5.63403L12.1528 7.54001L10.4016 6.76119L9.63326 8.49032L11.9438 9.51777L11.6783 12.0325L13.56 12.2316L13.7611 10.3256L15.5123 11.1045L16.2806 9.37532L13.9701 8.34788L14.2356 5.83319L12.3539 5.63403Z" fill="white"/>
</svg>
