<svg width="84" height="80" viewBox="0 0 84 80" fill="none" xmlns="http://www.w3.org/2000/svg">
<path d="M34.3313 36.5055C34.3313 36.5055 34.2414 38.4047 34.614 39.6487C34.6507 39.7687 34.7111 39.8803 34.7918 39.9772C34.8725 40.074 34.9718 40.1542 35.0841 40.213C35.1964 40.2719 35.3193 40.3083 35.4459 40.32C35.5725 40.3318 35.7003 40.3188 35.8217 40.2817C36.2222 40.1885 36.5868 39.9833 36.8717 39.6907C37.1566 39.3982 37.3497 39.0307 37.4278 38.6326L37.9385 36.9518C38.0049 36.6051 37.9605 36.2466 37.8115 35.9258C37.6625 35.6049 37.4162 35.3375 37.1066 35.1603C35.992 34.4481 34.3313 35.3439 34.3313 36.5055Z" fill="#F4A28C"/>
<path d="M37.8516 37.2683L39.0818 43.3774L35.6191 43.8047L36.1106 39.1865L37.8516 37.2683Z" fill="#F4A28C"/>
<path d="M34.3374 37.7052L33.8267 38.4554C33.8006 38.4988 33.7853 38.5477 33.7823 38.5981C33.7793 38.6485 33.7885 38.6989 33.8093 38.7451C33.83 38.7912 33.8617 38.8318 33.9016 38.8635C33.9415 38.8951 33.9885 38.9169 34.0387 38.927L34.7807 39.0346L34.3374 37.7052Z" fill="#F4A28C"/>
<path opacity="0.31" d="M35.96 40.1932C36.3899 40.07 36.7732 39.8244 37.0618 39.4873C37.0618 39.4873 37.0618 40.63 35.8315 41.8011L35.96 40.1932Z" fill="#CE8172"/>
<path d="M10.5064 45.6842L2.30908 47.5892L2.57009 48.6798L10.7674 46.7748L10.5064 45.6842Z" fill="#24285B"/>
<path d="M32.452 44.7195C32.452 44.7195 25.0256 47.4416 24.0169 52.3162C23.0083 57.1908 17.3743 64.9173 9.41788 49.8346L6.80322 50.8285C6.80322 50.8285 14.0498 75.0368 26.8372 63.2302C39.6246 51.4236 32.452 44.7195 32.452 44.7195Z" fill="#F4A28C"/>
<path d="M9.41854 49.8219C9.41854 49.8219 8.50951 47.0238 6.93879 46.204C6.89013 46.1795 6.83537 46.1693 6.78101 46.1746C6.72664 46.1798 6.67494 46.2003 6.63202 46.2336C6.5891 46.2669 6.55676 46.3116 6.53883 46.3625C6.5209 46.4133 6.51813 46.4682 6.53085 46.5205L6.80388 47.8848C6.80388 47.8848 4.75455 49.2079 6.80388 50.8285L9.41854 49.8219Z" fill="#F4A28C"/>
<path d="M33.5476 44.1656C33.5476 44.1656 23.9498 46.5206 22.4048 55.5892L30.4543 60.0207L33.5476 44.1656Z" fill="#68E1FD"/>
<path opacity="0.46" d="M33.5476 44.1656C33.5476 44.1656 23.9498 46.5206 22.4048 55.5892L30.4543 60.0207L33.5476 44.1656Z" fill="white"/>
<path opacity="0.45" d="M40.6945 80C62.2877 80 79.7924 78.3716 79.7924 76.363C79.7924 74.3544 62.2877 72.7261 40.6945 72.7261C19.1014 72.7261 1.59668 74.3544 1.59668 76.363C1.59668 78.3716 19.1014 80 40.6945 80Z" fill="#E6E6E6"/>
<path d="M45.5637 43.6464C45.5637 43.6464 37.5334 40.5729 30.1455 46.1628C22.7577 51.7528 32.3298 71.4821 32.3298 71.4821L46.19 71.9379C46.19 71.9379 64.3706 55.5448 45.5637 43.6464Z" fill="#68E1FD"/>
<path d="M33.9522 33.9543C32.8697 34.4639 33.0913 36.0814 34.2734 36.2048C34.439 36.2207 34.6057 36.2207 34.7713 36.2048C36.4801 36.0656 35.9212 37.2969 37.0519 38.1325C38.1825 38.9682 38.3367 39.693 38.3367 39.693C38.3367 39.693 39.4031 38.9713 38.7415 36.8949C38.0798 34.8184 38.4588 33.6694 36.4448 33.4384C35.5815 33.3795 34.7185 33.5581 33.9522 33.9543Z" fill="#24285B"/>
<path opacity="0.08" d="M42.2873 44.7195C42.2873 44.7195 35.9723 50.2366 38.754 56.7002C42.9587 66.462 39.2262 67.3166 30.6562 67.5635L32.9561 72.9952L52.4762 66.8766L51.2106 58.9634L42.2873 44.7195Z" fill="black"/>
<path d="M34.4017 70.7858C39.721 70.9631 41.0926 70.5706 46.0103 68.5701C48.9911 67.3483 52.5341 66.4842 55.2419 67.5888C60.982 69.928 56.4047 79.1169 41.6836 76.8949L28.0899 76.2903C28.0899 76.2903 22.8734 76.2903 21.9516 74.4449C20.8273 72.1944 23.1818 69.8584 34.0452 70.789L34.4017 70.7858Z" fill="#24285B"/>
<path d="M39.7228 55.6231L31.5869 58.4717L35.6067 69.6208L43.7426 66.7723L39.7228 55.6231Z" fill="#FFD200"/>
<path d="M37.0881 56.0857L34.022 57.1592L34.6274 58.8384L37.6935 57.7649L37.0881 56.0857Z" fill="#24285B"/>
<path d="M44.3855 75.1064C44.3855 75.1064 39.3232 75.7807 40.5309 76.936C41.7387 78.0913 44.7452 77.2272 44.7452 77.2272L44.3855 75.1064Z" fill="#68E1FD"/>
<path d="M35.728 76.5846L36.7688 75.0399C36.7688 75.0399 39.9809 77.1892 39.6597 78.1483C39.0558 80.0664 35.728 76.5846 35.728 76.5846Z" fill="#68E1FD"/>
<path d="M41.6452 47.4606C41.6505 46.8822 41.7961 46.3134 42.0698 45.8018C42.3436 45.2901 42.7375 44.8504 43.2187 44.5192C43.7 44.1881 44.2546 43.9752 44.8364 43.8982C45.4181 43.8213 46.0101 43.8825 46.5629 44.0768C49.1326 44.9853 52.3865 46.7832 54.529 50.3188C58.557 56.966 65.6429 74.6917 40.3604 69.662L40.5916 67.0665C40.5916 67.0665 50.4432 68.0921 51.3779 63.7208C52.1777 59.9572 41.6452 55.6556 41.6452 47.4606Z" fill="#F4A28C"/>
<path opacity="0.58" d="M66.8733 72.6724C66.8733 72.6724 64.3293 71.9887 63.7769 69.6558C63.7769 69.6558 67.7181 68.8708 67.8306 72.8781L66.8733 72.6724Z" fill="#68E1FD"/>
<path opacity="0.73" d="M67.1849 72.4317C67.1849 72.4317 65.4085 69.6621 66.9729 67.0729C66.9729 67.0729 69.9698 68.9499 68.6367 72.4381L67.1849 72.4317Z" fill="#68E1FD"/>
<path d="M67.6406 72.4317C67.6406 72.4317 68.5818 69.5101 71.4213 68.9498C71.4213 68.9498 71.9513 70.849 69.5807 72.4317H67.6406Z" fill="#68E1FD"/>
<path d="M65.7969 72.3621L66.314 75.8376L69.5615 75.8502L70.0401 72.3779L65.7969 72.3621Z" fill="#24285B"/>
<path d="M2.30987 47.5936L1.24023 48.4958L2.57005 48.6825L2.30987 47.5936Z" fill="#FFD200"/>
<path d="M45.6157 57.0071C45.6157 57.0071 37.8488 46.6249 43.4154 43.8616C48.982 41.0983 55.0625 49.2426 56.0036 52.2117C56.0036 52.2117 52.8204 56.6368 45.6157 57.0071Z" fill="#68E1FD"/>
<path opacity="0.46" d="M45.6157 57.0071C45.6157 57.0071 37.8488 46.6249 43.4154 43.8616C48.982 41.0983 55.0625 49.2426 56.0036 52.2117C56.0036 52.2117 52.8204 56.6368 45.6157 57.0071Z" fill="white"/>
<path d="M40.585 67.0666C40.585 67.0666 39.3355 64.6293 37.7102 64.9395C36.0849 65.2497 36.8943 69.0861 40.3538 69.6622L40.585 67.0666Z" fill="#F4A28C"/>
<path d="M36.3198 37.7083C36.3198 37.7083 36.3198 36.9771 36.8659 37.0119C37.412 37.0468 37.4537 38.104 36.6989 38.2306L36.3198 37.7083Z" fill="#F4A28C"/>
<path d="M73.7759 20.1504C79.4226 20.1504 84.0001 15.6395 84.0001 10.0752C84.0001 4.51081 79.4226 0 73.7759 0C68.1293 0 63.5518 4.51081 63.5518 10.0752C63.5518 15.6395 68.1293 20.1504 73.7759 20.1504Z" fill="#FFD200"/>
<path opacity="0.46" d="M76.0793 13.7216C78.9639 13.7216 81.3022 11.4173 81.3022 8.57477C81.3022 5.73227 78.9639 3.42798 76.0793 3.42798C73.1948 3.42798 70.8564 5.73227 70.8564 8.57477C70.8564 11.4173 73.1948 13.7216 76.0793 13.7216Z" fill="white"/>
<path opacity="0.46" d="M77.8331 10.6387C79.4102 10.6387 80.6887 9.37881 80.6887 7.8247C80.6887 6.27059 79.4102 5.01074 77.8331 5.01074C76.256 5.01074 74.9775 6.27059 74.9775 7.8247C74.9775 9.37881 76.256 10.6387 77.8331 10.6387Z" fill="white"/>
<path d="M79.7346 18.21H67.8145V27.3767H79.7346V18.21Z" fill="#24285B"/>
<path d="M76.5674 27.38H70.853V31.0581H76.5674V27.38Z" fill="#24285B"/>
<path opacity="0.75" d="M76.5674 27.38H70.853V31.0581H76.5674V27.38Z" fill="white"/>
<path d="M73.7664 33.4226C73.7664 33.4226 74.9549 44.8936 64.9716 42.8045C54.9884 40.7154 56.4884 22.5814 45.882 22.7935C35.2756 23.0055 36.1493 31.0581 36.1493 31.0581" stroke="#E6E6E6" stroke-width="2" stroke-linecap="round" stroke-linejoin="round" stroke-dasharray="2 10"/>
<path d="M19.1988 28.5448C21.6818 26.8228 23.2589 24.2716 23.2589 21.4197C23.2589 16.2349 18.0521 12.0282 11.6279 12.0282C5.20363 12.0282 0 16.2349 0 21.4197C0 26.6044 5.20684 30.8111 11.6279 30.8111C13.5394 30.8195 15.4314 30.4324 17.1816 29.6748C18.2031 31.574 20.2524 33.5681 24.335 33.4288C24.335 33.4288 20.3487 32.2324 19.1988 28.5448Z" fill="#E6E6E6"/>
<path d="M6.41123 22.4831C7.15099 22.4831 7.75068 21.8922 7.75068 21.1632C7.75068 20.4342 7.15099 19.8433 6.41123 19.8433C5.67147 19.8433 5.07178 20.4342 5.07178 21.1632C5.07178 21.8922 5.67147 22.4831 6.41123 22.4831Z" fill="#C9C9C9"/>
<path d="M11.6471 22.4831C12.3868 22.4831 12.9865 21.8922 12.9865 21.1632C12.9865 20.4342 12.3868 19.8433 11.6471 19.8433C10.9073 19.8433 10.3076 20.4342 10.3076 21.1632C10.3076 21.8922 10.9073 22.4831 11.6471 22.4831Z" fill="#C9C9C9"/>
<path d="M16.5748 22.4831C17.3146 22.4831 17.9143 21.8922 17.9143 21.1632C17.9143 20.4342 17.3146 19.8433 16.5748 19.8433C15.835 19.8433 15.2354 20.4342 15.2354 21.1632C15.2354 21.8922 15.835 22.4831 16.5748 22.4831Z" fill="#C9C9C9"/>
</svg>
