<svg width="22" height="22" viewBox="0 0 22 22" fill="none" xmlns="http://www.w3.org/2000/svg">
<path d="M10.9998 14.0117C6.94955 14.0117 3.6665 16.2672 3.6665 18.7261V19.25C3.6665 19.7565 4.07671 20.1667 4.58317 20.1667H17.4165C17.923 20.1667 18.3332 19.7565 18.3332 19.25V18.7261C18.3332 16.2672 15.0501 14.0117 10.9998 14.0117Z" fill="#5059C9"/>
<path d="M13.2918 14.2083C13.2918 15.0777 12.3752 16.0416 11.0002 16.0416C9.62516 16.0416 8.7085 15.0777 8.7085 14.2083C8.7085 12.9996 8.7085 10.9839 8.7085 10.9839H13.2918C13.2918 10.9839 13.2918 12.9996 13.2918 14.2083Z" fill="#D6A121"/>
<path d="M15.0863 8.25H14.8447V10.0833H15.1669C15.403 10.0833 15.6042 9.94033 15.6441 9.74417L15.8017 8.96362C15.8774 8.59054 15.5359 8.25 15.0863 8.25Z" fill="url(#paint1_linear)"/>
<path d="M6.91348 8.25H7.15503V10.0833H6.83282C6.59678 10.0833 6.39557 9.94033 6.35569 9.74417L6.19803 8.96362C6.1224 8.59054 6.46386 8.25 6.91348 8.25Z" fill="url(#paint2_linear)"/>
<path d="M11 2.93335C8.96454 2.93335 6.875 3.24272 6.875 7.64273C6.875 7.99473 6.875 10.3364 6.875 10.7126C6.875 12.2834 9.35 14.2084 11 14.2084C12.65 14.2084 15.125 12.2834 15.125 10.7126C15.125 10.3364 15.125 7.99518 15.125 7.64273C15.125 3.24272 13.0355 2.93335 11 2.93335Z" fill="url(#paint3_radial)"/>
<path d="M10.9998 2.5415C9.00425 2.5415 8.70817 3.29134 8.70817 3.29134C7.89692 3.41096 6.4165 5.97442 6.4165 7.33292C6.4165 7.79125 6.4165 8.70792 6.87484 9.16625C7.12463 6.16646 7.90563 5.04125 8.70817 5.04125C9.28888 5.04125 9.74996 5.49959 10.9998 5.49959C12.0554 5.49959 12.3175 5.04125 13.2915 5.04125C14.6665 5.04125 15.1248 8.69325 15.1248 9.16625C15.5832 8.70792 15.5832 7.33292 15.5832 7.33292C15.5832 5.7613 13.8456 2.5415 10.9998 2.5415Z" fill="url(#paint4_radial)"/>
<path d="M18.3333 4.125H17.875V9.625H18.3333V4.125Z" fill="#3A41AC"/>
<path d="M18.104 11.0918C18.104 11.0918 18.7915 10.2337 18.7915 9.85425C18.7915 9.47475 18.4835 9.16675 18.104 9.16675C17.7245 9.16675 17.4165 9.47475 17.4165 9.85425C17.4165 10.2337 18.104 11.0918 18.104 11.0918Z" fill="#3A41AC"/>
<path d="M10.4649 7.53452L3.42265 4.60027C3.13711 4.48157 3.13711 4.07686 3.42265 3.95815L10.4649 1.0239C10.8073 0.881357 11.1928 0.881357 11.5352 1.0239L18.5774 3.95815C18.863 4.07686 18.863 4.48157 18.5774 4.60027L11.5352 7.53452C11.1928 7.67707 10.8078 7.67707 10.4649 7.53452Z" fill="#5059C9"/>
<path d="M10.9998 4.125C8.46846 4.125 6.4165 4.56454 6.4165 5.10721V7.33333C9.03542 7.33333 10.9998 8.25 10.9998 8.25C10.9998 8.25 12.9643 7.33333 15.5832 7.33333V5.10721C15.5832 4.56454 13.5312 4.125 10.9998 4.125Z" fill="#7B83EB"/>
<defs>
<linearGradient id="paint0_linear" x1="9.50934" y1="14.0411" x2="11.1978" y2="19.4806" gradientUnits="userSpaceOnUse">
<stop stop-color="#5963E0"/>
<stop offset="1" stop-color="#5059C9"/>
</linearGradient>
<linearGradient id="paint1_linear" x1="15.0867" y1="9.16667" x2="15.6981" y2="9.16667" gradientUnits="userSpaceOnUse">
<stop stop-color="#C48F0C"/>
<stop offset="0.251" stop-color="#D19B16"/>
<stop offset="0.619" stop-color="#DCA51F"/>
<stop offset="1" stop-color="#E0A922"/>
</linearGradient>
<linearGradient id="paint2_linear" x1="6.91303" y1="9.16667" x2="6.30161" y2="9.16667" gradientUnits="userSpaceOnUse">
<stop stop-color="#C48F0C"/>
<stop offset="0.251" stop-color="#D19B16"/>
<stop offset="0.619" stop-color="#DCA51F"/>
<stop offset="1" stop-color="#E0A922"/>
</linearGradient>
<radialGradient id="paint3_radial" cx="0" cy="0" r="1" gradientUnits="userSpaceOnUse" gradientTransform="translate(11.0005 8.57083) scale(4.93931)">
<stop stop-color="#FFCF54"/>
<stop offset="0.261" stop-color="#FDCB4D"/>
<stop offset="0.639" stop-color="#F7C13A"/>
<stop offset="1" stop-color="#F0B421"/>
</radialGradient>
<radialGradient id="paint4_radial" cx="0" cy="0" r="1" gradientUnits="userSpaceOnUse" gradientTransform="translate(7.0797 3.05414) scale(11.6836)">
<stop stop-color="#C26715"/>
<stop offset="0.508" stop-color="#B85515"/>
<stop offset="1" stop-color="#AD3F16"/>
</radialGradient>
</defs>
</svg>
