<svg width="127" height="21" viewBox="0 0 127 21" fill="none" xmlns="http://www.w3.org/2000/svg">
<path d="M22.2861 20.2928L18.548 2.01566H15.3235L11.1288 12.8839L6.96262 2.01566H3.73813L0 20.2928H3.65252L6.02095 8.38951L10.13 20.2928H12.099L16.2366 8.38951L18.6336 20.2928H22.2861Z" fill="url(#paint0_linear)" fill-opacity="0.9"/>
<path d="M34.4631 6.67348V7.57235C33.3217 6.86415 31.952 6.45557 30.4967 6.45557C26.4161 6.45557 23.1346 9.61525 23.1346 13.4831C23.1346 17.351 26.4161 20.5107 30.4967 20.5107C31.952 20.5107 33.3217 20.1021 34.4631 19.3939V20.2928H38.1156V6.67348H34.4631ZM30.6108 17.2421C28.4707 17.2421 26.9012 15.6622 26.9012 13.4831C26.9012 11.3041 28.4707 9.72421 30.6108 9.72421C32.751 9.72421 34.3204 11.3041 34.3204 13.4831C34.3204 15.6622 32.751 17.2421 30.6108 17.2421Z" fill="url(#paint1_linear)" fill-opacity="0.9"/>
<path d="M48.4255 16.0981C48.4255 16.5339 47.7407 17.2693 46.7705 17.2693C45.9715 17.2693 45.2867 16.5884 45.2867 15.4716V9.80592H48.6538V6.67348H45.2867V2.0429L41.6341 2.12462V6.67348H39.8935V9.80592H41.6341V16.5339C41.6341 19.3667 43.5175 20.5107 45.9715 20.5107C48.4541 20.5107 49.995 18.8764 49.995 18.8764L48.4255 16.0981Z" fill="url(#paint2_linear)" fill-opacity="0.9"/>
<path d="M59.3519 6.45557C57.9251 6.45557 56.5269 7.05482 55.4996 8.06265V0H51.8471V20.2928H55.4996V12.8022C55.4996 10.9499 56.7552 9.64249 58.4958 9.64249C60.2365 9.64249 61.4921 10.9772 61.4921 12.8022V20.2928H65.2016V12.6932C65.2016 9.17943 62.8617 6.45557 59.3519 6.45557Z" fill="url(#paint3_linear)" fill-opacity="0.9"/>
<path d="M71.8015 16.8063V2.01566H68.149V20.2928H79.5917V16.8063H71.8015Z" fill="url(#paint4_linear)" fill-opacity="0.9"/>
<path d="M91.6452 6.67348V7.57235C90.5038 6.86415 89.1341 6.45557 87.6788 6.45557C83.5982 6.45557 80.3167 9.61525 80.3167 13.4831C80.3167 17.351 83.5982 20.5107 87.6788 20.5107C89.1341 20.5107 90.5038 20.1021 91.6452 19.3939V20.2928H95.2977V6.67348H91.6452ZM87.7929 17.2421C85.6528 17.2421 84.0833 15.6622 84.0833 13.4831C84.0833 11.3041 85.6528 9.72421 87.7929 9.72421C89.9331 9.72421 91.5025 11.3041 91.5025 13.4831C91.5025 15.6622 89.9331 17.2421 87.7929 17.2421Z" fill="url(#paint5_linear)" fill-opacity="0.9"/>
<path d="M105.948 6.45557C104.464 6.45557 103.095 6.86415 101.953 7.59959V0H98.3006V20.2928H101.953V19.3667C103.095 20.1021 104.464 20.5107 105.948 20.5107C110.029 20.5107 113.31 17.351 113.31 13.4831C113.31 9.61525 110.029 6.45557 105.948 6.45557ZM105.834 17.2421C103.665 17.2421 102.124 15.6622 102.124 13.4831C102.124 11.3041 103.665 9.72421 105.834 9.72421C107.974 9.72421 109.544 11.3041 109.544 13.4831C109.544 15.6622 107.974 17.2421 105.834 17.2421Z" fill="url(#paint6_linear)" fill-opacity="0.9"/>
<path d="M121.008 20.5107C124.746 20.5107 126.8 18.7947 126.8 16.3704C126.8 11.8488 118.24 12.0395 118.24 10.5958C118.24 9.91488 119.153 9.47906 120.522 9.47906C122.919 9.47906 124.689 11.1406 124.689 11.1406L127 9.1522C127 9.1522 124.66 6.45557 120.608 6.45557C116.87 6.45557 114.844 8.1716 114.844 10.5958C114.844 15.1175 123.376 14.9268 123.376 16.3704C123.376 17.0514 122.491 17.4872 121.093 17.4872C118.696 17.4872 116.956 15.8257 116.956 15.8257L114.644 17.8141C114.644 17.8141 116.984 20.5107 121.008 20.5107Z" fill="url(#paint7_linear)" fill-opacity="0.9"/>
<defs>
<linearGradient id="paint0_linear" x1="127" y1="20.5107" x2="0" y2="20.5107" gradientUnits="userSpaceOnUse">
<stop stop-color="#644BEC"/>
<stop offset="1" stop-color="#AF48C9"/>
</linearGradient>
<linearGradient id="paint1_linear" x1="127" y1="20.5107" x2="0" y2="20.5107" gradientUnits="userSpaceOnUse">
<stop stop-color="#644BEC"/>
<stop offset="1" stop-color="#AF48C9"/>
</linearGradient>
<linearGradient id="paint2_linear" x1="127" y1="20.5107" x2="0" y2="20.5107" gradientUnits="userSpaceOnUse">
<stop stop-color="#644BEC"/>
<stop offset="1" stop-color="#AF48C9"/>
</linearGradient>
<linearGradient id="paint3_linear" x1="127" y1="20.5107" x2="0" y2="20.5107" gradientUnits="userSpaceOnUse">
<stop stop-color="#644BEC"/>
<stop offset="1" stop-color="#AF48C9"/>
</linearGradient>
<linearGradient id="paint4_linear" x1="127" y1="20.5107" x2="0" y2="20.5107" gradientUnits="userSpaceOnUse">
<stop stop-color="#644BEC"/>
<stop offset="1" stop-color="#AF48C9"/>
</linearGradient>
<linearGradient id="paint5_linear" x1="127" y1="20.5107" x2="0" y2="20.5107" gradientUnits="userSpaceOnUse">
<stop stop-color="#644BEC"/>
<stop offset="1" stop-color="#AF48C9"/>
</linearGradient>
<linearGradient id="paint6_linear" x1="127" y1="20.5107" x2="0" y2="20.5107" gradientUnits="userSpaceOnUse">
<stop stop-color="#644BEC"/>
<stop offset="1" stop-color="#AF48C9"/>
</linearGradient>
<linearGradient id="paint7_linear" x1="127" y1="20.5107" x2="0" y2="20.5107" gradientUnits="userSpaceOnUse">
<stop stop-color="#644BEC"/>
<stop offset="1" stop-color="#AF48C9"/>
</linearGradient>
</defs>
</svg>
