<svg width="43" height="39" viewBox="0 0 43 39" fill="none" xmlns="http://www.w3.org/2000/svg">
<path d="M0 0.926758V24.3317C0 27.3257 2.44928 29.775 5.4433 29.775H19.4738C18.1536 27.974 17.4177 25.7934 17.4177 23.5158C17.4177 17.6633 22.179 12.902 28.0315 12.902C33.884 12.902 38.6454 17.6633 38.6454 23.5158C38.6454 25.7765 37.9078 27.969 36.5851 29.775H37.5567C40.5507 29.775 43 27.3257 43 24.3317V0.926758H0ZM14.6965 16.4391H6.53197V13.7179H14.6965V16.4391ZM22.3163 9.90716H6.53197V7.18593H22.3163V9.90716Z" fill="url(#paint0_linear)"/>
<path d="M35.9243 23.515C35.9243 19.1562 32.3922 15.6224 28.0317 15.6224C23.6712 15.6224 20.1391 19.1562 20.1391 23.515C20.1391 25.9348 21.2303 28.097 22.9437 29.5443L20.4389 36.1411L23.5626 35.5812L25.5269 38.0734L28.0587 31.4059C28.1395 31.4059 28.2178 31.3967 28.2978 31.3941L30.8346 38.0734L32.7989 35.5812L35.9226 36.1411L33.3403 29.3414C34.9249 27.8991 35.9243 25.8262 35.9243 23.515ZM28.0317 27.053C26.0775 27.053 24.4938 25.4692 24.4938 23.515C24.4938 21.5608 26.0775 19.9771 28.0317 19.9771C29.9859 19.9771 31.5696 21.5608 31.5696 23.515C31.5696 25.4692 29.9859 27.053 28.0317 27.053Z" fill="url(#paint1_linear)"/>
<defs>
<linearGradient id="paint0_linear" x1="28.0332" y1="15.6223" x2="28.0332" y2="38.0733" gradientUnits="userSpaceOnUse">
<stop stop-color="#644BEC"/>
<stop offset="1" stop-color="#AF48C9"/>
</linearGradient>
<linearGradient id="paint1_linear" x1="28.0332" y1="15.6223" x2="28.0332" y2="38.0733" gradientUnits="userSpaceOnUse">
<stop stop-color="#644BEC"/>
<stop offset="1" stop-color="#AF48C9"/>
</linearGradient>
</defs>
</svg>
