<svg width="20" height="16" viewBox="0 0 20 16" fill="none" xmlns="http://www.w3.org/2000/svg" style="opacity: 0.2">
<path d="M15.9691 10.6934C14.9532 10.6197 14.0417 11.209 13.6542 12.0926L7.14576 11.6206C6.88974 10.6903 6.07289 9.97573 5.05691 9.90205C4.04093 9.82838 3.12953 10.4177 2.74197 11.3013L1.04664 11.1783L0.933594 12.7372L2.62892 12.8602C2.88494 13.7904 3.70179 14.505 4.71777 14.5787C5.73374 14.6524 6.64515 14.0631 7.03271 13.1795L13.5411 13.6515C13.7972 14.5818 14.614 15.2964 15.63 15.3701C16.646 15.4437 17.5574 14.8545 17.9449 13.9709L19.6403 14.0938L19.7533 12.5349L18.058 12.412C17.802 11.4817 16.9851 10.7671 15.9691 10.6934ZM4.83081 13.0198C4.40094 12.9887 4.07672 12.6137 4.10789 12.1839C4.13907 11.754 4.51399 11.4298 4.94386 11.4609C5.37374 11.4921 5.69796 11.867 5.66678 12.2969C5.63561 12.7268 5.26069 13.051 4.83081 13.0198ZM15.743 13.8112C15.3132 13.78 14.9889 13.4051 15.0201 12.9752C15.0513 12.5453 15.4262 12.2211 15.8561 12.2523C16.286 12.2835 16.6102 12.6584 16.579 13.0883C16.5478 13.5181 16.1729 13.8423 15.743 13.8112Z" fill="white"/>
<path d="M16.6476 1.34004L14.3093 1.17047L13.744 8.96491L16.0824 9.13449C17.372 9.22801 18.4968 8.25535 18.5903 6.96573C18.6337 6.3663 18.4449 5.80455 18.1031 5.36331C18.505 4.97601 18.7729 4.44738 18.8164 3.84795C18.9099 2.55833 17.9372 1.43357 16.6476 1.34004ZM15.7551 2.84241L16.5346 2.89893C16.9644 2.93011 17.2887 3.30503 17.2575 3.7349C17.2263 4.16477 16.8514 4.48899 16.4215 4.45782L15.6421 4.4013L15.7551 2.84241ZM16.1954 7.5756L15.416 7.51907L15.529 5.96018L16.3085 6.01671C16.7383 6.04788 17.0626 6.4228 17.0314 6.85268C17.0002 7.28255 16.6253 7.60677 16.1954 7.5756Z" fill="white"/>
<path d="M7.50798 8.51271L7.90366 3.0566C7.99718 1.76698 7.02452 0.64222 5.7349 0.548698C4.44527 0.455176 3.32051 1.42783 3.22699 2.71746L2.83132 8.17356L4.39021 8.28661L4.55978 5.94828L6.11867 6.06133L5.94909 8.39966L7.50798 8.51271ZM4.67283 4.38939L4.78588 2.83051C4.81705 2.40063 5.19197 2.07641 5.62185 2.10759C6.05172 2.13876 6.37594 2.51368 6.34477 2.94355L6.23172 4.50244L4.67283 4.38939Z" fill="white"/>
</svg>
