<svg width="19" height="18" viewBox="0 0 19 18" fill="none" xmlns="http://www.w3.org/2000/svg" style="opacity: 0.5">
<path d="M10.5947 0.378939L9.13663 0.32066L8.8161 8.3402L0.79656 8.01966L0.738281 9.47776L8.75782 9.7983L8.43729 17.8178L9.89538 17.8761L10.2159 9.85658L18.2355 10.1771L18.2937 8.71901L10.2742 8.39848L10.5947 0.378939Z" fill="white"/>
<path d="M7.67854 0.262381L6.22044 0.204102C6.10796 3.01831 3.72733 5.21595 0.913118 5.10347L0.854839 6.56157C4.47267 6.70617 7.53393 3.88022 7.67854 0.262381Z" fill="white"/>
<path d="M11.3535 17.9344L12.8116 17.9926C12.9241 15.1784 15.3047 12.9808 18.1189 13.0933L18.1772 11.6352C14.5594 11.4906 11.4981 14.3165 11.3535 17.9344Z" fill="white"/>
</svg>
