<svg width="134" height="159" viewBox="0 0 134 159" fill="none" xmlns="http://www.w3.org/2000/svg">
<mask id="mask0" mask-type="alpha" maskUnits="userSpaceOnUse" x="0" y="0" width="134" height="159">
<rect width="134" height="159" fill="#C4C4C4"/>
</mask>
<g mask="url(#mask0)">
<path d="M121.366 166.469C112.365 171.888 104.249 175.525 94.8221 177.524C85.3961 179.524 76.7887 179.435 66.6334 178.079L61.8033 145.595L53.3473 108.136L70.8627 100.91C73.229 100.089 75.2911 99.3324 77.7236 98.8162C80.1561 98.3001 82.655 98.0893 84.8498 97.9429L103.823 97.4286L111.671 135.017L121.366 166.469Z" fill="#B559CF"/>
<path d="M56.4866 74.2898C56.4866 74.2898 51.6723 71.1622 49.2279 74.5525C46.2419 78.3777 52.5141 88.2164 58.6346 85.6414L56.4866 74.2898Z" fill="#FFC5B6"/>
<path d="M58.2392 108.7C58.2392 108.7 51.0888 90.4293 73.8296 85.2864C96.5699 80.1432 98.2465 99.5744 98.2465 99.5744C98.2465 99.5744 82.8082 110.509 58.2392 108.7Z" fill="#B559CF"/>
<path d="M78.4808 135.996C78.1769 136.061 78.1769 136.061 78.1104 135.756C75.7135 127.649 72.069 110.872 72.069 110.872L72.3065 110.502C72.6106 110.438 72.6106 110.438 72.6769 110.743C72.7429 111.048 76.3876 127.825 78.7187 135.627C79.0891 135.867 78.785 135.932 78.4808 135.996Z" fill="white"/>
<path d="M93.9922 132.707C93.6881 132.771 93.6881 132.771 93.6216 132.466C92.4408 124.101 88.7961 107.324 88.7961 107.324L89.0338 106.954C89.3379 106.89 89.3379 106.89 89.4042 107.194C89.4706 107.5 93.1149 124.277 94.2299 132.337C94.2959 132.642 93.9922 132.707 93.9922 132.707Z" fill="white"/>
<path d="M74.581 107.786C67.8246 108.901 63.314 105.709 62.9434 105.468L62.8772 105.163C63.1816 105.098 63.1816 105.098 63.4857 105.034C63.4857 105.034 67.9963 108.226 74.4488 107.176C74.7525 107.112 74.7525 107.112 74.8189 107.417C74.8189 107.417 74.8852 107.722 74.581 107.786Z" fill="#CC7312"/>
<path d="M85.226 105.528C91.8498 103.804 94.6371 99.064 94.8748 98.6942L94.8088 98.3891C94.5044 98.4539 94.5044 98.454 94.2003 98.5184C94.2003 98.5184 91.413 103.259 85.0933 104.918C84.7891 104.983 84.7891 104.983 84.8556 105.288C84.8556 105.288 84.9218 105.593 85.226 105.528Z" fill="#CC7312"/>
<path d="M83.8019 90.1923L84.492 94.8328L85.4472 100.694C85.4472 100.694 84.695 103.088 79.5254 104.184C74.3563 105.281 73.1124 103.949 73.1124 103.949L72.2782 101.573L69.8141 93.1593L83.8019 90.1923Z" fill="#FFC5B6"/>
<path d="M83.8021 90.1923L84.4927 94.833C82.6953 96.8098 78.255 101.262 72.2782 101.573L69.8144 93.1593L83.8021 90.1923Z" fill="#FFC5B6"/>
<path d="M86.5983 67.9018C86.5983 67.9018 89.6898 63.097 93.3267 65.1977C97.6386 67.4746 96.0053 78.9902 89.3546 79.1246L86.5983 67.9018Z" fill="#FFC5B6"/>
<path d="M77.1961 96.385C63.5128 99.2878 56.0472 83.9577 52.2465 72.3178C48.6441 61.5929 55.1037 50.3296 65.984 47.7026L66.2882 47.6382C66.5923 47.5738 66.5923 47.5738 66.896 47.5091C77.5389 45.2515 88.1072 52.903 89.5146 63.7735C91.3197 76.4753 90.8795 93.4828 77.1961 96.385Z" fill="#FFC5B6"/>
<path d="M54.323 76.0274C52.8532 72.1903 53.3795 67.2915 54.0263 65.8774C55.9291 62.9209 56.0068 60.3513 56.0068 60.3513C65.5819 63.4262 79.515 57.2789 79.515 57.2789C83.285 59.99 84.0373 57.5963 85.5458 60.1488C86.1154 61.3046 88.6688 64.2733 89.16 67.9989L90.0724 67.8057C90.8715 53.9129 82.5129 50.5797 82.5129 50.5797C82.5129 50.5797 84.548 48.2331 79.7333 45.1053C74.1777 41.497 64.1157 42.0354 57.3088 47.3093C49.9604 53.0169 50.6775 59.2475 50.6775 59.2475C50.6775 59.2475 47.5978 61.1775 48.658 66.0587C49.1221 68.1941 51.7031 72.7533 53.477 76.526L54.323 76.0274Z" fill="#2A1A4F"/>
<path d="M102.199 16.7241C102.199 16.7241 128.976 47.7423 130.848 60.7483C132.719 73.7545 119.59 98.2393 107.186 118.741C107.186 118.741 101.72 109.689 95.3699 102.42C95.3699 102.42 112.253 76.1811 113.808 67.2349C115.297 57.9836 95.697 21.9327 95.697 21.9327C95.697 21.9327 98.0749 18.2371 102.199 16.7241Z" fill="#B559CF"/>
<path d="M95.8989 22.838C95.8989 22.838 89.1783 22.6691 86.386 20.0722C83.594 17.4748 74.4378 10.4871 75.4955 8.02997C76.5532 5.57279 85.1781 2.78585 95.0487 8.66542C101.215 12.1412 103.015 17.5001 103.015 17.5001L95.8989 22.838Z" fill="#FFC5B6"/>
<path d="M80.6828 4.06151L100.085 14.3065C100.826 14.7876 101.329 15.6384 101.224 16.6183L100.066 27.3949C100.132 27.6999 99.8943 28.0694 99.5902 28.1338L98.2024 29.0666L96.4561 26.8839L78.9521 6.34331L78.0789 5.25217L79.4667 4.31937C80.0085 3.88517 80.3127 3.82077 80.6828 4.06151Z" fill="#E0A632"/>
<path d="M79.2168 7.56323L94.6035 25.681L79.5126 17.7127C78.8383 17.5363 78.3355 16.6855 78.4409 15.7058L79.2168 7.56323Z" fill="#162D47"/>
<path d="M99.8313 17.549L98.6738 28.3264C98.5023 29.0009 97.96 29.4348 97.2195 28.9538L77.8174 18.7083C77.0769 18.2273 76.5738 17.3769 76.6788 16.397L77.8368 5.61988C78.0082 4.94538 78.5501 4.51118 79.2906 4.99222L98.6934 15.2375C99.4339 15.7186 99.9368 16.5694 99.8313 17.549Z" fill="#F9BC33"/>
<path d="M96.8985 17.2165L95.885 25.7289C95.7135 26.4034 95.1717 26.8376 94.4307 26.3563L79.3403 18.3881C78.5993 17.9069 78.0964 17.056 78.2019 16.0764L79.2155 7.56396C79.3869 6.88946 79.9287 6.45526 80.6693 6.9363L95.7601 14.9047C96.5007 15.3858 97.0702 16.5415 96.8985 17.2165Z" fill="#644BEC"/>
<path d="M83.4824 21.3376C83.4824 21.3376 83.0183 19.2022 84.7765 18.5097C86.2308 17.8822 86.324 19.7771 86.285 21.0622C86.2463 22.3468 87.0533 23.1332 87.4237 23.3735C87.7939 23.6142 84.2115 24.693 83.4824 21.3376Z" fill="#FFC5B6"/>
<path d="M19.1599 24.5294C18.5783 26.2473 13.764 30.4584 13.764 30.4584C10.6285 29.2101 7.77043 26.3083 5.82501 23.2129C5.38832 22.6678 5.25583 22.0581 4.81914 21.5129C3.3107 18.9623 2.47651 16.5881 2.64849 15.9134C3.60043 14.436 5.08226 15.3973 5.08226 15.3973C5.08226 15.3973 4.24846 12.9782 5.33285 12.1104C6.1133 11.3067 7.96562 12.5526 7.96562 12.5526C7.96562 12.5526 7.71431 9.85673 8.72719 9.35359C9.58332 9.12299 11.3516 10.5586 11.4177 10.8636C10.5965 5.61578 8.46485 -1.26714 10.8201 0.784429C13.1753 2.83602 15.2943 12.5922 15.2943 12.5922C15.2943 12.5922 16.8154 12.2696 17.993 13.2954C19.1707 14.3211 19.0524 18.1737 19.0524 18.1737C19.7146 21.2225 19.1599 24.5294 19.1599 24.5294Z" fill="#FFC5B6"/>
<path d="M12.1731 15.8154C12.1731 15.8154 10.9452 18.948 13.5767 19.3473C16.2082 19.7465 18.4809 17.0306 18.4809 17.0306C18.4809 17.0306 17.7949 19.7291 14.9917 20.0048C12.255 20.5853 10.2707 18.7721 12.1731 15.8154Z" fill="#B7747D"/>
<path d="M11.143 19.8628C10.9325 21.8223 8.4725 20.7486 8.4725 20.7486C8.4725 20.7486 9.3732 23.4296 7.48245 23.5115C6.87434 23.6404 6.19984 23.4645 5.8296 23.2237C5.39294 22.6781 5.26032 22.0681 4.82365 21.5225C4.82365 21.5225 6.06722 22.8545 7.5877 22.5318C9.10797 22.2095 7.53298 19.3522 7.53298 19.3522C7.53298 19.3522 9.01444 20.3144 10.1645 19.7514C11.3145 19.1883 9.97738 15.9613 9.9112 15.6561C10.2814 15.8969 11.7238 18.1441 11.143 19.8628Z" fill="#B7747D"/>
<path d="M27.6938 52.0899C24.7115 38.3621 19.2969 25.1506 19.2969 25.1506C16.8644 25.6667 12.4635 28.8339 12.0541 29.8781C12.1596 53.7895 15.6717 69.9572 20.307 83.9728C27.0974 99.1262 58.5677 129.787 58.5677 129.787C68.6403 126.374 64.8512 111.86 64.8512 111.86C48.0504 93.0859 31.9506 76.0775 31.9506 76.0775C31.5529 74.2475 30.2122 63.6818 27.6938 52.0899Z" fill="#B559CF"/>
<path d="M67.1876 75.2107C67.1876 75.2107 62.0958 73.7375 59.5848 76.8235L58.8443 76.3425C58.8443 76.3425 63.1522 71.2794 67.1876 75.2107Z" fill="#2A1A4F"/>
<path d="M77.4617 72.7129C77.4617 72.7129 81.4928 69.3046 85.0642 71.1005L85.4736 70.0557C85.54 70.3611 79.8126 67.4271 77.4617 72.7129Z" fill="#2A1A4F"/>
<path d="M73.0971 74.5945L71.947 75.1575C71.947 75.1575 72.5589 82.3673 72.7576 83.2825C72.9563 84.1977 76.2625 84.7729 76.2625 84.7729L73.0971 74.5945Z" fill="#B7747D"/>
<path d="M85.7242 66.8112C85.7242 66.8112 83.5411 64.0828 80.6717 64.0533C78.1064 63.9587 76.4142 64.9563 75.6349 65.7599C75.3967 66.1294 75.159 66.4992 75.5959 67.0449C76.0323 67.5904 76.3364 67.526 76.9447 67.3972C78.2665 66.1592 81.4123 64.5343 85.7242 66.8112Z" fill="#2A1A4F"/>
<path d="M81.8983 85.8099C81.9648 86.1153 82.031 86.42 82.1635 87.0306C82.1248 88.3152 82.0193 89.2948 81.3058 90.4039C80.3548 91.8824 78.9666 92.815 77.4463 93.1372C75.6217 93.5244 73.9687 93.2365 72.7913 92.2098C71.6804 91.4885 71.1775 90.6376 70.6082 89.4814C70.542 89.1767 70.4755 88.8713 70.3428 88.2612L81.8983 85.8099Z" fill="#920E08"/>
<path d="M81.8941 85.8111C81.9606 86.1165 82.0268 86.4212 82.1593 87.0317L70.2989 89.5476C70.2329 89.2424 70.1665 88.937 70.0342 88.3272L81.8941 85.8111Z" fill="white"/>
<path d="M81.3028 90.4055C80.3514 91.8838 78.9636 92.8166 77.4431 93.1393C75.6184 93.5264 73.9655 93.2386 72.7881 92.2118C73.5016 91.1027 75.1273 89.8007 76.6478 89.478C78.1683 89.1553 79.8212 89.4432 81.3028 90.4055Z" fill="#F85C66"/>
<path d="M57.0699 72.5712C57.0699 72.5712 57.9276 69.1978 60.5315 68.0072C62.832 66.8807 64.7891 67.1041 65.8338 67.5207C66.2042 67.761 66.5748 68.002 66.4034 68.6765C66.2317 69.3515 65.9275 69.4159 65.3193 69.5447C63.6 68.9522 60.0559 68.7461 57.0699 72.5712Z" fill="#2A1A4F"/>
</g>
</svg>
