<svg width="32" height="32" viewBox="0 0 32 32" fill="none" xmlns="http://www.w3.org/2000/svg">
<g opacity="0.4" clip-path="url(#clip0)">
<path d="M5.96139 26.36L10.4812 15.8725C11.9171 16.3453 13.4282 16.5489 14.9439 16.4718L16.8493 29.9034L19.0752 29.5867L17.8038 20.6245C20.5866 20.0177 22.9182 18.7383 24.2262 17.9012L28.547 23.1475L30.2819 21.7147L23.0571 12.9425L23.0591 12.9411L15.785 4.11309L14.0225 1.9726L12.9249 4.51998L8.39375 15.0274L8.39608 15.0282L3.89661 25.4679L5.96139 26.36ZM16.0007 7.91356L19.8559 12.5945C18.9386 13.1964 17.9166 13.6363 16.8509 13.9073L16.0007 7.91356ZM11.3738 13.8012L13.7747 8.23023L14.6251 14.2245C13.5261 14.2609 12.4221 14.1229 11.3738 13.8012ZM17.4866 18.3884L17.1698 16.1552C18.6468 15.8057 20.0416 15.1895 21.2892 14.3349L22.7825 16.1481C21.6438 16.8503 19.7193 17.8711 17.4866 18.3884V18.3884Z" fill="#B0C1FF"/>
</g>
<defs>
<clipPath id="clip0">
<rect width="28.0123" height="28.0505" fill="white" transform="matrix(0.990032 -0.140845 0.140453 0.990087 0.15625 3.94525)"/>
</clipPath>
</defs>
</svg>
