<svg width="39" height="39" viewBox="0 0 39 39" fill="none" xmlns="http://www.w3.org/2000/svg">
<g opacity="0.4" clip-path="url(#clip0)">
<path d="M13.3038 9.05738L12.1366 7.03295C9.30445 8.67045 8.05006 12.0956 9.15235 15.1786L11.6478 22.1614L8.95356 23.7191L10.1207 25.7436L12.4475 24.3983L14.8 30.9813C15.5219 32.9999 14.7002 35.2424 12.8459 36.3145L14.0131 38.3389C16.8453 36.7014 18.0996 33.2763 16.9973 30.1932L14.5019 23.2105L16.6908 21.9449L15.5236 19.9205L13.7022 20.9736L11.3497 14.3906C10.6278 12.372 11.4495 10.1294 13.3038 9.05738Z" fill="#B0C1FF"/>
<path d="M16.6486 12.5218L15.4898 12.3819C15.4737 12.5161 15.1231 15.7198 17.6231 20.0561C20.1231 24.3923 23.0689 25.6902 23.193 25.7433L24.1095 23.5937C24.0871 23.5839 21.7262 22.4977 19.6447 18.8873C17.5637 15.2778 17.8058 12.6788 17.8081 12.6524L16.6486 12.5218Z" fill="#B0C1FF"/>
<path d="M24.782 8.6294C24.8049 8.63889 27.1657 9.72505 29.2473 13.3355C31.3283 16.945 31.0861 19.544 31.0839 19.5704L32.2433 19.701L33.4022 19.8409C33.4187 19.7058 33.7688 16.503 31.2688 12.1667C28.7688 7.83044 25.823 6.53259 25.6989 6.47945L24.782 8.6294Z" fill="#B0C1FF"/>
<path d="M23.5954 12.4351L23.3472 14.7898L21.1869 13.8276L20.239 15.9638L23.0894 17.2332L22.7619 20.3399L25.0832 20.5859L25.3313 18.2312L27.4917 19.1934L28.4396 17.0572L25.5892 15.7879L25.9167 12.6811L23.5954 12.4351Z" fill="#B0C1FF"/>
</g>
<defs>
<clipPath id="clip0">
<rect width="28.0214" height="28.0414" fill="white" transform="matrix(0.865717 -0.500533 0.499467 0.866333 0.00732422 14.0458)"/>
</clipPath>
</defs>
</svg>
