<svg width="30" height="30" viewBox="0 0 30 30" fill="none" xmlns="http://www.w3.org/2000/svg">
<g opacity="0.3" clip-path="url(#clip0)">
<path d="M16.5475 0.727798L14.2151 0.63444L13.7023 13.481L0.87398 12.9676L0.780754 15.3033L13.6091 15.8168L13.0964 28.6634L15.4288 28.7567L15.9415 15.9101L28.7699 16.4236L28.8631 14.0879L16.0348 13.5744L16.5475 0.727798Z" fill="#B0C1FF"/>
<path d="M11.8826 0.541082L9.55021 0.447724C9.37028 4.95584 5.56214 8.47626 1.06043 8.29608L0.967205 10.6318C6.75442 10.8635 11.6513 6.33653 11.8826 0.541082Z" fill="#B0C1FF"/>
<path d="M17.7612 28.8501L20.0936 28.9434C20.2735 24.4353 24.0816 20.9149 28.5834 21.0951L28.6766 18.7593C22.8894 18.5277 17.9925 23.0546 17.7612 28.8501Z" fill="#B0C1FF"/>
</g>
<defs>
<clipPath id="clip0">
<rect width="28.0115" height="28.0512" fill="white" transform="matrix(0.9992 0.0399941 -0.0398807 0.999204 1.38672 0.120972)"/>
</clipPath>
</defs>
</svg>
