<svg width="40" height="40" viewBox="0 0 40 40" fill="none" xmlns="http://www.w3.org/2000/svg">
<g clip-path="url(#clip0)">
<path d="M32.6862 20.2715L22.2957 7.6427C20.215 5.11381 15.4195 5.74408 11.3786 9.07829C7.33761 12.4125 5.80258 17.0056 7.88326 19.5345L18.2738 32.1632C20.3544 34.6921 25.1499 34.0619 29.1909 30.7276C33.2318 27.3934 34.7668 22.8004 32.6862 20.2715ZM28.4113 18.7518C26.3388 18.9075 23.9458 19.9111 21.7691 21.7071C19.5923 23.5031 18.1509 25.6633 17.602 27.6707L12.1581 21.0541C14.2306 20.8985 16.6236 19.8949 18.8004 18.0989C20.9771 16.3028 22.4185 14.1426 22.9674 12.1353L28.4113 18.7518ZM12.8629 10.8824C16.048 8.25441 19.441 7.8492 20.4941 9.12917C21.5472 10.4091 20.501 13.6667 17.316 16.2947C14.131 18.9227 10.7379 19.328 9.68481 18.048C8.6317 16.768 9.67788 13.5104 12.8629 10.8824ZM27.7065 28.9235C24.5215 31.5515 21.1284 31.9567 20.0753 30.6768C19.0222 29.3968 20.0684 26.1392 23.2534 23.5112C26.4385 20.8832 29.8315 20.478 30.8846 21.758C31.9377 23.0379 30.8915 26.2955 27.7065 28.9235Z" fill="#CBD3F2"/>
</g>
<defs>
<clipPath id="clip0">
<rect width="28.0276" height="28.0352" fill="white" transform="matrix(0.771333 -0.636432 0.635355 0.77222 0.569336 17.9971)"/>
</clipPath>
</defs>
</svg>
