<svg width="27" height="22" viewBox="0 0 27 22" fill="none" xmlns="http://www.w3.org/2000/svg">
<path d="M14.4231 4.61432L13.3923 6.17759L12.0919 4.83087C10.9806 3.68007 9.32454 3.00968 7.52515 3.17679C4.43315 3.46395 2.25824 6.0718 2.51841 8.8805L2.51841 8.88053C2.83425 12.291 5.69364 14.9765 8.9557 16.9108C10.5372 17.8486 12.1058 18.5446 13.2841 19.0068C13.8316 19.2215 14.2906 19.3841 14.6217 19.4957C14.9269 19.3231 15.3488 19.0759 15.8484 18.7607C16.9219 18.0833 18.3363 17.1028 19.7193 15.8844C22.5748 13.3686 24.8891 10.2029 24.5769 6.8319C24.3168 4.02314 21.7001 1.86032 18.6082 2.14748C16.8088 2.31459 15.304 3.27857 14.4231 4.61432Z" stroke="#DFE6FF" stroke-width="3"/>
</svg>
