<svg width="39" height="40" viewBox="0 0 39 40" fill="none" xmlns="http://www.w3.org/2000/svg">
<g opacity="0.4" clip-path="url(#clip0)">
<path d="M12.6459 7.76781C5.95767 11.6348 3.65829 20.2299 7.51947 26.9272C11.3806 33.6245 19.9634 35.9279 26.6517 32.061C33.3399 28.194 35.6393 19.5988 31.7781 12.9016C27.9169 6.20429 19.3342 3.90086 12.6459 7.76781ZM13.8131 9.79224C17.9714 7.388 23.0067 7.84882 26.6329 10.554C23.6999 10.5311 19.9541 11.6402 16.1474 13.8411C12.3407 16.042 9.5086 18.7361 8.06189 21.2912C7.53559 16.7938 9.65472 12.1965 13.8131 9.79224ZM21.9831 23.9632C16.198 27.308 10.6428 27.6694 9.54102 25.7584C8.43927 23.8474 11.5294 19.2103 17.3145 15.8655C23.0996 12.5208 28.6548 12.1594 29.7566 14.0704C30.8583 15.9814 27.7681 20.6185 21.9831 23.9632ZM25.4845 30.0365C21.3262 32.4408 16.2909 31.98 12.6646 29.2748C15.5976 29.2977 19.3435 28.1886 23.1502 25.9877C26.9569 23.7867 29.789 21.0926 31.2357 18.5375C31.762 23.035 29.6429 27.6323 25.4845 30.0365Z" fill="#B0C1FF"/>
</g>
<defs>
<clipPath id="clip0">
<rect width="28.0214" height="28.0414" fill="white" transform="matrix(0.865717 -0.500533 0.499467 0.866333 0.516602 14.7806)"/>
</clipPath>
</defs>
</svg>
