<svg width="1440" height="781" viewBox="0 0 1440 781" fill="none" xmlns="http://www.w3.org/2000/svg">
<mask id="mask0" mask-type="alpha" maskUnits="userSpaceOnUse" x="0" y="0" width="1440" height="781">
<rect width="1440" height="781" fill="#644BEC"/>
</mask>
<g mask="url(#mask0)">
<g opacity="0.4" clip-path="url(#clip0)">
<path d="M1154.68 192.881L1152.65 191.739L1164.05 171.343L1166.09 172.485L1167.23 170.446L1163.15 168.161L1149.47 192.636L1153.54 194.921L1154.68 192.881Z" fill="#B0C1FF"/>
<path d="M1182.38 181.622L1184.42 182.765L1173.01 203.16L1170.98 202.018L1169.84 204.058L1173.91 206.342L1187.6 181.867L1183.52 179.583L1182.38 181.622Z" fill="#B0C1FF"/>
<path d="M1157.86 191.984L1170.08 198.837L1172.36 194.757L1170.32 193.615L1169.18 195.655L1161.78 191.505L1170.37 188.285L1168.63 179.267L1176.03 183.417L1174.89 185.457L1176.92 186.599L1179.2 182.52L1166.98 175.667L1165.92 177.57L1167.71 186.789L1158.92 190.081L1157.86 191.984Z" fill="#B0C1FF"/>
</g>
<g opacity="0.4" clip-path="url(#clip1)">
<path d="M471.214 602.539L469.177 601.397L480.583 581.001L482.619 582.143L483.76 580.103L479.687 577.819L466 602.294L470.073 604.578L471.214 602.539Z" fill="#B0C1FF"/>
<path d="M498.913 591.28L500.949 592.422L489.544 612.818L487.507 611.676L486.367 613.716L490.44 616L504.127 591.525L500.053 589.241L498.913 591.28Z" fill="#B0C1FF"/>
<path d="M474.391 601.641L486.611 608.494L488.892 604.415L486.856 603.273L485.715 605.313L478.315 601.163L486.907 597.943L485.158 588.925L492.558 593.075L491.418 595.115L493.455 596.257L495.736 592.178L483.516 585.325L482.452 587.228L484.239 596.447L475.455 599.739L474.391 601.641Z" fill="#B0C1FF"/>
</g>
<g opacity="0.4" clip-path="url(#clip2)">
<path d="M36.3038 100.057L35.1366 98.033C32.3044 99.6705 31.0501 103.096 32.1524 106.179L34.6478 113.161L31.9536 114.719L33.1207 116.744L35.4475 115.398L37.8 121.981C38.5219 124 37.7002 126.242 35.8459 127.315L37.0131 129.339C39.8453 127.701 41.0996 124.276 39.9973 121.193L37.5019 114.211L39.6908 112.945L38.5236 110.921L36.7022 111.974L34.3497 105.391C33.6278 103.372 34.4495 101.129 36.3038 100.057Z" fill="#B0C1FF"/>
<path d="M39.6486 103.522L38.4898 103.382C38.4737 103.516 38.1231 106.72 40.6231 111.056C43.1231 115.392 46.0689 116.69 46.193 116.743L47.1095 114.594C47.0871 114.584 44.7262 113.498 42.6447 109.887C40.5637 106.278 40.8058 103.679 40.8081 103.652L39.6486 103.522Z" fill="#B0C1FF"/>
<path d="M47.782 99.6294C47.8049 99.6389 50.1657 100.725 52.2473 104.336C54.3283 107.945 54.0861 110.544 54.0839 110.57L55.2433 110.701L56.4022 110.841C56.4187 110.706 56.7688 107.503 54.2688 103.167C51.7688 98.8305 48.823 97.5326 48.6989 97.4795L47.782 99.6294Z" fill="#B0C1FF"/>
<path d="M46.5954 103.435L46.3472 105.79L44.1869 104.828L43.239 106.964L46.0894 108.233L45.7619 111.34L48.0832 111.586L48.3313 109.231L50.4917 110.193L51.4396 108.057L48.5892 106.788L48.9167 103.681L46.5954 103.435Z" fill="#B0C1FF"/>
</g>
<g opacity="0.4" clip-path="url(#clip3)">
<path d="M484.954 278.549C483.437 278.438 482.076 279.32 481.497 280.641L471.777 279.935C471.394 278.544 470.174 277.475 468.657 277.365C467.14 277.255 465.778 278.136 465.2 279.458L462.668 279.274L462.499 281.605L465.031 281.789C465.413 283.181 466.633 284.249 468.15 284.36C469.668 284.47 471.029 283.588 471.608 282.267L481.328 282.973C481.71 284.364 482.93 285.433 484.448 285.543C485.965 285.653 487.326 284.772 487.905 283.45L490.437 283.634L490.606 281.303L488.074 281.119C487.691 279.728 486.471 278.659 484.954 278.549ZM468.319 282.028C467.677 281.981 467.193 281.421 467.24 280.778C467.286 280.135 467.846 279.65 468.488 279.697C469.13 279.743 469.614 280.304 469.568 280.947C469.521 281.59 468.961 282.075 468.319 282.028ZM484.616 283.212C483.974 283.165 483.49 282.604 483.537 281.961C483.583 281.318 484.143 280.834 484.785 280.88C485.427 280.927 485.911 281.487 485.865 282.13C485.818 282.773 485.258 283.258 484.616 283.212Z" fill="#B0C1FF"/>
<path d="M485.967 264.56L482.475 264.306L481.63 275.964L485.123 276.217C487.049 276.357 488.729 274.902 488.868 272.974C488.933 272.077 488.651 271.237 488.141 270.577C488.741 269.998 489.141 269.207 489.206 268.311C489.346 266.382 487.893 264.7 485.967 264.56ZM484.634 266.807L485.798 266.891C486.44 266.938 486.924 267.499 486.878 268.142C486.831 268.784 486.271 269.269 485.629 269.223L484.465 269.138L484.634 266.807ZM485.292 273.886L484.127 273.801L484.296 271.47L485.46 271.554C486.102 271.601 486.587 272.162 486.54 272.805C486.493 273.447 485.934 273.932 485.292 273.886Z" fill="#B0C1FF"/>
<path d="M472.317 275.287L472.908 267.127C473.047 265.198 471.595 263.516 469.669 263.376C467.743 263.236 466.063 264.691 465.923 266.62L465.332 274.78L467.66 274.949L467.914 271.452L470.242 271.621L469.988 275.118L472.317 275.287ZM468.082 269.12L468.251 266.789C468.298 266.146 468.858 265.661 469.5 265.708C470.142 265.754 470.626 266.315 470.579 266.958L470.411 269.289L468.082 269.12Z" fill="#B0C1FF"/>
</g>
<g opacity="0.3" clip-path="url(#clip4)">
<path d="M676.547 146.728L674.215 146.634L673.702 159.481L660.874 158.968L660.781 161.303L673.609 161.817L673.096 174.663L675.429 174.757L675.942 161.91L688.77 162.424L688.863 160.088L676.035 159.574L676.547 146.728Z" fill="#B0C1FF"/>
<path d="M671.883 146.541L669.55 146.448C669.37 150.956 665.562 154.476 661.06 154.296L660.967 156.632C666.754 156.863 671.651 152.337 671.883 146.541Z" fill="#B0C1FF"/>
<path d="M677.761 174.85L680.094 174.943C680.274 170.435 684.082 166.915 688.583 167.095L688.677 164.759C682.889 164.528 677.992 169.055 677.761 174.85Z" fill="#B0C1FF"/>
</g>
<g opacity="0.4" clip-path="url(#clip5)">
<path d="M392.962 106.36L397.481 95.8726C398.917 96.3454 400.428 96.5491 401.944 96.472L403.85 109.903L406.075 109.587L404.804 100.625C407.587 100.018 409.918 98.7384 411.226 97.9013L415.547 103.148L417.282 101.715L410.057 92.9426L410.059 92.9412L402.785 84.1132L401.023 81.9727L399.925 84.5201L395.394 95.0276L395.396 95.0283L390.897 105.468L392.962 106.36ZM403.001 87.9137L406.856 92.5946C405.939 93.1965 404.917 93.6364 403.851 93.9074L403.001 87.9137ZM398.374 93.8013L400.775 88.2304L401.625 94.2246C400.526 94.261 399.422 94.123 398.374 93.8013ZM404.487 98.3885L404.17 96.1553C405.647 95.8058 407.042 95.1896 408.289 94.335L409.783 96.1482C408.644 96.8504 406.72 97.8713 404.487 98.3885Z" fill="#B0C1FF"/>
</g>
<g opacity="0.4" clip-path="url(#clip6)">
<path d="M1187.91 422.095L1171.22 403.305L1162.93 427.042L1176.66 430.823L1187.91 422.095ZM1173.54 409.278L1181.33 418.046L1176.08 422.121L1173.54 409.278ZM1177.16 427.605L1176.56 424.574L1182.82 419.721L1184.66 421.793L1177.16 427.605ZM1171.35 409.712L1174.97 428.039L1165.83 425.521L1171.35 409.712Z" fill="#B0C1FF"/>
</g>
<path d="M1009.42 87.6143L1008.39 89.1776L1007.09 87.8309C1005.98 86.6801 1004.32 86.0097 1002.52 86.1768C999.433 86.464 997.258 89.0718 997.518 91.8805L997.518 91.8805C997.834 95.291 1000.69 97.9765 1003.96 99.9108C1005.54 100.849 1007.11 101.545 1008.28 102.007C1008.83 102.222 1009.29 102.384 1009.62 102.496C1009.93 102.323 1010.35 102.076 1010.85 101.761C1011.92 101.083 1013.34 100.103 1014.72 98.8844C1017.57 96.3686 1019.89 93.2029 1019.58 89.8319C1019.32 87.0231 1016.7 84.8603 1013.61 85.1475C1011.81 85.3146 1010.3 86.2786 1009.42 87.6143Z" stroke="#DFE6FF" stroke-width="3"/>
<path d="M19.0178 420.223L17.987 421.786L16.6866 420.439C15.5754 419.288 13.9193 418.618 12.1199 418.785C9.02788 419.072 6.85297 421.68 7.11314 424.489L7.11314 424.489C7.42898 427.899 10.2884 430.585 13.5504 432.519C15.1319 433.457 16.7005 434.153 17.8789 434.615C18.4264 434.83 18.8853 434.992 19.2164 435.104C19.5216 434.931 19.9435 434.684 20.4431 434.369C21.5166 433.692 22.9311 432.711 24.314 431.493C27.1695 428.977 29.4839 425.811 29.1717 422.44C28.9116 419.632 26.2949 417.469 23.2029 417.756C21.4035 417.923 19.8987 418.887 19.0178 420.223Z" stroke="#DFE6FF" stroke-width="3"/>
<path d="M1369.55 293.045L1368.52 294.608L1367.22 293.262C1366.11 292.111 1364.46 291.44 1362.66 291.607C1359.56 291.895 1357.39 294.502 1357.65 297.311L1357.65 297.311C1357.97 300.722 1360.82 303.407 1364.09 305.341C1365.67 306.279 1367.24 306.975 1368.41 307.437C1368.96 307.652 1369.42 307.815 1369.75 307.926C1370.06 307.754 1370.48 307.507 1370.98 307.191C1372.05 306.514 1373.47 305.533 1374.85 304.315C1377.71 301.799 1380.02 298.634 1379.71 295.263C1379.45 292.454 1376.83 290.291 1373.74 290.578C1371.94 290.745 1370.43 291.709 1369.55 293.045Z" stroke="#DFE6FF" stroke-width="3"/>
<g clip-path="url(#clip7)">
<path d="M1337.69 127.271L1327.3 114.643C1325.21 112.114 1320.42 112.744 1316.38 116.078C1312.34 119.412 1310.8 124.006 1312.88 126.534L1323.27 139.163C1325.35 141.692 1330.15 141.062 1334.19 137.728C1338.23 134.393 1339.77 129.8 1337.69 127.271ZM1333.41 125.752C1331.34 125.907 1328.95 126.911 1326.77 128.707C1324.59 130.503 1323.15 132.663 1322.6 134.671L1317.16 128.054C1319.23 127.898 1321.62 126.895 1323.8 125.099C1325.98 123.303 1327.42 121.143 1327.97 119.135L1333.41 125.752ZM1317.86 117.882C1321.05 115.254 1324.44 114.849 1325.49 116.129C1326.55 117.409 1325.5 120.667 1322.32 123.295C1319.13 125.923 1315.74 126.328 1314.68 125.048C1313.63 123.768 1314.68 120.51 1317.86 117.882ZM1332.71 135.924C1329.52 138.551 1326.13 138.957 1325.08 137.677C1324.02 136.397 1325.07 133.139 1328.25 130.511C1331.44 127.883 1334.83 127.478 1335.88 128.758C1336.94 130.038 1335.89 133.296 1332.71 135.924Z" fill="#CBD3F2"/>
</g>
<g opacity="0.4" clip-path="url(#clip8)">
<path d="M1259.65 409.768C1252.96 413.635 1250.66 422.23 1254.52 428.927C1258.38 435.624 1266.96 437.928 1273.65 434.061C1280.34 430.194 1282.64 421.599 1278.78 414.902C1274.92 408.204 1266.33 405.901 1259.65 409.768ZM1260.81 411.792C1264.97 409.388 1270.01 409.849 1273.63 412.554C1270.7 412.531 1266.95 413.64 1263.15 415.841C1259.34 418.042 1256.51 420.736 1255.06 423.291C1254.54 418.794 1256.65 414.196 1260.81 411.792ZM1268.98 425.963C1263.2 429.308 1257.64 429.669 1256.54 427.758C1255.44 425.847 1258.53 421.21 1264.31 417.866C1270.1 414.521 1275.65 414.159 1276.76 416.07C1277.86 417.981 1274.77 422.618 1268.98 425.963ZM1272.48 432.037C1268.33 434.441 1263.29 433.98 1259.66 431.275C1262.6 431.298 1266.34 430.189 1270.15 427.988C1273.96 425.787 1276.79 423.093 1278.24 420.538C1278.76 425.035 1276.64 429.632 1272.48 432.037Z" fill="#B0C1FF"/>
</g>
</g>
<defs>
<clipPath id="clip0">
<rect width="28.021" height="28.0418" fill="white" transform="matrix(0.87221 0.489132 -0.488075 0.872802 1163.15 168.161)"/>
</clipPath>
<clipPath id="clip1">
<rect width="28.021" height="28.0418" fill="white" transform="matrix(0.87221 0.489132 -0.488075 0.872802 479.687 577.819)"/>
</clipPath>
<clipPath id="clip2">
<rect width="28.0214" height="28.0414" fill="white" transform="matrix(0.865717 -0.500533 0.499467 0.866333 23.0073 105.046)"/>
</clipPath>
<clipPath id="clip3">
<rect width="28.0117" height="28.0511" fill="white" transform="matrix(0.997373 0.0724315 -0.072227 0.997388 464.103 259.456)"/>
</clipPath>
<clipPath id="clip4">
<rect width="28.0115" height="28.0512" fill="white" transform="matrix(0.9992 0.0399941 -0.0398807 0.999204 661.387 146.121)"/>
</clipPath>
<clipPath id="clip5">
<rect width="28.0123" height="28.0505" fill="white" transform="matrix(0.990032 -0.140845 0.140453 0.990087 387.156 83.9454)"/>
</clipPath>
<clipPath id="clip6">
<rect width="28.013" height="28.0498" fill="white" transform="matrix(0.980953 -0.194247 0.193717 0.981058 1157.47 406.028)"/>
</clipPath>
<clipPath id="clip7">
<rect width="28.0276" height="28.0352" fill="white" transform="matrix(0.771333 -0.636432 0.635355 0.77222 1305.57 124.997)"/>
</clipPath>
<clipPath id="clip8">
<rect width="28.0214" height="28.0414" fill="white" transform="matrix(0.865717 -0.500533 0.499467 0.866333 1247.52 416.781)"/>
</clipPath>
</defs>
</svg>
