<svg width="24" height="24" viewBox="0 0 24 24" fill="none" xmlns="http://www.w3.org/2000/svg">
<g opacity="0.5" clip-path="url(#clip0)">
<path d="M3.39685 15.3913L2.12694 14.6802L9.23845 1.98106L10.5084 2.69222L11.2195 1.4223L8.67969 0L0.145873 15.239L2.6857 16.6613L3.39685 15.3913Z" fill="#644BEC"/>
<path d="M20.6678 8.38148L21.9377 9.09264L14.8262 21.7918L13.5562 21.0806L12.8451 22.3505L15.3849 23.7728L23.9187 8.53387L21.3789 7.11157L20.6678 8.38148Z" fill="#644BEC"/>
<path d="M5.3772 14.8326L12.9967 19.0995L14.419 16.5597L13.1491 15.8486L12.4379 17.1185L7.82363 14.5345L13.1808 12.5301L12.0905 6.91501L16.7048 9.49901L15.9937 10.7689L17.2636 11.4801L18.6859 8.94025L11.0664 4.67334L10.4029 5.85815L11.5172 11.5984L6.04069 13.6478L5.3772 14.8326Z" fill="#644BEC"/>
</g>
<defs>
<clipPath id="clip0">
<rect width="17.4657" height="17.4657" fill="white" transform="translate(8.67969) rotate(29.2488)"/>
</clipPath>
</defs>
</svg>
