<svg width="30" height="30" viewBox="0 0 30 30" fill="none" xmlns="http://www.w3.org/2000/svg">
<g opacity="0.2" clip-path="url(#clip0)">
<path d="M22.8664 19.0574C21.3497 18.9474 19.9891 19.8271 19.4105 21.1462L9.69424 20.4416C9.31204 19.0528 8.0926 17.986 6.57587 17.876C5.05914 17.766 3.69853 18.6458 3.11995 19.9649L0.589044 19.7813L0.420276 22.1085L2.95119 22.2921C3.33339 23.6809 4.55283 24.7477 6.06956 24.8577C7.58629 24.9677 8.9469 24.088 9.52547 22.7688L19.2417 23.4735C19.6239 24.8622 20.8434 25.9291 22.3601 26.0391C23.8768 26.1491 25.2375 25.2693 25.816 23.9502L28.3469 24.1338L28.5157 21.8065L25.9848 21.623C25.6026 20.2342 24.3831 19.1674 22.8664 19.0574ZM6.23833 22.5305C5.59658 22.4839 5.11256 21.9242 5.1591 21.2825C5.20564 20.6407 5.76535 20.1567 6.4071 20.2032C7.04885 20.2498 7.53286 20.8095 7.48633 21.4512C7.43979 22.093 6.88008 22.577 6.23833 22.5305ZM22.5289 23.7118C21.8871 23.6653 21.4031 23.1056 21.4497 22.4638C21.4962 21.8221 22.0559 21.3381 22.6977 21.3846C23.3394 21.4312 23.8234 21.9909 23.7769 22.6326C23.7303 23.2744 23.1706 23.7584 22.5289 23.7118Z" fill="#644BEC"/>
<path d="M23.8776 5.09422L20.3867 4.84106L19.5429 16.4772L23.0337 16.7303C24.959 16.8699 26.6381 15.4179 26.7777 13.4926C26.8426 12.5978 26.5607 11.7592 26.0505 11.1004C26.6504 10.5222 27.0503 9.73307 27.1152 8.8382C27.2548 6.91296 25.8028 5.23383 23.8776 5.09422ZM22.5452 7.33705L23.7088 7.42144C24.3505 7.46798 24.8345 8.02769 24.788 8.66943C24.7415 9.31118 24.1818 9.7952 23.54 9.74866L22.3764 9.66428L22.5452 7.33705ZM23.2025 14.4031L22.0389 14.3187L22.2076 11.9915L23.3712 12.0759C24.013 12.1224 24.497 12.6821 24.4505 13.3239C24.4039 13.9656 23.8442 14.4496 23.2025 14.4031Z" fill="#644BEC"/>
<path d="M10.2355 15.8021L10.8262 7.6568C10.9658 5.73156 9.51373 4.05244 7.58849 3.91282C5.66325 3.7732 3.98412 5.22526 3.8445 7.1505L3.25382 15.2958L5.58104 15.4645L5.83419 11.9737L8.16141 12.1425L7.90826 15.6333L10.2355 15.8021ZM6.00296 9.64649L6.17173 7.31927C6.21827 6.67752 6.77797 6.1935 7.41972 6.24004C8.06147 6.28658 8.54549 6.84629 8.49895 7.48804L8.33018 9.81526L6.00296 9.64649Z" fill="#644BEC"/>
</g>
<defs>
<clipPath id="clip0">
<rect width="28" height="28" fill="white" transform="translate(2.02344) rotate(4.14778)"/>
</clipPath>
</defs>
</svg>
