<svg width="19" height="19" viewBox="0 0 19 19" fill="none" xmlns="http://www.w3.org/2000/svg">
<g opacity="0.3" clip-path="url(#clip0)">
<path d="M10.5948 0.378814L9.13673 0.320535L8.81619 8.34007L0.796653 8.01954L0.738374 9.47764L8.75791 9.79817L8.43738 17.8177L9.89548 17.876L10.216 9.85645L18.2356 10.177L18.2938 8.71889L10.2743 8.39835L10.5948 0.378814Z" fill="#644BEC"/>
<path d="M7.67863 0.262256L6.22053 0.203977C6.10805 3.01818 3.72742 5.21583 0.913211 5.10334L0.854932 6.56144C4.47277 6.70604 7.53403 3.88009 7.67863 0.262256Z" fill="#644BEC"/>
<path d="M11.3549 17.9342L12.813 17.9925C12.9255 15.1783 15.3061 12.9807 18.1203 13.0932L18.1786 11.6351C14.5608 11.4905 11.4995 14.3164 11.3549 17.9342Z" fill="#644BEC"/>
</g>
<defs>
<clipPath id="clip0">
<rect width="17.5111" height="17.5111" fill="white" transform="translate(1.11719) rotate(2.28885)"/>
</clipPath>
</defs>
</svg>
