<svg xmlns="http://www.w3.org/2000/svg">
	<symbol id="icon-telegram" viewBox="0 0 48 48">
		<rect width="48" height="48" rx="24" fill="#538CC1"/>
		<path fill-rule="evenodd" clip-rule="evenodd" d="M9.5938 22.0546L35.1595 12.0919C36.1325 11.7128 37.1382 12.5644 36.9244 13.5866L32.5596 34.455C32.3548 35.4343 31.2062 35.8741 30.3997 35.2821L23.8093 30.4446L20.4504 33.8742C19.8609 34.4761 18.8426 34.2325 18.5893 33.4289L16.1648 25.7357L9.66829 23.8173C8.81589 23.5656 8.76572 22.3773 9.5938 22.0546ZM20.0791 27.2243L31.9542 16.7232C32.2385 16.4718 31.9083 16.0279 31.5859 16.228L17.5626 24.9254C17.3157 25.0785 17.2034 25.3792 17.2895 25.6567L19.1706 31.718C19.2102 31.8453 19.3957 31.8278 19.4106 31.6952L19.8678 27.6309C19.8854 27.4739 19.9607 27.329 20.0791 27.2243Z" fill="white"/>
	</symbol>
	<symbol id="icon-viber" viewBox="0 0 48 48">
		<rect width="48" height="48" rx="23.9858" fill="#7D3DAF"/>
		<path fill-rule="evenodd" clip-rule="evenodd" d="M39.1711 16.4351L39.1805 16.473C40.1285 20.8019 40.1285 25.1918 39.1805 29.5208L39.1711 29.5587C38.4043 32.6585 34.9475 35.9846 31.773 36.6766L31.7372 36.684C29.1704 37.1737 26.5847 37.4181 24 37.4181C23.2392 37.4181 22.4785 37.3944 21.7181 37.3519L18.2124 40.996C17.3445 41.8997 15.8183 41.2846 15.8183 40.0323V36.5721C12.7623 35.6994 9.56296 32.5261 8.82789 29.5586L8.81947 29.5207C7.87154 25.1918 7.87154 20.8019 8.81947 16.473L8.82789 16.4351C9.59571 13.3354 13.0525 10.0092 16.2259 9.31721L16.2628 9.30984C21.3964 8.33031 26.6026 8.33031 31.7372 9.30984L31.773 9.31721C34.9475 10.0092 38.4043 13.3354 39.1711 16.4351ZM31.1843 33.894C33.2697 33.4295 35.8944 30.9154 36.4063 28.8931C37.2604 24.9803 37.2604 21.0137 36.4063 17.1008C35.8944 15.0786 33.2708 12.5644 31.1843 12.1C26.4173 11.1931 21.5828 11.1931 16.8148 12.1C14.7293 12.5644 12.1057 15.0786 11.5927 17.1008C10.7396 21.0136 10.7396 24.9802 11.5927 28.893C12.1057 30.9153 14.7293 33.4294 16.8148 33.8939L16.8163 33.8942C16.9093 33.9124 16.977 33.9929 16.977 34.0876V39.8196C16.977 40.1061 17.3266 40.2472 17.5257 40.0397L20.2484 37.2454L22.8081 34.6178C22.8462 34.5786 22.8988 34.5574 22.9534 34.5589C25.7024 34.635 28.4541 34.4131 31.1843 33.894Z" fill="white"/>
		<path d="M28.5365 31.5388C28.2159 31.4415 27.9104 31.3761 27.6266 31.2583C24.6864 30.0385 21.9803 28.4647 19.8369 26.0522C18.6179 24.6803 17.6639 23.1315 16.8574 21.4925C16.475 20.7152 16.1527 19.9074 15.8242 19.105C15.5246 18.3732 15.9659 17.6171 16.4304 17.0658C16.8664 16.5483 17.4273 16.1523 18.0349 15.8604C18.509 15.6326 18.9768 15.7639 19.3231 16.1659C20.0717 17.0348 20.7594 17.9482 21.3163 18.9554C21.6587 19.5749 21.5647 20.3322 20.9442 20.7538C20.7933 20.8563 20.6559 20.9766 20.5154 21.0923C20.3921 21.1938 20.2762 21.2962 20.1917 21.4336C20.0373 21.6849 20.0299 21.9813 20.1294 22.2545C20.8947 24.3576 22.1846 25.993 24.3014 26.8739C24.6401 27.0148 24.9803 27.1789 25.3706 27.1334C26.0241 27.057 26.2357 26.3402 26.6937 25.9656C27.1413 25.5996 27.7133 25.5948 28.1955 25.8999C28.6778 26.2051 29.1453 26.5328 29.61 26.864C30.0662 27.189 30.5203 27.507 30.9411 27.8775C31.3457 28.2338 31.485 28.7012 31.2572 29.1848C30.8401 30.0704 30.2332 30.8071 29.3578 31.2774C29.1106 31.41 28.8153 31.453 28.5365 31.5388C28.2159 31.4414 28.8153 31.453 28.5365 31.5388Z" fill="white"/>
		<path d="M24.0081 14.8483C27.854 14.956 31.0128 17.5084 31.6898 21.3106C31.8051 21.9585 31.8462 22.6209 31.8975 23.2784C31.9191 23.555 31.7624 23.8178 31.4639 23.8214C31.1557 23.825 31.0169 23.5671 30.9969 23.2906C30.9573 22.7434 30.9298 22.1937 30.8544 21.6509C30.4563 18.786 28.1718 16.4157 25.3201 15.9071C24.891 15.8305 24.4518 15.8104 24.0171 15.7648C23.7423 15.736 23.3824 15.7193 23.3216 15.3778C23.2705 15.0914 23.5122 14.8633 23.7849 14.8487C23.859 14.8446 23.9336 14.848 24.0081 14.8483C27.854 14.956 23.9336 14.848 24.0081 14.8483Z" fill="white"/>
		<path d="M29.8527 22.4246C29.8464 22.4727 29.843 22.5856 29.8149 22.692C29.7128 23.0781 29.1274 23.1264 28.9926 22.7367C28.9527 22.6211 28.9467 22.4895 28.9465 22.365C28.9451 21.5504 28.768 20.7367 28.3573 20.028C27.935 19.2995 27.2899 18.6872 26.5333 18.3166C26.0757 18.0926 25.5809 17.9534 25.0794 17.8704C24.8603 17.8342 24.6388 17.8121 24.4185 17.7815C24.1516 17.7444 24.0091 17.5743 24.0218 17.3113C24.0336 17.0649 24.2137 16.8876 24.4823 16.9028C25.3649 16.9529 26.2174 17.1436 27.0021 17.5591C28.5977 18.4042 29.5092 19.738 29.7753 21.5191C29.7873 21.5997 29.8067 21.6797 29.8128 21.7607C29.8278 21.9607 29.8373 22.1609 29.8527 22.4246C29.8464 22.4727 29.8373 22.1609 29.8527 22.4246Z" fill="white"/>
		<path d="M27.4606 22.3315C27.1389 22.3373 26.9667 22.1592 26.9335 21.8642C26.9104 21.6585 26.8922 21.4501 26.8431 21.2499C26.7464 20.8558 26.5369 20.4906 26.2054 20.249C26.0489 20.135 25.8715 20.0519 25.6857 19.9983C25.4497 19.9301 25.2046 19.9489 24.9691 19.8911C24.7133 19.8285 24.5719 19.6214 24.6121 19.3815C24.6487 19.1631 24.8611 18.9927 25.0997 19.01C26.5908 19.1176 27.6564 19.8885 27.8085 21.6439C27.8193 21.7677 27.8319 21.8986 27.8044 22.0171C27.7573 22.22 27.6072 22.3216 27.4606 22.3315C27.1389 22.3373 27.6072 22.3216 27.4606 22.3315Z" fill="white"/>
	</symbol>
	<symbol id="icon-whatsapp" viewBox="0 0 50 50">
		<circle cx="25" cy="25.001" r="25" fill="#48C95F"/>
		<path d="M34.9085 15.0791C32.439 12.6182 29.1463 11.251 25.6707 11.251C18.4451 11.251 12.5915 17.0843 12.5915 24.2848C12.5915 26.5635 13.2317 28.8421 14.3293 30.7562L12.5 37.501L19.4512 35.6781C21.372 36.6807 23.4756 37.2275 25.6707 37.2275C32.8963 37.2275 38.75 31.3942 38.75 24.1937C38.6585 20.8213 37.378 17.54 34.9085 15.0791ZM31.9817 28.9333C31.7073 29.6624 30.4268 30.3916 29.7866 30.4827C29.2378 30.5739 28.5061 30.5739 27.7744 30.3916C27.3171 30.2093 26.6768 30.027 25.9451 29.6624C22.6524 28.2952 20.5488 25.014 20.3659 24.7406C20.1829 24.5583 18.9939 23.0088 18.9939 21.3682C18.9939 19.7275 19.8171 18.9984 20.0915 18.6338C20.3659 18.2692 20.7317 18.2692 21.0061 18.2692C21.189 18.2692 21.4634 18.2692 21.6463 18.2692C21.8293 18.2692 22.1037 18.1781 22.378 18.8161C22.6524 19.4541 23.2927 21.0947 23.3841 21.1859C23.4756 21.3682 23.4756 21.5505 23.3841 21.7327C23.2927 21.915 23.2012 22.0973 23.0183 22.2796C22.8354 22.4619 22.6524 22.7354 22.561 22.8265C22.378 23.0088 22.1951 23.1911 22.378 23.4645C22.561 23.8291 23.2012 24.8317 24.2073 25.7432C25.4878 26.8369 26.4939 27.2015 26.8598 27.3838C27.2256 27.5661 27.4085 27.4749 27.5915 27.2926C27.7744 27.1104 28.4146 26.3812 28.5976 26.0166C28.7805 25.652 29.0549 25.7432 29.3293 25.8343C29.6037 25.9255 31.25 26.7458 31.5244 26.9281C31.8902 27.1104 32.0732 27.2015 32.1646 27.2926C32.2561 27.5661 32.2561 28.2041 31.9817 28.9333Z" fill="white"/>
	</symbol>
	<symbol id="icon-messenger" viewBox="0 0 50 50">
		<circle cx="25" cy="25.001" r="25" fill="#0080FF"/>
		<path fill-rule="evenodd" clip-rule="evenodd" d="M15.7554 40.001V34.6581C12.243 32.1116 10 28.2333 10 23.8899C10 16.2192 16.9955 10.001 25.625 10.001C34.255 10.001 41.25 16.2192 41.25 23.8899C41.25 31.56 34.255 37.7788 25.625 37.7788C24.0151 37.7788 22.4612 37.5621 20.9994 37.1607L15.7554 40.001ZM15.53 28.5858L23.9565 20.086L28.0008 24.0244L35.5845 20.086L27.2056 28.5858L23.1988 24.5773L15.53 28.5858Z" fill="white"/>
	</symbol>
	<symbol id="icon-facebook" viewBox="0 0 85 85">
		<path d="M42.5 85C65.9721 85 85 65.9721 85 42.5C85 19.0279 65.9721 0 42.5 0C19.0279 0 0 19.0279 0 42.5C0 65.9721 19.0279 85 42.5 85Z" fill="#3A5A99"/>
		<path d="M63.18 19.26H21.82C21.1411 19.26 20.4899 19.5297 20.0098 20.0098C19.5297 20.4899 19.26 21.1411 19.26 21.82V63.18C19.26 63.859 19.5297 64.5101 20.0098 64.9902C20.4899 65.4703 21.1411 65.74 21.82 65.74H44.09V47.74H38V40.74H44.06V35.55C44.06 29.55 47.72 26.28 53.06 26.28C54.8672 26.2717 56.6734 26.3652 58.47 26.56V32.83H54.81C51.89 32.83 51.33 34.22 51.33 36.25V40.73H58.33L57.42 47.73H51.42V65.73H63.18C63.859 65.73 64.5101 65.4603 64.9902 64.9802C65.4703 64.5001 65.74 63.849 65.74 63.17V21.82C65.74 21.1411 65.4703 20.4899 64.9902 20.0098C64.5101 19.5297 63.859 19.26 63.18 19.26V19.26Z" fill="white"/>
	</symbol>
	<symbol id="icon-instagram" viewBox="0 0 85 85">
		<path d="M42.5 85C65.9721 85 85 65.9721 85 42.5C85 19.0279 65.9721 0 42.5 0C19.0279 0 0 19.0279 0 42.5C0 65.9721 19.0279 85 42.5 85Z" fill="#3A5A99"/>
		<path fill-rule="evenodd" clip-rule="evenodd" d="M42.5 30.28C40.0831 30.28 37.7205 30.9967 35.711 32.3394C33.7014 33.6822 32.1351 35.5907 31.2102 37.8236C30.2853 40.0565 30.0433 42.5136 30.5148 44.884C30.9863 47.2544 32.1502 49.4318 33.8592 51.1408C35.5682 52.8498 37.7456 54.0137 40.116 54.4852C42.4865 54.9567 44.9435 54.7147 47.1764 53.7898C49.4093 52.8649 51.3178 51.2986 52.6606 49.2891C54.0033 47.2795 54.72 44.9169 54.72 42.5C54.72 39.2591 53.4326 36.1508 51.1409 33.8592C48.8492 31.5675 45.741 30.28 42.5 30.28ZM42.5 50.43C40.9316 50.43 39.3984 49.9649 38.0944 49.0936C36.7903 48.2222 35.7739 46.9837 35.1737 45.5347C34.5735 44.0857 34.4164 42.4912 34.7224 40.9529C35.0284 39.4147 35.7836 38.0017 36.8927 36.8926C38.0017 35.7836 39.4147 35.0284 40.953 34.7224C42.4912 34.4164 44.0857 34.5734 45.5347 35.1736C46.9837 35.7738 48.2222 36.7902 49.0936 38.0943C49.965 39.3984 50.43 40.9316 50.43 42.5C50.43 44.6032 49.5946 46.6202 48.1074 48.1074C46.6202 49.5945 44.6032 50.43 42.5 50.43Z" fill="white"/>
		<path d="M58.06 29.8C58.06 31.3795 56.7795 32.66 55.2 32.66C53.6204 32.66 52.34 31.3795 52.34 29.8C52.34 28.2205 53.6204 26.94 55.2 26.94C56.7795 26.94 58.06 28.2205 58.06 29.8Z" fill="white"/>
		<path fill-rule="evenodd" clip-rule="evenodd" d="M42.5 18.71C36.04 18.71 35.23 18.71 32.69 18.85C30.7122 18.9036 28.7578 19.2925 26.91 20C25.3157 20.6073 23.8678 21.545 22.6614 22.7514C21.455 23.9578 20.5174 25.4057 19.91 27C19.2162 28.8501 18.8409 30.8045 18.8 32.78C18.69 35.32 18.66 36.13 18.66 42.59C18.66 49.05 18.66 49.86 18.8 52.4C18.8797 54.3503 19.2853 56.2736 20 58.09C20.6074 59.6843 21.545 61.1322 22.7514 62.3386C23.9578 63.545 25.4057 64.4827 27 65.09C28.8502 65.7838 30.8045 66.1592 32.78 66.2C35.32 66.31 36.13 66.34 42.59 66.34H42.5911C49.0501 66.34 49.8602 66.34 52.4 66.2C54.3756 66.1592 56.3299 65.7838 58.18 65.09C59.7744 64.4827 61.2223 63.545 62.4287 62.3386C63.6351 61.1322 64.5727 59.6843 65.18 58.09C65.8739 56.2399 66.2492 54.2855 66.29 52.31C66.4 49.77 66.43 48.96 66.43 42.5C66.43 36.04 66.43 35.23 66.29 32.69C66.2492 30.7145 65.8739 28.7601 65.18 26.91C64.5727 25.3157 63.6351 23.8678 62.4287 22.6614C61.2223 21.455 59.7744 20.5173 58.18 19.91C56.3299 19.2162 54.3756 18.8408 52.4 18.8C49.86 18.69 49.05 18.66 42.59 18.66L42.5 18.71ZM42.5 23C48.85 23 49.61 23 52.12 23.14C53.6299 23.1532 55.1259 23.4307 56.54 23.96C57.5636 24.3575 58.4933 24.9638 59.2698 25.7403C60.0462 26.5168 60.6525 27.4464 61.05 28.47C61.5794 29.8842 61.8569 31.3801 61.87 32.89C61.99 35.4 62.01 36.16 62.01 42.51C62.01 48.86 62.01 49.62 61.87 52.13C61.8569 53.6399 61.5794 55.1359 61.05 56.55C60.6525 57.5736 60.0462 58.5033 59.2698 59.2797C58.4933 60.0562 57.5636 60.6625 56.54 61.06C55.1259 61.5893 53.6299 61.8669 52.12 61.88C49.61 62 48.86 62.02 42.5 62.02C36.14 62.02 35.39 62.02 32.88 61.88C31.3701 61.8669 29.8742 61.5893 28.46 61.06C27.4447 60.6556 26.5242 60.0452 25.7566 59.2672C24.9889 58.4892 24.3908 57.5607 24 56.54C23.4707 55.1259 23.1932 53.6299 23.18 52.12C23 49.61 23 48.85 23 42.5C23 36.15 23 35.39 23.14 32.88C23.166 31.3677 23.4571 29.8717 24 28.46C24.3978 27.4504 24.999 26.5335 25.7663 25.7662C26.5335 24.999 27.4505 24.3977 28.46 24C29.8742 23.4707 31.3701 23.1932 32.88 23.18C35.39 23 36.15 23 42.5 23Z" fill="white"/>
	</symbol>
	<symbol id="icon-phone" viewBox="0 0 20 20">
		<path fill-rule="evenodd" clip-rule="evenodd" d="M10 0C4.47754 0 0 4.47754 0 10C0 15.5225 4.47754 20 10 20C15.5225 20 20 15.5225 20 10C20 4.47754 15.5225 0 10 0ZM10 1.25C14.8242 1.25 18.75 5.17578 18.75 10C18.75 14.8242 14.8242 18.75 10 18.75C5.17578 18.75 1.25 14.8242 1.25 10C1.25 5.17578 5.17578 1.25 10 1.25ZM15.5188 13.1726L15.575 13.3435C15.7055 13.7366 15.5737 14.2993 15.2808 14.5911L14.48 15.3918C14.3372 15.5347 13.9185 15.6238 13.905 15.6238C11.3721 15.6458 8.93312 14.6509 7.14113 12.8589C5.34426 11.0608 4.34812 8.61332 4.375 6.0718C4.375 6.07055 4.46656 5.66406 4.60938 5.52246L5.41016 4.72168C5.70312 4.42746 6.26586 4.29441 6.66016 4.42625L6.82863 4.48242C7.22168 4.61426 7.6343 5.04883 7.74293 5.44922L8.14582 6.9275C8.25445 7.3291 8.10797 7.90039 7.815 8.19336L7.28031 8.72805C7.80523 10.6714 9.32988 12.1961 11.2732 12.7222L11.8079 12.1875C12.1021 11.8933 12.6734 11.7468 13.0737 11.8555L14.552 12.2595C14.9524 12.3694 15.387 12.7796 15.5188 13.1726Z" fill="#1F2D48"/>
	</symbol>

</svg>
