<svg width="20" height="24" viewBox="0 0 20 24" fill="none" xmlns="http://www.w3.org/2000/svg">
<path d="M10 10C12.7614 10 15 7.76142 15 5C15 2.23858 12.7614 0 10 0C7.23859 0 5 2.23858 5 5C5 7.76142 7.23859 10 10 10Z" fill="#5E97F6"/>
<path d="M0 17.4868V20.4907C2.7392 22.6866 6.21622 24 10 24C13.7838 24 17.2608 22.6866 20 20.4907V17.6491C20 17.2192 19.9445 16.7873 19.7848 16.3881C19.3691 15.3486 18.4922 14.156 14.8824 13.0775C11.7104 12.1298 8.28958 12.1298 5.11765 13.0775C1.33113 14.2088 0.55159 15.4657 0.157181 16.5396C0.0460205 16.8423 0 17.1644 0 17.4868Z" fill="#5E97F6"/>
</svg>
