<svg xmlns="http://www.w3.org/2000/svg">
    <symbol id="icon-logout" viewBox="0 0 16 16" >
        <path d="M9.9999 8.66679C9.63125 8.66679 9.33328 8.96549 9.33328 9.33341V12.0001C9.33328 12.3674 9.03458 12.6668 8.66654 12.6668H6.66656V2.66685C6.66656 2.09751 6.30389 1.58885 5.75861 1.39952L5.56123 1.33348H8.66654C9.03458 1.33348 9.33328 1.6328 9.33328 2.00023V4.00021C9.33328 4.36812 9.63125 4.66683 9.9999 4.66683C10.3685 4.66683 10.6665 4.36812 10.6665 4.00021V2.00023C10.6665 0.897575 9.76919 0.000244141 8.66654 0.000244141H1.49999C1.4746 0.000244141 1.45336 0.0115966 1.4287 0.0148924C1.3966 0.0122069 1.36596 0.000244141 1.33337 0.000244141C0.598021 0.000244141 5.24521e-06 0.598139 5.24521e-06 1.33348V13.3334C5.24521e-06 13.9027 0.362672 14.4114 0.907955 14.6007L4.92 15.9381C5.05598 15.9801 5.19124 16.0001 5.33332 16.0001C6.06867 16.0001 6.66656 15.4021 6.66656 14.6667V14.0001H8.66654C9.76919 14.0001 10.6665 13.1028 10.6665 12.0001V9.33341C10.6665 8.96549 10.3685 8.66679 9.9999 8.66679Z" />
        <path d="M15.8045 6.19539L13.1378 3.52879C12.9472 3.33812 12.6605 3.28074 12.4112 3.38401C12.1626 3.48741 11.9998 3.73069 11.9998 4.0001V6.00008H9.33324C8.9652 6.00008 8.6665 6.29866 8.6665 6.6667C8.6665 7.03473 8.9652 7.33331 9.33324 7.33331H11.9998V9.33329C11.9998 9.6027 12.1626 9.84598 12.4112 9.94938C12.6605 10.0526 12.9472 9.99527 13.1378 9.80472L15.8045 7.138C16.0651 6.87739 16.0651 6.456 15.8045 6.19539Z" />
    </symbol>
    <symbol id="icon-bell" viewBox="0 0 16 16" >
        <path d="M8 15C9.10457 15 10 14.1046 10 13C10 12.8062 9.8313 12.6651 9.63751 12.6629L6.41586 12.6264C6.19581 12.6239 6 12.78 6 13C6 14.1046 6.89543 15 8 15Z" />
        <path d="M3.33337 6C3.33337 3.42267 5.42271 1 8.00004 1C10.5774 1 12.6667 3.42267 12.6667 6V7.64045C12.6667 8.50522 13.0365 9.32871 13.6828 9.90324C14.3764 10.5197 13.9403 11.6667 13.0124 11.6667H2.98769C2.05974 11.6667 1.62368 10.5197 2.31723 9.90324C2.96357 9.32871 3.33337 8.50522 3.33337 7.64045V6Z" />
    </symbol>
    <symbol id="icon-play" viewBox="0 0 12 14" >
        <path d="M0 5.89272V8.10728C0 11.1727 0 12.7054 0.996146 13.2835C1.99229 13.8615 3.32305 13.1011 5.98455 11.5803L5.98456 11.5803L7.9223 10.473C10.62 8.93142 11.9689 8.16065 11.9689 7C11.9689 5.83935 10.62 5.06858 7.9223 3.52703L5.98456 2.41975C3.32305 0.898884 1.99229 0.138453 0.996146 0.716539C0 1.29463 0 2.82732 0 5.89272Z" />
    </symbol>
    <symbol id="icon-pay" viewBox="0 0 16 16">
		<path d="M1.66666 2.66669H14.3333C15.2667 2.66669 16 3.40003 16 4.33337V5.00003C16 5.20003 15.8667 5.33337 15.6667 5.33337H0.333344C0.133344 5.33337 0 5.20003 0 5.00003V4.33337C0 3.40003 0.733344 2.66669 1.66666 2.66669Z" />
		<path fill-rule="evenodd" clip-rule="evenodd" d="M0.333344 6.66669H15.6667C15.8667 6.66669 16 6.80003 16 7.00003V11.6667C16 12.6 15.2667 13.3333 14.3333 13.3333H1.66666C0.733344 13.3333 0 12.6 0 11.6667V7.00003C0 6.80003 0.133344 6.66669 0.333344 6.66669ZM5 9.33337H2.33334C2.13334 9.33337 2 9.46668 2 9.66668C2 9.86668 2.13334 10 2.33334 10.0001H5C5.2 10.0001 5.33334 9.86671 5.33334 9.66671C5.33334 9.46671 5.2 9.33337 5 9.33337ZM2.33334 11.3334H7C7.2 11.3334 7.33334 11.2 7.33334 11C7.33334 10.8 7.2 10.6667 7 10.6667H2.33334C2.13334 10.6667 2 10.8 2 11C2 11.2 2.13334 11.3334 2.33334 11.3334ZM12 11.1334C12.2 11.2667 12.4 11.3334 12.6667 11.3334C13.4 11.3334 14 10.7334 14 10C14 9.26668 13.4 8.66669 12.6667 8.66669C12.4 8.66669 12.2 8.73334 12 8.86668C11.8 8.73334 11.6 8.66669 11.3333 8.66669C10.6 8.66669 10 9.26668 10 10C10 10.7334 10.6 11.3334 11.3333 11.3334C11.6 11.3334 11.8 11.2667 12 11.1334Z" />
	</symbol>
	<symbol id="icon-material" viewBox="0 0 12 14" >
		<path d="M2.26663 0.599976C1.38289 0.599976 0.666626 1.31624 0.666626 2.19998V11.8C0.666639 11.8703 0.680542 11.9398 0.707535 12.0047C0.734529 12.0696 0.774081 12.1285 0.823918 12.1781C1.0121 12.8522 1.53615 13.4 2.26663 13.4H10.8C10.8706 13.401 10.9408 13.3879 11.0064 13.3616C11.072 13.3352 11.1317 13.2961 11.182 13.2465C11.2323 13.1968 11.2723 13.1377 11.2996 13.0725C11.3268 13.0073 11.3409 12.9373 11.3409 12.8666C11.3409 12.796 11.3268 12.726 11.2996 12.6608C11.2723 12.5956 11.2323 12.5364 11.182 12.4868C11.1317 12.4372 11.072 12.3981 11.0064 12.3717C10.9408 12.3454 10.8706 12.3323 10.8 12.3333H2.26663C1.96528 12.3333 1.73329 12.1013 1.73329 11.8C1.73329 11.4986 1.96528 11.2666 2.26663 11.2666H10.2666C10.856 11.2666 11.3333 10.7893 11.3333 10.2V1.66664C11.3333 1.07731 10.856 0.599976 10.2666 0.599976H2.26663ZM4.39996 3.79998H8.13329C8.42769 3.79998 8.66663 4.03891 8.66663 4.33331C8.66663 4.62771 8.42769 4.86664 8.13329 4.86664H4.39996C4.10556 4.86664 3.86663 4.62771 3.86663 4.33331C3.86663 4.03891 4.10556 3.79998 4.39996 3.79998Z" />
	</symbol>
	<symbol id="icon-star" viewBox="0 0 14 13">
		<path d="M6.0826 1.44905C6.43076 0.646166 7.56935 0.646166 7.91751 1.44905L8.93763 3.80154C9.08253 4.13569 9.39765 4.36464 9.76023 4.39919L12.3128 4.64242C13.184 4.72544 13.5358 5.80831 12.8798 6.38753L10.9577 8.08468C10.6847 8.32575 10.5643 8.69619 10.6435 9.0517L11.201 11.5545C11.3912 12.4087 10.4701 13.078 9.7165 12.6331L7.50845 11.3295C7.19481 11.1443 6.8053 11.1443 6.49166 11.3295L4.2836 12.6331C3.53002 13.078 2.60888 12.4087 2.79913 11.5545L3.3566 9.0517C3.43578 8.69619 3.31541 8.32575 3.04239 8.08468L1.12027 6.38753C0.464276 5.80831 0.816121 4.72544 1.68729 4.64242L4.23988 4.39919C4.60246 4.36464 4.91758 4.13569 5.06248 3.80154L6.0826 1.44905Z" />
	</symbol>
	<symbol id="icon-promo" viewBox="0 0 14 14">
		<path d="M7.00004 0.333313C3.32604 0.333313 0.333374 3.32598 0.333374 6.99998C0.333374 10.674 3.32604 13.6666 7.00004 13.6666C10.674 13.6666 13.6667 10.674 13.6667 6.99998C13.6667 3.32598 10.674 0.333313 7.00004 0.333313ZM7.00004 1.66665V6.99998H12.3334C12.3334 9.95339 9.95346 12.3333 7.00004 12.3333C4.04663 12.3333 1.66671 9.95339 1.66671 6.99998C1.66671 4.04656 4.04663 1.66665 7.00004 1.66665Z"/>
	</symbol>
	<symbol id="icon-invite" viewBox="0 0 15 15">
		<path d="M6.99998 0.067688C4.73758 0.067688 3.79998 1.51889 3.79998 3.26769C3.79998 3.85649 4.08123 4.4479 4.08123 4.4479C3.96816 4.51296 3.78221 4.7195 3.82914 5.08644C3.91661 5.7707 4.21326 5.94495 4.40206 5.95935C4.47406 6.59775 5.15998 7.41438 5.39998 7.53331V8.59998C4.86664 10.2 0.599976 9.13331 0.599976 12.8666H6.74581C6.56821 12.3653 6.46664 11.8288 6.46664 11.2666C6.46664 9.37918 7.55868 7.75118 9.14268 6.96665C9.36082 6.66265 9.56056 6.28842 9.59789 5.95935C9.78669 5.94495 10.0833 5.7707 10.1708 5.08644C10.2177 4.71897 10.0318 4.51296 9.91873 4.4479C9.91873 4.4479 10.2 3.91355 10.2 3.26769C10.2 1.97275 9.69171 0.867688 8.59998 0.867688C8.59998 0.867688 8.22078 0.067688 6.99998 0.067688ZM11.2666 7.53331C9.20477 7.53331 7.53331 9.20478 7.53331 11.2666C7.53331 13.3285 9.20477 15 11.2666 15C13.3285 15 15 13.3285 15 11.2666C15 9.20478 13.3285 7.53331 11.2666 7.53331ZM11.2666 9.13331C11.561 9.13331 11.8 9.37171 11.8 9.66665V10.7333H12.8666C13.161 10.7333 13.4 10.9717 13.4 11.2666C13.4 11.5616 13.161 11.8 12.8666 11.8H11.8V12.8666C11.8 13.1616 11.561 13.4 11.2666 13.4C10.9722 13.4 10.7333 13.1616 10.7333 12.8666V11.8H9.66664C9.37224 11.8 9.13331 11.5616 9.13331 11.2666C9.13331 10.9717 9.37224 10.7333 9.66664 10.7333H10.7333V9.66665C10.7333 9.37171 10.9722 9.13331 11.2666 9.13331Z" />
	</symbol>
	<symbol id="icon-settings" viewBox="0 0 14 14">
		<path fill-rule="evenodd" clip-rule="evenodd" d="M2.05024 2.05026C2.47228 1.62822 3.13626 1.62766 3.62435 1.97117L4.1584 2.34702C4.22593 2.39455 4.31476 2.39023 4.38671 2.34971C4.75322 2.1433 5.1466 1.97897 5.56028 1.86326C5.63948 1.84111 5.70507 1.78156 5.71915 1.70053L5.83112 1.05652C5.93333 0.468623 6.40329 0 7 0C7.59671 0 8.06667 0.468623 8.16888 1.05652L8.28085 1.70053C8.29493 1.78156 8.36052 1.84111 8.43972 1.86326C8.8534 1.97897 9.24677 2.1433 9.61328 2.34971C9.68524 2.39023 9.77407 2.39455 9.84161 2.34702L10.3756 1.97117C10.8637 1.62766 11.5277 1.62822 11.9498 2.05026C12.3718 2.4723 12.3724 3.13628 12.0288 3.62437L11.653 4.15841C11.6055 4.22595 11.6098 4.31478 11.6503 4.38674C11.8567 4.75325 12.021 5.14661 12.1367 5.56028C12.1589 5.63949 12.2184 5.70508 12.2995 5.71917L12.9435 5.83114C13.5314 5.93334 14 6.40329 14 7C14 7.59673 13.5314 8.06669 12.9435 8.1689L12.2995 8.28086C12.2184 8.29495 12.1589 8.36054 12.1367 8.43975C12.021 8.85341 11.8567 9.24677 11.6503 9.61327C11.6098 9.68523 11.6055 9.77408 11.653 9.84162L12.0288 10.3756C12.3723 10.8637 12.3718 11.5277 11.9497 11.9498C11.5277 12.3718 10.8637 12.3724 10.3756 12.0288L9.8416 11.653C9.77406 11.6055 9.68521 11.6098 9.61325 11.6503C9.24675 11.8567 8.8534 12.021 8.43975 12.1367C8.36053 12.1589 8.29494 12.2185 8.28085 12.2995L8.16889 12.9435C8.06668 13.5314 7.59672 14 7 14C6.40328 14 5.93332 13.5314 5.83111 12.9435L5.71915 12.2995C5.70506 12.2185 5.63947 12.1589 5.56025 12.1367C5.1466 12.021 4.75324 11.8567 4.38675 11.6503C4.31479 11.6098 4.22594 11.6055 4.15839 11.653L3.62438 12.0288C3.13629 12.3724 2.4723 12.3718 2.05026 11.9498C1.62822 11.5277 1.62766 10.8637 1.97117 10.3756L2.34701 9.84162C2.39454 9.77408 2.39022 9.68524 2.34969 9.61327C2.14329 9.24677 1.97896 8.85341 1.86326 8.43975C1.84111 8.36054 1.78155 8.29495 1.70052 8.28086L1.05654 8.1689C0.468632 8.06669 0 7.59673 0 7C0 6.40329 0.468616 5.93334 1.0565 5.83114L1.70052 5.71917C1.78155 5.70508 1.8411 5.6395 1.86325 5.56029C1.97896 5.14661 2.14329 4.75324 2.34969 4.38673C2.39022 4.31478 2.39453 4.22594 2.347 4.15841L1.97116 3.62437C1.62765 3.13628 1.62821 2.4723 2.05024 2.05026ZM9.66667 7.00001C9.66667 8.47276 8.47276 9.66667 7 9.66667C5.52724 9.66667 4.33333 8.47276 4.33333 7.00001C4.33333 5.52725 5.52724 4.33334 7 4.33334C8.47276 4.33334 9.66667 5.52725 9.66667 7.00001Z"/>
	</symbol>

	<symbol id="icon-telegram" viewBox="0 0 25 25" >
		<path d="M12.5 0C9.18479 0 6.00537 1.31696 3.66117 3.66117C1.31696 6.00537 0 9.18479 0 12.5C0 15.8152 1.31696 18.9946 3.66117 21.3388C6.00537 23.683 9.18479 25 12.5 25C15.8152 25 18.9946 23.683 21.3388 21.3388C23.683 18.9946 25 15.8152 25 12.5C25 9.18479 23.683 6.00537 21.3388 3.66117C18.9946 1.31696 15.8152 0 12.5 0Z" fill="#29B6F6"/>
		<path d="M18.7188 6.875L16.3775 18.8288C16.3775 18.8288 16.2769 19.375 15.5994 19.375C15.2394 19.375 15.0538 19.2038 15.0538 19.2038L9.9825 14.9956L7.50125 13.745L4.31687 12.8981C4.31687 12.8981 3.75 12.7344 3.75 12.2656C3.75 11.875 4.33312 11.6888 4.33312 11.6888L17.6556 6.39625C17.655 6.39563 18.0625 6.24938 18.3594 6.25C18.5419 6.25 18.75 6.32813 18.75 6.5625C18.75 6.71875 18.7188 6.875 18.7188 6.875Z" fill="white"/>
		<path d="M11.875 16.5656L9.73377 18.6744C9.73377 18.6744 9.64064 18.7463 9.51627 18.7494C9.47314 18.7506 9.42689 18.7438 9.37939 18.7225L9.98189 14.9944L11.875 16.5656Z" fill="#B0BEC5"/>
		<path d="M16.1856 8.87249C16.08 8.73499 15.885 8.70999 15.7475 8.81437L7.5 13.75C7.5 13.75 8.81625 17.4325 9.01687 18.07C9.21812 18.7081 9.37937 18.7231 9.37937 18.7231L9.98188 14.995L16.1269 9.30999C16.2644 9.20562 16.29 9.00999 16.1856 8.87249Z" fill="#CFD8DC"/>
	</symbol>
	<symbol id="icon-discord" viewBox="0 0 25 25">
		<path d="M24.125 24.6738C24.125 24.9338 23.8256 25.08 23.6206 24.9206L18.5 20.6244L18.9881 22.0888C19.0556 22.2913 18.905 22.5 18.6912 22.5H4.125C2.39938 22.5 1 21.1006 1 19.375V3.125C1 1.39938 2.39938 0 4.125 0H21C22.7256 0 24.125 1.39938 24.125 3.125V24.6738Z" fill="#8C9EFF"/>
		<path d="M18.2668 7.05937C18.25 7.03375 18.2356 7.01813 18.2112 7C17.9718 6.82375 16.4593 5.75625 14.6943 5.625L14.5256 5.96875C16.2631 6.3875 17.0568 6.99375 17.8881 7.7375C16.4562 7.00625 15.0375 6.25 12.5625 6.25C10.0875 6.25 8.66871 7.00625 7.23746 7.7375C8.06871 6.99375 9.01871 6.31875 10.6 5.96875L10.4312 5.625C8.58308 5.8025 7.14309 6.82875 6.91309 7.00062C6.88934 7.01875 6.87496 7.03375 6.85871 7.05875C6.65058 7.37688 5.06746 9.93812 4.75746 14.6494C4.75308 14.72 4.77746 14.7944 4.82558 14.8469C6.42246 16.5994 8.67558 16.8375 9.23808 16.87C9.32183 16.875 9.39809 16.8369 9.44809 16.7694L9.94434 16.1062C8.96309 15.7687 7.84433 15.1625 6.88183 14.0625C8.03184 14.925 9.76308 15.625 12.5631 15.625C15.3631 15.625 17.0943 14.925 18.2443 14.0625C17.2818 15.1625 16.1631 15.7687 15.1818 16.1062L15.6781 16.7694C15.7281 16.8362 15.8043 16.8744 15.8881 16.87C16.4506 16.8375 18.7037 16.5987 20.3006 14.8469C20.3481 14.7944 20.3731 14.72 20.3687 14.6494C20.0581 9.94187 18.4762 7.38 18.2668 7.05937ZM10.375 13.75C9.68746 13.75 9.12496 13.05 9.12496 12.1875C9.12496 11.325 9.68746 10.625 10.375 10.625C11.0625 10.625 11.625 11.325 11.625 12.1875C11.625 13.05 11.0625 13.75 10.375 13.75ZM14.75 13.75C14.0625 13.75 13.5 13.05 13.5 12.1875C13.5 11.325 14.0625 10.625 14.75 10.625C15.4375 10.625 16 11.325 16 12.1875C16 13.05 15.4375 13.75 14.75 13.75Z" fill="white"/>
		<path opacity="0.07" d="M14.6938 5.625C16.4588 5.75687 17.9713 6.82375 18.2106 7C18.235 7.01812 18.25 7.03375 18.2663 7.05937C18.4756 7.38 20.0575 9.94187 20.3675 14.6494C20.3719 14.72 20.3475 14.7944 20.2994 14.8469C18.7025 16.5994 16.4494 16.8375 15.8869 16.87C15.8819 16.87 15.8775 16.8706 15.8725 16.8706C15.7944 16.8706 15.7238 16.8331 15.6769 16.77L15.1813 16.1062C16.1625 15.7687 17.2813 15.1625 18.2438 14.0625C17.0938 14.925 15.3625 15.625 12.5625 15.625C9.76252 15.625 8.03127 14.925 6.88127 14.0625C7.84377 15.1625 8.96252 15.7687 9.94377 16.1062L9.44752 16.7694C9.40002 16.8325 9.3294 16.87 9.2519 16.87C9.2469 16.87 9.24252 16.87 9.23752 16.8694C8.67502 16.8369 6.4219 16.5981 4.82502 14.8462C4.77752 14.7937 4.75252 14.7194 4.7569 14.6487C5.0669 9.9375 6.65065 7.37625 6.85815 7.05812C6.8744 7.03312 6.88877 7.01812 6.91252 7C7.14252 6.82812 8.5819 5.80187 10.4306 5.62437L10.5994 5.96812C9.01815 6.31812 8.06815 6.99312 7.2369 7.73687C8.66877 7.00625 10.0875 6.25 12.5625 6.25C15.0375 6.25 16.4563 7.00625 17.8875 7.7375C17.0563 6.99375 16.2625 6.3875 14.525 5.96875L14.6938 5.625ZM14.75 13.75C15.4375 13.75 16 13.05 16 12.1875C16 11.325 15.4375 10.625 14.75 10.625C14.0625 10.625 13.5 11.325 13.5 12.1875C13.5 13.05 14.0625 13.75 14.75 13.75ZM10.375 13.75C11.0625 13.75 11.625 13.05 11.625 12.1875C11.625 11.325 11.0625 10.625 10.375 10.625C9.68752 10.625 9.12502 11.325 9.12502 12.1875C9.12502 13.05 9.68752 13.75 10.375 13.75ZM10.6163 5.29312L10.4013 5.31375C8.48502 5.4975 7.00377 6.5425 6.72627 6.75C6.67315 6.78937 6.63377 6.83187 6.59752 6.8875C6.41065 7.17312 4.76252 9.81937 4.44565 14.6287C4.43502 14.7856 4.4894 14.9419 4.5944 15.0569C6.25252 16.8769 8.55377 17.1431 9.22002 17.1819L9.22877 17.1825L9.2519 17.1831C9.42815 17.1831 9.59065 17.1006 9.69815 16.9569L10.1944 16.2937L10.4513 15.9506L10.0456 15.8112C9.86752 15.75 9.69377 15.6825 9.52377 15.6094C10.4269 15.8294 11.4363 15.9381 12.5631 15.9381C13.69 15.9381 14.6994 15.8294 15.6025 15.6094C15.4325 15.6831 15.2588 15.75 15.0806 15.8112L14.675 15.9506L14.9319 16.2937L15.4281 16.9569C15.5356 17.1006 15.6981 17.1831 15.8744 17.1831H15.8831L15.9063 17.1825C16.5719 17.1444 18.8738 16.8775 20.5319 15.0575C20.6369 14.9425 20.6913 14.7862 20.6806 14.6294C20.3644 9.82187 18.7163 7.175 18.5294 6.88937C18.4925 6.83312 18.4519 6.79 18.3975 6.75C18.105 6.53437 16.5531 5.45187 14.7181 5.31437L14.5075 5.29875L14.4144 5.48812L14.2456 5.83187L14.1394 6.04875C13.66 5.9775 13.1388 5.9375 12.5625 5.9375C11.9863 5.9375 11.465 5.9775 10.9869 6.04812L10.8806 5.83125L10.7119 5.4875L10.6163 5.29312ZM14.75 13.4375C14.2419 13.4375 13.8125 12.865 13.8125 12.1875C13.8125 11.51 14.2419 10.9375 14.75 10.9375C15.2581 10.9375 15.6875 11.51 15.6875 12.1875C15.6875 12.865 15.2581 13.4375 14.75 13.4375ZM10.375 13.4375C9.8669 13.4375 9.43752 12.865 9.43752 12.1875C9.43752 11.51 9.8669 10.9375 10.375 10.9375C10.8831 10.9375 11.3125 11.51 11.3125 12.1875C11.3125 12.865 10.8831 13.4375 10.375 13.4375Z" fill="black"/>
		<path opacity="0.05" d="M14.6938 5.62499C16.4588 5.75687 17.9713 6.82374 18.2107 6.99999C18.2351 7.01812 18.2501 7.03374 18.2663 7.05937C18.4757 7.37999 20.0576 9.94187 20.3676 14.6494C20.3719 14.72 20.3476 14.7944 20.2994 14.8469C18.7026 16.5994 16.4494 16.8375 15.8869 16.87C15.8819 16.87 15.8776 16.8706 15.8726 16.8706C15.7944 16.8706 15.7238 16.8331 15.6769 16.77L15.1813 16.1062C16.1626 15.7687 17.2813 15.1625 18.2438 14.0625C17.0938 14.925 15.3626 15.625 12.5626 15.625C9.76256 15.625 8.03131 14.925 6.88131 14.0625C7.84381 15.1625 8.96256 15.7687 9.94381 16.1062L9.44756 16.7694C9.40006 16.8325 9.32943 16.87 9.25193 16.87C9.24693 16.87 9.24256 16.87 9.23756 16.8694C8.67506 16.8369 6.42193 16.5981 4.82506 14.8462C4.77756 14.7937 4.75256 14.7194 4.75693 14.6487C5.06693 9.93749 6.65068 7.37624 6.85818 7.05812C6.87443 7.03312 6.88881 7.01812 6.91256 6.99999C7.14256 6.82812 8.58193 5.80187 10.4307 5.62437L10.5994 5.96812C9.01818 6.31812 8.06818 6.99312 7.23693 7.73687C8.66881 7.00624 10.0876 6.24999 12.5626 6.24999C15.0376 6.24999 16.4563 7.00624 17.8876 7.73749C17.0563 6.99374 16.2626 6.38749 14.5251 5.96874L14.6938 5.62499ZM14.7501 13.75C15.4376 13.75 16.0001 13.05 16.0001 12.1875C16.0001 11.325 15.4376 10.625 14.7501 10.625C14.0626 10.625 13.5001 11.325 13.5001 12.1875C13.5001 13.05 14.0626 13.75 14.7501 13.75ZM10.3751 13.75C11.0626 13.75 11.6251 13.05 11.6251 12.1875C11.6251 11.325 11.0626 10.625 10.3751 10.625C9.68756 10.625 9.12506 11.325 9.12506 12.1875C9.12506 13.05 9.68756 13.75 10.3751 13.75ZM10.8019 4.96124L10.3719 5.00249C8.37256 5.19437 6.82881 6.28312 6.53943 6.49999C6.45693 6.56187 6.39256 6.63062 6.33631 6.71687C6.02381 7.19499 4.44943 9.82062 4.13443 14.6087C4.11881 14.85 4.20193 15.0906 4.36381 15.2681C6.10131 17.175 8.50631 17.4544 9.20256 17.4944L9.22068 17.4956L9.25256 17.4962C9.52818 17.4962 9.78193 17.3681 9.94881 17.145L10.4451 16.4819L10.7001 16.1412C11.2832 16.2137 11.9038 16.25 12.5626 16.25C13.2213 16.25 13.8419 16.2137 14.4257 16.14L14.6807 16.4806L15.1769 17.1437C15.3438 17.3669 15.5976 17.495 15.8732 17.495H15.8913L15.9238 17.4937C16.6194 17.4537 19.0244 17.1744 20.7619 15.2675C20.9238 15.09 21.0076 14.8494 20.9913 14.6081C20.6763 9.82249 19.1019 7.19562 18.7901 6.71749C18.7326 6.62937 18.6663 6.55937 18.5819 6.49749C18.2776 6.27312 16.6613 5.14562 14.7407 5.00187L14.3194 4.97062L14.1332 5.34999L13.9644 5.69374L13.9576 5.70749C13.5282 5.65437 13.0663 5.62499 12.5626 5.62499C12.0588 5.62499 11.5969 5.65437 11.1682 5.70749L11.1613 5.69374L10.9926 5.34999L10.8019 4.96124ZM14.7501 13.125C14.4544 13.125 14.1251 12.74 14.1251 12.1875C14.1251 11.635 14.4544 11.25 14.7501 11.25C15.0457 11.25 15.3751 11.635 15.3751 12.1875C15.3751 12.74 15.0457 13.125 14.7501 13.125ZM10.3751 13.125C10.0794 13.125 9.75006 12.74 9.75006 12.1875C9.75006 11.635 10.0794 11.25 10.3751 11.25C10.6707 11.25 11.0001 11.635 11.0001 12.1875C11.0001 12.74 10.6707 13.125 10.3751 13.125Z" fill="black"/>
	</symbol>
	<symbol id="icon-time" viewBox="0 0 18 18">
		<path d="M9.00002 0.666687C4.41669 0.666687 0.666687 4.41669 0.666687 9.00002C0.666687 13.5834 4.41669 17.3334 9.00002 17.3334C13.5834 17.3334 17.3334 13.5834 17.3334 9.00002C17.3334 4.41669 13.5834 0.666687 9.00002 0.666687ZM9.00002 15.6667C5.32502 15.6667 2.33335 12.675 2.33335 9.00002C2.33335 5.32502 5.32502 2.33335 9.00002 2.33335C12.675 2.33335 15.6667 5.32502 15.6667 9.00002C15.6667 12.675 12.675 15.6667 9.00002 15.6667ZM9.41669 4.83335H8.16669V9.83335L12.5 12.5L13.1667 11.4167L9.41669 9.16669V4.83335Z" />
	</symbol>
	<symbol id="icon-sand-time" viewBox="0 0 10 18" >
		<path d="M0 0.666687V5.66669H0.00833352L0 5.67502L3.33333 9.00002L0 12.3334L0.00833352 12.3417H0V17.3334H10V12.3417H9.99167L10 12.3334L6.66667 9.00002L10 5.67502L9.99167 5.66669H10V0.666687H0ZM8.33333 12.75V15.6667H1.66667V12.75L5 9.41669L8.33333 12.75ZM5 8.58335L1.66667 5.25002V2.33335H8.33333V5.25002L5 8.58335Z"/>
	</symbol>
	<symbol id="icon-sand-time-end" viewBox="0 0 19 19" >
		<path d="M13.3333 2.33332H6.66667V3.30832L5 1.64166V0.666656H15V5.66666H14.9917L15 5.67499L12.0083 8.65832L10.9667 7.61666L13.3333 5.24999V2.33332Z" />
		<path fill-rule="evenodd" clip-rule="evenodd" d="M0.575012 1.92497L1.75001 0.749969L18.25 17.2583L17.075 18.4333L15 16.3583V17.3333H5.00001V12.3416H5.00835L5.00001 12.3333L7.99168 9.34164L0.575012 1.92497ZM6.66668 15.6666H13.3333V14.6916L9.03335 10.3833L6.66668 12.75V15.6666Z"/>
	</symbol>
	<symbol id="icon-arrow-remove" viewBox="0 0 18 12" >
		<path d="M6.50834 7.66669H0.666672V9.33335H6.50834V11.8334L9.83334 8.50002L6.50834 5.16669V7.66669ZM11.4917 6.83335V4.33335H17.3333V2.66669H11.4917V0.166687L8.16667 3.50002L11.4917 6.83335Z"/>
	</symbol>
	<symbol id="icon-clock-add" viewBox="0 0 18 18" >
		<path d="M13.4475 0.508301L17.2867 3.71247L16.22 4.99163L12.3783 1.78913L13.4475 0.508301ZM4.55251 0.508301L5.62084 1.7883L1.78084 4.99163L0.714172 3.71163L4.55251 0.508301ZM9.00001 2.3333C4.85834 2.3333 1.50001 5.69163 1.50001 9.8333C1.50001 13.975 4.85834 17.3333 9.00001 17.3333C13.1417 17.3333 16.5 13.975 16.5 9.8333C16.5 5.69163 13.1417 2.3333 9.00001 2.3333ZM9.00001 15.6666C5.78334 15.6666 3.16667 13.05 3.16667 9.8333C3.16667 6.61663 5.78334 3.99997 9.00001 3.99997C12.2167 3.99997 14.8333 6.61663 14.8333 9.8333C14.8333 13.05 12.2167 15.6666 9.00001 15.6666ZM9.83334 6.49997H8.16667V8.99997H5.66667V10.6666H8.16667V13.1666H9.83334V10.6666H12.3333V8.99997H9.83334V6.49997Z"/>
	</symbol>
	<symbol id="icon-arrow-prev" viewBox="0 0 15 15" >
		<path d="M15 8.4375L3.5625 8.4375L8.8125 13.6875L7.5 15L4.10971e-08 7.5L7.5 -3.13641e-07L8.8125 1.3125L3.5625 6.5625L15 6.5625L15 8.4375Z" />
	</symbol>
	<symbol id="icon-arrow-next" viewBox="0 0 15 15">
		<path d="M-9.89634e-07 8.4375L11.4375 8.4375L6.1875 13.6875L7.5 15L15 7.5L7.5 -3.13641e-07L6.1875 1.3125L11.4375 6.5625L-9.99909e-07 6.5625L-9.89634e-07 8.4375Z"/>
	</symbol>
	<symbol id="icon-arrow" viewBox="0 0 24 24" fill="none">
		<path d="M8 10L12 14L16 10" stroke="#141D30" stroke-opacity="0.7" stroke-width="2"/>
	</symbol>
	<symbol id="icon-attach" viewBox="0 0 24 24">
		<path d="M19.5711 10.5857L11.4393 18.7175C9.87663 20.2802 7.34519 20.2802 5.78248 18.7175C4.21978 17.1547 4.21978 14.6233 5.78248 13.0606L14.6213 4.22176C15.5971 3.24596 17.181 3.24596 18.1569 4.22176C19.1327 5.19757 19.1327 6.78149 18.1569 7.7573L10.7322 15.1819C10.3433 15.5708 9.70693 15.5708 9.31802 15.1819C8.92911 14.793 8.92911 14.1566 9.31802 13.7677L16.0355 7.05019L14.9749 5.98953L8.25736 12.707C7.28155 13.6829 7.28155 15.2668 8.25736 16.2426C9.23316 17.2184 10.8171 17.2184 11.7929 16.2426L19.2175 8.81796C20.7802 7.25525 20.7802 4.72381 19.2175 3.1611C17.6548 1.5984 15.1234 1.5984 13.5607 3.1611L4.72182 11.9999C2.57222 14.1495 2.57222 17.6285 4.72182 19.7781C6.87143 21.9277 10.3504 21.9277 12.5 19.7781L20.6317 11.6464L19.5711 10.5857Z" />
	</symbol>
	<symbol id="icon-download-file" viewBox="0 0 11 13" fill="none" xmlns="http://www.w3.org/2000/svg">
		<path d="M10.087 4.58824H7.22314V0H2.92734V4.58824H0.0634766L5.07524 9.94118L10.087 4.58824ZM0.0634766 11.4706V13H10.087V11.4706H0.0634766Z" fill="white"/>
	</symbol>
	<symbol id="icon-close" viewBox="0 0 10 10">
		<path d="M9.85342 9.14647C10.0487 8.95119 10.0487 8.6346 9.85342 8.43936L6.41406 4.99991L9.85346 1.5605C10.0488 1.36522 10.0488 1.04863 9.85346 0.853395L9.14654 0.146426C8.95121 -0.0488086 8.63471 -0.0488086 8.43939 0.146426L4.99998 3.58583L1.56057 0.146426C1.36525 -0.0488086 1.04875 -0.0488086 0.853418 0.146426L0.146496 0.853395C-0.0488321 1.04868 -0.0488321 1.36527 0.146496 1.5605L3.5859 4.99991L0.146496 8.43936C-0.0488321 8.63465 -0.0488321 8.95124 0.146496 9.14647L0.853418 9.85344C1.04875 10.0487 1.36525 10.0487 1.56057 9.85344L4.99998 6.41404L8.43939 9.8534C8.63471 10.0486 8.95121 10.0486 9.14654 9.8534L9.85342 9.14647Z" />
	</symbol>
	<symbol id="icon-notice" viewBox="0 0 35 36">
		<path d="M5.05819 22.0632C4.97709 23.0043 5.39195 23.2861 6.0418 23.7332C6.68437 24.1752 10.599 20.8066 11.879 20.2941C13.1589 19.7817 25.1743 17.2838 24.6534 15.0034C24.1325 12.7229 20.5017 12.386 17.7047 12.8515C14.9078 13.317 9.55513 15.7322 7.99134 17.0358C6.42755 18.3383 5.05819 22.0632 5.05819 22.0632V22.0632ZM14.023 23.5913C14.023 23.5913 10.3245 24.7703 10.3245 27.8327C10.3245 30.8951 11.225 32.6223 11.6513 33.4603C12.0786 34.2974 13.4064 35.1099 15.2436 34.329C17.3772 33.4215 14.7331 28.2002 21.4821 30.597C24.5744 31.6944 27.782 33.1776 30.9013 32.1568C33.8604 31.188 35 27.5336 35 25.492C35 21.3129 31.8807 22.4296 30.841 23.4504C29.8012 24.4712 21.4832 26.5128 20.4434 26.5128C19.4037 26.5128 14.023 23.5913 14.023 23.5913Z" fill="#D2A077"/>
		<path d="M18.6883 28.7464C18.6883 28.7464 18.5636 27.403 17.2587 27.2469C16.1867 27.1193 14.4971 27.4704 13.6195 29.1925C12.742 30.9156 11.1823 30.6277 11.2478 32.063C11.3123 33.4982 11.7677 34.6149 12.7097 34.9018C13.6528 35.1896 14.9847 34.6793 15.1469 33.1481C15.3091 31.6169 15.5046 30.2133 16.5111 29.6069C17.5196 29.0016 18.6883 28.7464 18.6883 28.7464Z" fill="#E2C196"/>
		<path d="M17.3242 26.5125C17.3242 26.5125 16.2844 25.4917 14.2049 25.4917C12.1254 25.4917 7.27599 27.6691 8.74621 31.9993C9.78596 35.0616 12.743 33.6264 13.1652 30.5957C13.5883 27.5608 17.3242 26.5125 17.3242 26.5125Z" fill="#D2A077"/>
		<path d="M16.2844 26.5125C16.2844 26.5125 15.2447 25.4917 13.1652 25.4917C11.0857 25.4917 8.08597 27.0535 7.9664 31.6165C7.86866 35.3485 12.1576 33.658 12.1254 30.5957C12.0932 27.5333 16.2844 26.5125 16.2844 26.5125Z" fill="#E2C196"/>
		<path d="M3.80737 27.5334C3.80737 30.899 4.28254 32.9294 6.3319 32.5833C9.73085 32.0096 8.44052 27.8734 11.4153 26.7097C13.5748 25.8655 16.719 26.0666 19.7541 27.8356C21.7535 29.0013 20.4434 24.4711 18.3639 23.4503C16.2844 22.4295 10.0459 23.4503 9.00615 23.4503C7.96639 23.4503 3.80737 27.5334 3.80737 27.5334Z" fill="#D2A077"/>
		<path d="M3.64309 27.7114C1.98885 30.4319 2.99533 33.2441 5.88688 32.6378C8.68486 32.0519 7.28327 28.4832 10.0459 26.513C11.5941 25.4085 14.9307 25.038 17.0102 26.0588C19.0897 27.0796 19.4037 24.4714 17.3242 23.4506C15.2447 22.4299 8.44468 23.4251 7.407 23.4884C5.42211 23.6099 3.64309 27.7114 3.64309 27.7114Z" fill="#E2C196"/>
		<path d="M8.40099 29.6916C7.695 30.4857 6.46705 30.5684 5.65708 29.8753L5.45329 29.7007C4.64332 29.0076 4.56014 27.8031 5.26613 27.0079L28.6845 0.654076C29.3905 -0.140101 30.6185 -0.222785 31.4284 0.470333L31.6312 0.644889C32.4412 1.33801 32.5243 2.54356 31.8194 3.33774L8.40099 29.6916Z" fill="#3B88C3"/>
		<path d="M9.51562 28.4381C7.0618 31.1994 0.872143 36.6136 0.0881685 35.943C-0.694767 35.2723 3.92798 28.5167 6.3818 25.7544C8.83562 22.9922 8.10883 25.2012 8.97391 25.9433C9.83899 26.6844 11.9694 25.6779 9.51562 28.4381V28.4381Z" fill="#3B88C3"/>
		<path d="M5.54584 25.5184C5.54584 26.5392 8.06308 27.4732 9.10284 26.4524C10.1426 25.4316 12.5767 24.1781 15.777 25.4919C23.2674 28.5644 20.4434 24.4711 17.3242 23.4503C14.2049 22.4295 9.00614 23.4503 7.96639 23.4503C6.92663 23.4503 5.54584 25.5184 5.54584 25.5184V25.5184Z" fill="#D2A077"/>
		<path d="M5.04989 22.4735C4.67765 21.3374 7.32487 15.0432 8.52371 14.0683C10.0334 12.8413 15.8737 10.9417 17.9532 10.9417C20.0327 10.9417 35 18.3465 35 23.4504C35 28.5544 32.9205 29.1924 29.9312 29.9896C27.5408 30.6276 22.5334 30.2367 20.3457 28.2349C18.4284 26.4812 17.0965 25.2685 15.2447 24.4712C11.8114 22.9931 9.52291 24.9041 8.48315 25.9249C6.40365 27.9664 2.48585 25.7625 5.7538 22.2704C8.09221 19.7705 10.152 18.9916 12.1254 18.3465C18.3639 16.3049 22.523 16.3049 20.4434 14.2633C19.7083 13.5416 19.308 14.6165 18.2849 14.7992C16.2262 15.1667 14.5876 15.4137 11.8748 16.3018C10.937 16.6081 6.49722 19.3877 5.04989 22.4735Z" fill="#F3D2A2"/>
		<path d="M12.3292 16.5856C13.4355 16.1895 18.2579 15.3279 20.7668 14.4746C22.7933 13.7845 24.5713 15.1238 20.7252 16.5447C17.0133 17.9157 13.1568 17.8034 10.3443 18.8997C9.28064 19.3141 8.35837 18.0065 12.3292 16.5856V16.5856Z" fill="#D2A077"/>
		<path d="M21.9896 8.16211C21.9896 8.16211 15.8259 15.0984 13.2078 18.024C15.5514 17.0787 17.6486 17.2584 19.6522 16.1008C21.6558 14.9443 22.5697 13.7101 25.61 10.2874C26.7392 9.01753 21.9896 8.16211 21.9896 8.16211V8.16211Z" fill="#3B88C3"/>
	</symbol>

	<symbol id="icon-notice-add" viewBox="0 0 27 36">
		<path d="M26.9992 20.145C26.9992 20.145 27.0932 17.783 25.209 17.077C23.5426 16.452 22.9009 17.699 22.9009 17.699C22.9009 17.699 22.9599 15.786 20.9607 15.077C19.0764 14.41 18.2118 16.036 18.2118 16.036C18.2118 16.036 17.9049 14.164 15.9207 13.619C14.2504 13.159 13.0049 14.785 13.0049 14.785V2.576C13.0049 1.618 12.4631 0.00100045 10.4639 4.51329e-07C8.46475 -0.000999549 8.00694 1.66 8.00694 2.576V23.076C8.00694 24.076 7.00734 24.076 7.00734 23.076V20.41C7.00734 16.618 4.97117 14.268 4.25846 13.618C3.54575 12.968 2.59214 12.638 1.43961 12.884C-0.515601 13.3 -0.0887738 14.804 0.466001 16.081C1.80146 19.159 2.71809 23.545 2.99797 25.619C3.78765 31.477 8.80361 35.994 14.8761 36C21.4995 36.004 26.9942 30.702 26.9992 24.076V20.145Z" fill="#F3D2A2"/>
	</symbol>
	<symbol id="icon-notice-transfer" viewBox="0 0 25 32">
		<path d="M17.3492 18.6179L15.7865 12.5024L12.2026 4.64327C11.7467 3.48704 12.3324 2.18639 13.5101 1.73977C14.6869 1.28869 16.0126 1.86725 16.4684 3.02348L22.1008 17.081L17.3492 18.6179Z" fill="#D2A077"/>
		<path d="M24.9303 16.4C24.4872 14.0991 23.1252 10.585 23.1252 10.585L17.8705 1.2344C17.3021 0.127197 15.9255 -0.316752 14.7987 0.240413C13.6709 0.798469 13.2169 2.14904 13.7862 3.25624L18.626 11.767C18.6378 11.7867 19.909 16.6621 19.909 16.6621C18.9301 15.7751 17.5418 14.5591 16.2633 13.4368C13.4503 10.9656 11.7813 10.0394 11.7813 10.0394C11.1366 9.64447 10.7108 9.5883 9.84544 9.98679L4.51357 12.2761C4.37101 12.3456 4.25024 12.4437 4.1549 12.5694L2.05466 15.3204C1.2438 16.2716 1.37183 17.6873 2.34068 18.4824C3.30863 19.2785 4.74965 19.151 5.56232 18.2025C5.60591 18.1508 7.17859 15.9204 7.32024 15.8491C8.26186 15.3739 10.0125 14.5591 10.778 14.5832C11.5925 14.609 16.4812 19.8936 16.4812 19.8936C16.6683 20.1245 16.6901 20.4446 16.5357 20.6977L13.8888 25.3583C13.8171 25.4751 13.7136 25.5687 13.5892 25.6284L11.1612 26.9656C11.0213 27.0325 10.8633 27.0539 10.7108 27.0253L5.92553 24.9999C5.68763 24.8992 5.48968 24.7147 5.38799 24.4802C4.67338 22.831 4.57259 21.254 4.57168 21.2362C4.51266 19.997 3.44211 19.0405 2.17996 19.0984C0.920544 19.1484 -0.0564817 20.2065 0.00253941 21.4457C0.0143436 21.6801 0.321253 26.4735 4.29473 29.7291C6.5902 31.6084 9.42866 32.3358 13.0562 31.8571C17.244 31.3053 19.8382 30.7579 23.5038 23.3365C24.5181 21.2816 25.2318 17.9663 24.9303 16.4Z" fill="#F3D2A2"/>
	</symbol>
	<symbol id="icon-flane" viewBox="0 0 12 14">
		<path d="M11.2201 8.19681C11.0597 6.10887 10.0876 4.80044 9.22998 3.64582C8.43586 2.5769 7.75 1.65383 7.75 0.292166C7.75 0.182791 7.68875 0.0828225 7.59163 0.0327014C7.4942 -0.0177205 7.37714 -0.00946268 7.28857 0.0549045C6.00057 0.976553 4.92591 2.52992 4.55051 4.01206C4.28989 5.04394 4.25541 6.20397 4.25057 6.97011C3.06112 6.71606 2.79168 4.93686 2.78883 4.91747C2.77543 4.82519 2.71905 4.74488 2.63702 4.70102C2.55414 4.65773 2.45671 4.65459 2.37269 4.69618C2.31032 4.72637 0.841711 5.47258 0.756262 8.45198C0.750273 8.5511 0.75 8.65052 0.75 8.74992C0.75 11.6444 3.10525 13.9996 6 13.9996C6.00399 13.9998 6.00826 14.0004 6.01168 13.9996C6.01282 13.9996 6.01395 13.9996 6.01537 13.9996C8.903 13.9913 11.25 11.6393 11.25 8.74992C11.25 8.60437 11.2201 8.19681 11.2201 8.19681ZM6 13.4163C5.03498 13.4163 4.25 12.5801 4.25 11.5522C4.25 11.5172 4.24973 11.4818 4.25227 11.4385C4.26395 11.0051 4.34628 10.7092 4.43657 10.5123C4.60577 10.8758 4.90825 11.2098 5.39959 11.2098C5.5608 11.2098 5.69126 11.0794 5.69126 10.9182C5.69126 10.503 5.69982 10.0239 5.80321 9.59153C5.89522 9.20817 6.11509 8.80031 6.39367 8.47336C6.51756 8.89774 6.75912 9.2412 6.99496 9.57644C7.33249 10.056 7.68139 10.5519 7.74264 11.3975C7.74634 11.4477 7.75006 11.4981 7.75006 11.5522C7.75 12.58 6.96502 13.4163 6 13.4163Z" fill="#F79A38"/>
	</symbol>
	<symbol id="icon-pay-feature" viewBox="0 0 50 50">
		<path d="M44.9212 38.5728C44.9174 38.563 44.9135 38.5533 44.9094 38.5437C44.0105 36.4405 41.9025 35.6632 39.4078 36.5152L32.6043 38.3967C32.2109 37.2055 31.2298 36.1918 29.8425 35.677C29.8339 35.6738 29.8253 35.6707 29.8166 35.6678L22.338 33.1295C21.7155 32.3249 19.7657 30.2661 16.115 30.2661C13.5638 30.2661 11.3068 32.0163 10.0156 33.924H0.976562C0.437207 33.924 0 34.3612 0 34.9006V47.2128C0 47.7521 0.437207 48.1894 0.976562 48.1894H6.78291C7.32227 48.1894 7.75947 47.7521 7.75947 47.2128V46.3696H10.4824C11.0218 46.3696 11.459 45.9324 11.459 45.3931V45.112C13.0463 45.2505 13.5684 45.5516 15.0262 46.3922C16.1473 47.0387 17.8417 48.0157 20.8931 49.3877C20.9072 49.394 20.9216 49.4001 20.9359 49.4058C21.5216 49.6361 22.6664 49.998 24.0778 49.998C25.0603 49.998 26.1721 49.8226 27.3133 49.3053L42.3515 43.9209C42.3782 43.9113 42.4046 43.9006 42.4304 43.8887C43.8676 43.2274 46.0093 41.3639 44.9212 38.5728ZM5.80635 46.2361H1.95312V35.8771H5.80635V46.2361ZM9.50586 44.4164H7.75947V35.8771H9.50586V44.4164ZM41.65 42.0974L26.6186 47.4793C26.6054 47.484 26.5875 47.491 26.5745 47.4963C26.5613 47.5017 26.5481 47.5073 26.5352 47.5133C24.4417 48.4754 22.4518 47.8994 21.6719 47.5962C18.7244 46.2699 17.1513 45.3628 16.0019 44.7C14.4038 43.7785 13.6338 43.3344 11.459 43.1548V35.2894C12.3847 33.7722 14.1798 32.2191 16.1151 32.2191C19.4341 32.2191 20.8404 34.3778 20.8957 34.4649C21.0149 34.6589 21.1982 34.8051 21.4138 34.8782L29.175 37.5124C30.4146 37.9776 31.0696 39.0392 30.7686 40.0978C30.6296 40.5866 30.3085 40.9921 29.8645 41.2395C29.4244 41.4847 28.9156 41.5453 28.4307 41.4111L19.6813 38.6385C19.1669 38.4755 18.6183 38.7603 18.4554 39.2744C18.2924 39.7886 18.5771 40.3374 19.0913 40.5004L27.8559 43.2778C27.8651 43.2808 27.8744 43.2836 27.8838 43.2862C28.2337 43.3857 28.5899 43.435 28.944 43.435C29.5923 43.435 30.2334 43.2698 30.8152 42.9456C31.7149 42.4443 32.3655 41.6227 32.6472 40.6319C32.6696 40.5528 32.6896 40.4737 32.7068 40.3946L40.0392 38.3634C41.0981 38.0017 42.4883 37.8713 43.1072 39.2968C43.7479 40.9703 42.0828 41.8909 41.65 42.0974Z" fill="#644BEC"/>
		<path d="M49.0224 3.30935H43.216C42.6767 3.30935 42.2395 3.74656 42.2395 4.28591V5.12908H39.5165C38.9772 5.12908 38.54 5.56628 38.54 6.10564V6.38669C36.9527 6.24812 36.4306 5.94714 34.9729 5.10652C33.8518 4.46003 32.1573 3.48298 29.1059 2.11101C29.0917 2.10457 29.0775 2.09861 29.0629 2.09294C28.0697 1.70212 25.4664 0.933179 22.6861 2.19324L18.7564 3.60027L15.444 0.287964C15.0626 -0.0933838 14.4443 -0.0933838 14.0629 0.287964L3.18811 11.1627C2.83635 11.5145 2.76887 12.1246 3.18811 12.5438L21.7708 31.1265C22.0682 31.424 22.7645 31.5139 23.152 31.1265L33.0802 21.1984C33.3383 21.2207 33.6062 21.2327 33.8838 21.2327C36.4352 21.2327 38.692 19.4825 39.9831 17.5749H49.0224C49.5617 17.5749 49.999 17.1377 49.999 16.5983V4.28591C49.999 3.74656 49.5617 3.30935 49.0224 3.30935ZM14.7533 2.35955L16.9791 4.58533C16.3175 4.99451 15.5526 5.21345 14.7533 5.21345C13.954 5.21345 13.1892 4.9946 12.5276 4.58533L14.7533 2.35955ZM7.48557 14.0791L5.25979 11.8532L7.48557 9.62742C7.89475 10.289 8.1137 11.054 8.1137 11.8532C8.1137 12.6524 7.89485 13.4174 7.48557 14.0791ZM22.4615 29.0549L20.2361 26.8295C21.5948 25.991 23.328 25.991 24.6867 26.8295L22.4615 29.0549ZM26.0938 25.4226C23.9358 23.8572 20.9871 23.8572 18.8291 25.4226L8.89251 15.4859C9.6551 14.4371 10.0668 13.1772 10.0668 11.8532C10.0668 10.5291 9.6552 9.26931 8.89251 8.22048L11.1207 5.99236C12.1696 6.75496 13.4293 7.16668 14.7534 7.16668C16.0776 7.16668 17.3373 6.75496 18.3862 5.99236L20.4984 8.10457C20.0426 8.17185 19.5982 8.32205 19.1837 8.553C18.4837 8.94304 17.9345 9.52712 17.5925 10.2338C16.4909 10.4378 15.4711 10.9711 14.6711 11.771C12.5007 13.9415 12.5007 17.473 14.6712 19.6435C15.7564 20.7287 17.1819 21.2714 18.6074 21.2714C20.0329 21.2714 21.4585 20.7288 22.5438 19.6435C23.2498 18.9375 23.7445 18.0697 23.9922 17.124L27.2895 18.243C26.9183 19.9626 27.2985 21.7716 28.324 23.1925L26.0938 25.4226ZM20.1565 15.8218C20.1651 15.8249 20.1737 15.828 20.1824 15.8309L22.1351 16.4937C21.9876 17.1593 21.6539 17.7712 21.1627 18.2625C19.7537 19.6713 17.4612 19.6715 16.0524 18.2625C14.6434 16.8536 14.6434 14.5611 16.0524 13.1521C16.3922 12.8121 16.7933 12.5464 17.2303 12.3662C17.4106 13.8664 18.4907 15.2036 20.1565 15.8218ZM29.7311 21.7852C29.3541 21.171 29.1408 20.4699 29.1072 19.7544C29.5749 20.0926 30.1466 20.4239 30.8294 20.6869L29.7311 21.7852ZM38.5399 16.209C37.6143 17.7263 35.8192 19.2794 33.8838 19.2794C33.5217 19.2794 33.1824 19.2536 32.8651 19.2077C32.8638 19.2075 32.8625 19.2073 32.8613 19.2071C30.7523 18.9008 29.6178 17.7021 29.2439 17.2275C29.224 17.1982 29.1391 17.0872 29.1265 17.0687C29.0127 16.8654 28.8262 16.7019 28.5883 16.6212L20.8239 13.9859C19.5848 13.5209 18.9298 12.4598 19.23 11.4016C19.2302 11.401 19.2304 11.4003 19.2306 11.3996C19.2309 11.3988 19.2311 11.3979 19.2313 11.3971C19.3708 10.9098 19.6913 10.5056 20.1343 10.2589C20.5743 10.0136 21.083 9.95281 21.5682 10.0873L30.3175 12.8598C30.8318 13.023 31.3806 12.7381 31.5435 12.2239C31.7064 11.7097 31.4217 11.1609 30.9075 10.9979L23.949 8.79285L23.8883 8.7321C23.8877 8.73152 23.8871 8.73083 23.8865 8.73025L20.2839 5.12771L23.3804 4.01892C23.3908 4.01511 23.4037 4.01033 23.4141 4.00613C23.4167 4.00505 23.4218 4.0031 23.4243 4.00203C23.4376 3.99666 23.4507 3.99099 23.4637 3.98503C25.5571 3.02292 27.5469 3.5988 28.3269 3.90212C31.2744 5.22839 32.8477 6.13552 33.9971 6.79832C35.5951 7.7199 36.3652 8.16394 38.5399 8.34353V16.209ZM42.2395 15.6216H40.4931V7.0822H42.2395V15.6216ZM48.0458 15.6216H44.1926V5.26248H48.0458V15.6216Z" fill="#644BEC"/>
	</symbol>
	<symbol id="icon-education" viewBox="0 0 50 50">
		<path d="M49.1671 2.1817e-08C49.1672 2.1817e-08 49.167 2.1817e-08 49.1671 2.1817e-08H0.833334C0.373229 -0.000104145 0.000104376 0.372812 2.09446e-07 0.832917C2.09446e-07 0.832812 2.09446e-07 0.833021 2.09446e-07 0.832917V17.5H1.66667V1.66667H48.3333V20H19.1667V21.6667H49.1667C49.6268 21.6668 49.9999 21.2939 50 20.8337C50 20.8339 50 20.8336 50 20.8337V0.833333C50.0001 0.373229 49.6272 0.000104188 49.1671 2.1817e-08Z" fill="#644BEC"/>
		<path d="M44.1667 4.16667H27.5V5.83333H44.1667V4.16667Z" fill="#644BEC"/>
		<path d="M46.6667 9.16667H30V10.8333H46.6667V9.16667Z" fill="#644BEC"/>
		<path d="M43.3333 14.1667H26.6667V15.8333H43.3333V14.1667Z" fill="#644BEC"/>
		<path d="M26.6002 7.18479C26.0297 5.81344 24.4555 5.16427 23.0843 5.73479C23.0608 5.74458 23.0375 5.75458 23.0144 5.765L16.2573 9.27021C16.5238 8.71792 16.6636 8.11313 16.6667 7.5C16.6667 5.19885 14.8011 3.33333 12.5 3.33333C10.1989 3.33333 8.33333 5.19885 8.33333 7.5C8.33646 8.40448 8.63677 9.28292 9.18802 10H9.15333C6.78792 10.0158 4.67635 11.4864 3.84125 13.6996L1.61667 21.3672C1.08708 22.7428 1.77292 24.2874 3.14865 24.817C3.77594 25.0584 4.47125 25.0544 5.09573 24.8055C5.81323 24.5165 6.37156 23.9327 6.62854 23.2031L7.5 20.4297V32.4904C6.78292 31.9393 5.90448 31.639 5 31.6357C2.70229 31.6323 0.836771 33.4922 0.833333 35.79C0.831667 36.9153 1.28583 37.9932 2.0924 38.778C0.812396 39.432 0.00500002 40.7461 2.1817e-08 42.1834V49.1667C-0.000104145 49.6268 0.372813 49.9999 0.832917 50C0.832812 50 0.833021 50 0.832917 50H9.16667C9.62677 50.0001 9.9999 49.6272 10 49.1671C10 49.1672 10 49.167 10 49.1671V42.1834C9.99594 41.0023 9.44719 39.8892 8.51292 39.1667H14.8205C13.8861 39.8892 13.3374 41.0023 13.3334 42.1834V49.1667C13.3333 49.6268 13.7063 49.9999 14.1664 50C14.1663 50 14.1665 50 14.1664 50H22.5001C22.9602 50.0001 23.3333 49.6272 23.3334 49.1671C23.3334 49.1672 23.3334 49.167 23.3334 49.1671V42.1834C23.3284 40.7461 22.521 39.432 21.241 38.778C22.8864 37.1721 22.9183 34.5364 21.3124 32.891C20.3234 31.8778 18.8873 31.4367 17.5001 31.72V14.6728L25.1502 10.7006C26.5215 10.1302 27.1706 8.55604 26.6002 7.18479ZM12.5 5C13.8807 5 15 6.11927 15 7.5C15 8.88073 13.8807 10 12.5 10C11.1199 9.99854 10.0015 8.8801 10 7.5C10 6.11927 11.1193 5 12.5 5ZM5 33.3024C6.38073 33.3024 7.5 34.4217 7.5 35.8024C7.5 37.1831 6.38073 38.3024 5 38.3024C3.61927 38.3024 2.5 37.1831 2.5 35.8024C2.50146 34.4223 3.6199 33.304 5 33.3024ZM8.33333 48.3333H1.66667V42.1834C1.66833 40.9781 2.6451 40.0015 3.85052 40H6.14948C7.35479 40.0015 8.33167 40.9781 8.33333 42.1834V48.3333ZM21.6667 42.1834V48.3333H15V42.1834C15.0017 40.9781 15.9784 40.0015 17.1839 40H19.4828C20.6882 40.0015 21.665 40.9781 21.6667 42.1834ZM18.3333 33.3024C19.7134 33.3039 20.8319 34.4223 20.8333 35.8024C20.8333 37.1831 19.7141 38.3024 18.3333 38.3024C16.9526 38.3024 15.8333 37.1831 15.8333 35.8024C15.8333 34.4217 16.9526 33.3024 18.3333 33.3024ZM25.0753 8.575C24.9638 8.86125 24.7347 9.08594 24.4463 9.19188L16.283 13.4269C16.0068 13.5702 15.8333 13.8555 15.8333 14.1667V32.4904C14.2724 33.6446 13.7317 35.7334 14.5367 37.5H13.3333V23.3333H11.6667V37.5H8.79667C9.03375 36.976 9.15865 36.4083 9.16354 35.8333H9.16667V15C9.16656 14.5397 8.79333 14.1667 8.33313 14.1668C7.96927 14.1669 7.6475 14.403 7.53833 14.7502L5.05 22.6684C4.86146 23.1884 4.28698 23.4572 3.76698 23.2685C3.73052 23.2553 3.69479 23.24 3.66 23.2226C3.17927 22.9742 2.97521 22.3942 3.19458 21.8994L5.41906 14.2318C6.01896 12.6911 7.4999 11.6739 9.15323 11.6667H15.0538C15.1873 11.6669 15.319 11.6347 15.4375 11.5731L23.72 7.27385C24.2169 7.06656 24.7896 7.27865 25.0315 7.75969C25.1597 8.01323 25.1756 8.30906 25.0753 8.575Z" fill="#644BEC"/>
		<path d="M34.5743 38.7778C36.2225 37.172 36.2569 34.534 34.651 32.8857C33.0452 31.2375 30.4072 31.2031 28.759 32.809C27.1107 34.4148 27.0764 37.0528 28.6822 38.701C28.7075 38.727 28.7331 38.7526 28.7591 38.7778C27.4792 39.4318 26.6717 40.7459 26.6667 42.1832V49.1664C26.6666 49.6266 27.0395 49.9997 27.4996 49.9998C27.4995 49.9998 27.4997 49.9998 27.4996 49.9998H35.8333C36.2934 49.9999 36.6666 49.627 36.6667 49.1669C36.6667 49.167 36.6667 49.1668 36.6667 49.1669V42.1832C36.6617 40.7459 35.8543 39.4318 34.5743 38.7778ZM31.6667 33.3022C33.0474 33.3022 34.1667 34.4215 34.1667 35.8022C34.1667 37.1829 33.0474 38.3022 31.6667 38.3022C30.2859 38.3022 29.1667 37.1829 29.1667 35.8022C29.1681 34.4221 30.2866 33.3038 31.6667 33.3022ZM35 48.3331H28.3333V42.1832C28.335 40.9779 29.3118 40.0013 30.5172 39.9998H32.8161C34.0215 40.0013 34.9983 40.9779 35 42.1832V48.3331Z" fill="#644BEC"/>
		<path d="M47.9076 38.7778C49.5558 37.172 49.5902 34.534 47.9844 32.8857C46.3785 31.2375 43.7405 31.2031 42.0923 32.809C40.4441 34.4148 40.4097 37.0528 42.0155 38.701C42.0408 38.727 42.0665 38.7526 42.0924 38.7778C40.8125 39.4318 40.005 40.7459 40 42.1832V49.1664C39.9999 49.6266 40.3728 49.9997 40.8329 49.9998C40.8328 49.9998 40.833 49.9998 40.8329 49.9998H49.1667C49.6268 49.9999 49.9999 49.627 50 49.1669C50 49.167 50 49.1668 50 49.1669V42.1832C49.995 40.7459 49.1876 39.4318 47.9076 38.7778ZM45 33.3022C46.3807 33.3022 47.5 34.4215 47.5 35.8022C47.5 37.1829 46.3807 38.3022 45 38.3022C43.6193 38.3022 42.5 37.1829 42.5 35.8022C42.5015 34.4221 43.6199 33.3038 45 33.3022ZM48.3333 48.3331H41.6667V42.1832C41.6683 40.9779 42.6451 40.0013 43.8505 39.9998H46.1495C47.3548 40.0013 48.3317 40.9779 48.3333 42.1832V48.3331Z" fill="#644BEC"/>
	</symbol>
	<symbol id="icon-notice-balance" viewBox="0 0 50 50">
		<path d="M42.3913 0H7.60872C3.41301 0 0 3.41301 0 7.60872V31.5218C0 35.7174 3.41301 39.1304 7.60872 39.1304H31.0718L41.6218 49.6826C41.8305 49.8891 42.1088 50 42.3914 50C42.5305 50 42.6718 49.9718 42.8066 49.9174C43.2131 49.7499 43.4784 49.3521 43.4784 48.913V39.0543C47.161 38.5239 50.0001 35.3478 50.0001 31.5217V7.60872C50 3.41301 46.5869 0 42.3913 0ZM47.826 31.5217C47.826 34.5195 45.3869 36.9564 42.3913 36.9564C41.7913 36.9564 41.3043 37.4434 41.3043 38.0434V46.289L32.2912 37.2739C32.0869 37.0717 31.8108 36.9564 31.5217 36.9564H7.60872C4.61311 36.9564 2.17398 34.5194 2.17398 31.5217V7.60872C2.17398 4.61087 4.61311 2.17398 7.60872 2.17398H42.3913C45.3869 2.17398 47.826 4.61097 47.826 7.60872V31.5217Z" fill="#644BEC"/>
		<path d="M24.9991 26.0869C23.2013 26.0869 21.7383 27.5499 21.7383 29.3478C21.7383 31.1456 23.2013 32.6086 24.9991 32.6086C26.797 32.6086 28.26 31.1456 28.26 29.3478C28.26 27.5499 26.797 26.0869 24.9991 26.0869ZM24.9991 30.4348C24.3991 30.4348 23.9122 29.9456 23.9122 29.3478C23.9122 28.7499 24.3991 28.2608 24.9991 28.2608C25.5991 28.2608 26.0861 28.7499 26.0861 29.3478C26.0861 29.9456 25.5991 30.4348 24.9991 30.4348Z" fill="#644BEC"/>
		<path d="M28.4733 7.56107C27.8581 6.90023 26.9885 6.52197 26.0864 6.52197H23.9125C23.0103 6.52197 22.143 6.90023 21.5277 7.56107C20.9125 8.21976 20.5972 9.11324 20.6603 10.0307L21.5798 20.7415C21.7059 22.5198 23.2016 23.9132 24.9994 23.9132C26.7819 23.9132 28.2777 22.5197 28.4016 20.7588L29.3386 10.0154C29.4038 9.11548 29.0885 8.22201 28.4733 7.56107ZM27.1733 9.84368L26.2342 20.5894C26.1886 21.235 25.6451 21.7393 24.982 21.7393C24.3343 21.7393 23.793 21.235 23.7451 20.5719L22.8276 9.8611C22.8059 9.55458 22.908 9.26324 23.1167 9.0415C23.3254 8.81976 23.608 8.69585 23.9124 8.69585H26.0864C26.3907 8.69585 26.6733 8.81976 26.882 9.0415C27.0907 9.26324 27.1929 9.55458 27.1733 9.84368Z" fill="#644BEC"/>
	</symbol>
	<symbol id="icon-more" viewBox="0 0 24 24">
		<path fill-rule="evenodd" clip-rule="evenodd" d="M7 12C7 13.1046 6.10457 14 5 14C3.89543 14 3 13.1046 3 12C3 10.8954 3.89543 10 5 10C6.10457 10 7 10.8954 7 12ZM14 12C14 13.1046 13.1046 14 12 14C10.8954 14 10 13.1046 10 12C10 10.8954 10.8954 10 12 10C13.1046 10 14 10.8954 14 12ZM19 14C20.1046 14 21 13.1046 21 12C21 10.8954 20.1046 10 19 10C17.8954 10 17 10.8954 17 12C17 13.1046 17.8954 14 19 14Z"/>
	</symbol>
	<symbol id="icon-more" viewBox="0 0 18 4">
		<path fill-rule="evenodd" clip-rule="evenodd" d="M4 2C4 3.10457 3.10457 4 2 4C0.895431 4 0 3.10457 0 2C0 0.895431 0.895431 0 2 0C3.10457 0 4 0.895431 4 2ZM11 2C11 3.10457 10.1046 4 9 4C7.89543 4 7 3.10457 7 2C7 0.895431 7.89543 0 9 0C10.1046 0 11 0.895431 11 2ZM16 4C17.1046 4 18 3.10457 18 2C18 0.895431 17.1046 0 16 0C14.8954 0 14 0.895431 14 2C14 3.10457 14.8954 4 16 4Z" fill="#644BEC"/>
	</symbol>
	<symbol id="icon-plus" viewBox="0 0 20 20">
		<path d="M10 2.5V10M10 17.5V10M10 10H17.5M10 10H2.5" stroke="#644BEC" stroke-width="1.8" stroke-linecap="round" stroke-linejoin="round"/>
	</symbol>
	<symbol id="icon-graduated" viewBox="0 0 50 50">
		<path d="M48.8918 8.43181L25.5668 0.0984787C25.1985 -0.0315242 24.7968 -0.0315242 24.4285 0.0984787L1.10931 8.43181C0.448377 8.67005 0.0078125 9.29717 0.0078125 9.99973C0.0078125 10.7023 0.448377 11.3294 1.10931 11.5676L12.501 15.6376V20.8335C12.501 24.0735 23.7218 24.1668 25.001 24.1668C26.2801 24.1668 37.501 24.0735 37.501 20.8335V15.6376L40.001 14.7501V16.6668C40.001 17.5873 40.7472 18.3335 41.6676 18.3335H43.3343C44.2548 18.3335 45.001 17.5873 45.001 16.6668V14.1668C44.9985 13.7809 44.9054 13.401 44.7293 13.0576L48.896 11.5676C49.5569 11.3294 49.9975 10.7023 49.9975 9.99973C49.9975 9.29717 49.5569 8.67005 48.896 8.43181H48.8918ZM35.8343 19.0001C32.6601 17.5551 25.9718 17.5001 25.001 17.5001C24.0301 17.5001 17.3418 17.5551 14.1676 19.0001V11.7401C14.6676 11.0985 18.5976 10.0001 25.001 10.0001C31.4043 10.0001 35.3343 11.0985 35.8343 11.7401V19.0001ZM25.001 22.5001C18.8343 22.5001 14.9618 21.4818 14.2376 20.8335C14.9618 20.1851 18.836 19.1668 25.001 19.1668C31.166 19.1668 35.0401 20.1851 35.7643 20.8335C35.0401 21.4818 31.1676 22.5001 25.001 22.5001ZM40.3918 12.8376L37.501 13.8685V11.6668C37.501 8.42681 26.2801 8.33348 25.001 8.33348C23.7218 8.33348 12.501 8.42681 12.501 11.6668V13.8676L1.66764 10.0001L25.0126 1.66681L41.6676 7.61848V11.8201C41.1407 12.0074 40.6916 12.3656 40.3918 12.8376ZM43.3343 16.6668H41.6676V14.1668C41.6676 13.7066 42.0407 13.3335 42.501 13.3335C42.9612 13.3335 43.3343 13.7066 43.3343 14.1668V16.6668ZM43.3343 11.7868V8.21431L48.3343 10.0001L43.3343 11.7868Z" fill="#AF48C9"/>
		<path d="M47.5 25.8335C47.45 25.8334 47.4 25.8378 47.3508 25.8468C39.9569 26.9964 32.4826 27.5493 25 27.5002C17.5174 27.5493 10.0431 26.9964 2.64917 25.8468C2.59988 25.8384 2.55 25.834 2.5 25.8335C1.91667 25.8335 0 26.4943 0 35.0002C0 43.506 1.91667 44.1668 2.5 44.1668C2.55004 44.1658 2.59992 44.1608 2.64917 44.1518C8.33058 43.2519 14.0653 42.7291 19.8158 42.5868L18.1892 46.4885C17.9392 47.1132 18.0912 47.827 18.5739 48.2958C19.0565 48.7646 19.7745 48.8957 20.3917 48.6277L21.0292 48.3552L21.305 48.9893C21.5655 49.6042 22.1697 50.0027 22.8375 50.0002H22.8583C23.5312 49.9949 24.1343 49.5842 24.3858 48.9602L25.8333 45.4952L27.2758 48.9468C27.5251 49.5768 28.1309 49.9932 28.8083 50.0002H28.8333C29.4966 50.0029 30.0975 49.6093 30.36 49.0002L30.6383 48.361L31.2658 48.6302C31.8857 48.9038 32.6096 48.7734 33.0951 48.3008C33.5806 47.8281 33.7303 47.108 33.4733 46.481L31.8783 42.656C37.063 42.8396 42.2316 43.3405 47.355 44.156C47.4029 44.1639 47.4514 44.1676 47.5 44.1668C48.0833 44.1668 50 43.506 50 35.0002C50 26.4943 48.0833 25.8335 47.5 25.8335ZM27.6667 29.1418C28.0127 30.4143 28.2143 31.7217 28.2675 33.0393C26.378 32.1607 24.1619 32.3667 22.4667 33.5785C22.424 32.082 22.2323 30.5936 21.8942 29.1352C22.9036 29.1563 23.9389 29.1668 25 29.1668C25.9108 29.1668 26.795 29.1568 27.6667 29.1418ZM25.8333 42.5002C23.5321 42.5002 21.6667 40.6347 21.6667 38.3335C21.6667 36.0323 23.5321 34.1668 25.8333 34.1668C28.1345 34.1668 30 36.0323 30 38.3335C29.9972 40.6335 28.1334 42.4974 25.8333 42.5002ZM2.5 27.9168C3.13851 30.2214 3.41956 32.6103 3.33333 35.0002C3.41956 37.39 3.13851 39.7789 2.5 42.0835C1.86149 39.7789 1.58044 37.39 1.66667 35.0002C1.58044 32.6103 1.86149 30.2214 2.5 27.9168ZM4.18333 42.2252C4.63917 40.9035 5 38.6918 5 35.0002C5 31.3085 4.63917 29.0968 4.1825 27.7735C9.47799 28.5048 14.8096 28.9452 20.1533 29.0927C20.6532 31.0207 20.882 33.009 20.8333 35.0002C20.8333 35.121 20.8333 35.236 20.8283 35.3518C19.8283 37.0115 19.7275 39.0621 20.56 40.8118L20.5233 40.9002C15.056 41.0342 9.60065 41.4771 4.18333 42.2268V42.2252ZM22.8392 48.3335L22.2308 46.9335C22.0479 46.5131 21.5597 46.3195 21.1383 46.5002L19.7358 47.1202L21.69 42.4352C22.4923 43.2481 23.5158 43.8074 24.6333 44.0435L22.8392 48.3335ZM30.5283 46.5002C30.107 46.3195 29.6188 46.5131 29.4358 46.9335L28.8192 48.3193L27.0325 44.0418C28.1509 43.8057 29.1753 43.2461 29.9783 42.4327L31.9283 47.0993L30.5283 46.5002ZM47.3333 42.4585C41.9794 41.6345 36.5808 41.1336 31.1667 40.9585L31.1075 40.8152C32.1555 38.6068 31.7062 35.9784 29.9842 34.2435C29.9777 32.5153 29.7781 30.7932 29.3892 29.1093C35.3982 28.9748 41.3921 28.4509 47.3333 27.541C47.72 28.1977 48.3333 30.7952 48.3333 35.0002C48.3333 39.2052 47.7158 41.8018 47.3333 42.4585Z" fill="#AF48C9"/>
	</symbol>
	<symbol id="icon-book" viewBox="0 0 50 50">
		<path d="M45.3125 1.5625H9.375C7.92511 1.56415 6.53507 2.14086 5.50984 3.16609C4.48461 4.19132 3.9079 5.58136 3.90625 7.03125V44.5312C3.90749 45.5669 4.31944 46.5597 5.05173 47.292C5.78403 48.0243 6.77688 48.4363 7.8125 48.4375H45.3125C45.5197 48.4375 45.7184 48.3552 45.8649 48.2087C46.0114 48.0622 46.0938 47.8634 46.0938 47.6562V2.34375C46.0938 2.13655 46.0114 1.93784 45.8649 1.79132C45.7184 1.64481 45.5197 1.5625 45.3125 1.5625ZM10.1562 29.6875H44.5312V40.625H10.1562V29.6875ZM44.5312 3.125V28.125H10.1562V3.125H44.5312ZM5.46875 15.2242V14.0625C5.4552 13.8538 5.48632 13.6446 5.56005 13.4489C5.63378 13.2532 5.74842 13.0754 5.8963 12.9276C6.04419 12.7797 6.22192 12.665 6.41764 12.5913C6.61335 12.5176 6.82255 12.4864 7.03125 12.5V10.9375C6.48646 10.9287 5.9485 11.0597 5.46875 11.318V7.03125C5.46989 6.13109 5.78132 5.25884 6.35056 4.56152C6.9198 3.8642 7.71204 3.38445 8.59375 3.20312V40.625H7.8125C6.96448 40.6279 6.14093 40.9095 5.46875 41.4266V17.9688C5.4552 17.76 5.48632 17.5509 5.56005 17.3551C5.63378 17.1594 5.74842 16.9817 5.8963 16.8338C6.04419 16.6859 6.22192 16.5713 6.41764 16.4976C6.61335 16.4238 6.82255 16.3927 7.03125 16.4062V14.8438C6.48646 14.8349 5.9485 14.9659 5.46875 15.2242ZM7.8125 46.875C7.1909 46.875 6.59476 46.6281 6.15522 46.1885C5.71568 45.749 5.46875 45.1529 5.46875 44.5312C5.46875 43.9096 5.71568 43.3135 6.15522 42.874C6.59476 42.4344 7.1909 42.1875 7.8125 42.1875H44.5312V43.75H7.03125V45.3125H44.5312V46.875H7.8125Z" fill="#644BEC"/>
		<path d="M20.3125 9.375C16.35 9.375 15.7344 16.2695 15.6414 18.75H14.0625V20.3125H23.4758C23.6258 22.1508 24.3758 26.5625 28.125 26.5625C31.8742 26.5625 32.6242 22.1508 32.7742 20.3125H35.9773C36.1766 22.2656 37.1398 25 39.8422 25V23.4375C38.1891 23.4375 37.7039 21.4516 37.5602 20.3125H39.8438V18.75H37.4813C37.3953 16.775 36.918 12.5 34.375 12.5C31.832 12.5 31.3547 16.775 31.2687 18.75H24.9836C24.8906 16.2695 24.275 9.375 20.3125 9.375ZM28.125 25C25.7641 25 25.1883 21.8211 25.0469 20.3125H31.2047C31.0656 21.8211 30.4945 25 28.125 25ZM34.375 14.0625C35.2016 14.0625 35.8031 16.3977 35.9164 18.75H32.8344C32.9438 16.6133 33.4813 14.0625 34.375 14.0625ZM17.2078 18.75C17.3227 16.0938 18.0141 10.9375 20.3125 10.9375C22.6109 10.9375 23.3008 16.0938 23.4172 18.75H17.2078Z" fill="#644BEC"/>
		<path d="M26.3352 10.7087L30.2414 6.80244L29.1367 5.69775L27.7359 7.09854L26.3352 5.69775L25.2305 6.80244L26.6312 8.20322L25.2305 9.604L26.3352 10.7087Z" fill="#644BEC"/>
		<path d="M31.25 6.25H34.375V7.8125H31.25V6.25Z" fill="#644BEC"/>
		<path d="M31.25 9.375H34.375V10.9375H31.25V9.375Z" fill="#644BEC"/>
		<path d="M40.625 6.25H37.5V4.6875H35.9375V10.9375H40.625V6.25ZM39.0625 9.375H37.5V7.8125H39.0625V9.375Z" fill="#644BEC"/>
		<path d="M16.6367 22.104L15.6266 23.1142L14.6164 22.104L13.5117 23.2087L14.5219 24.2188L13.5117 25.229L14.6164 26.3337L15.6266 25.3235L16.6367 26.3337L17.7414 25.229L16.7313 24.2188L17.7414 23.2087L16.6367 22.104Z" fill="#644BEC"/>
		<path d="M19.5312 21.875H22.6562V23.4375H19.5312V21.875Z" fill="#644BEC"/>
		<path d="M19.5312 25H22.6562V26.5625H19.5312V25Z" fill="#644BEC"/>
		<path d="M13.2812 12.5H14.8438V7.8125H21.875V6.25H14.8438V4.6875H13.2812V6.25H11.7188V7.8125H13.2812V12.5Z" fill="#644BEC"/>
		<path d="M39.0625 15.625H40.625V17.1875H39.0625V15.625Z" fill="#644BEC"/>
		<path d="M41.4062 12.5H42.9688V14.0625H41.4062V12.5Z" fill="#644BEC"/>
		<path d="M14.8438 39.0625H39.8438V31.25H14.8438V39.0625ZM16.4062 32.8125H38.2812V37.5H16.4062V32.8125Z" fill="#644BEC"/>
		<path d="M11.7188 31.25H13.2812V32.8125H11.7188V31.25Z" fill="#644BEC"/>
		<path d="M11.7188 37.5H13.2812V39.0625H11.7188V37.5Z" fill="#644BEC"/>
		<path d="M41.4062 31.25H42.9688V32.8125H41.4062V31.25Z" fill="#644BEC"/>
		<path d="M41.4062 37.5H42.9688V39.0625H41.4062V37.5Z" fill="#644BEC"/>
	</symbol>
	<symbol id="icon-papers" viewBox="0 0 50 50">
		<path d="M49.5885 6.31062C49.5588 6.28269 43.6857 0.681616 43.6857 0.681616C43.4612 0.466187 43.2289 0.24353 42.7953 0.24353H19.1508C18.4602 0.24353 17.8983 0.805347 17.8983 1.49597V5.34197L9.56477 6.77048C8.8968 6.88767 8.44758 7.52693 8.5633 8.19421L8.98625 10.6602C6.27756 11.5718 3.4966 12.5114 0.811936 13.4758C0.177562 13.7077 -0.155349 14.4131 0.0710185 15.0512L5.41135 29.8966C5.51877 30.1953 5.80032 30.3813 6.10061 30.3813C6.18284 30.3813 6.26662 30.3674 6.34846 30.3379C6.72912 30.2009 6.92668 29.7814 6.78977 29.4008L1.52844 14.775C4.05774 13.8694 6.67707 12.9831 9.23694 12.1215L14.6495 43.6915C14.7541 44.288 15.2784 44.7124 15.8702 44.7124C15.9372 44.7124 16.0052 44.7069 16.0734 44.6957L30.0456 42.2991L13.5587 48.2258L7.9134 32.5238C7.77658 32.1431 7.35715 31.9456 6.97639 32.0824C6.59573 32.2192 6.39817 32.6387 6.53498 33.0194L12.2604 48.9446C12.4435 49.4454 12.9179 49.7567 13.4194 49.7567C13.5579 49.7567 13.6987 49.7329 13.8358 49.6828L38.3245 40.88L41.5725 40.3233H48.7474C49.438 40.3233 49.9999 39.7602 49.9999 39.068V7.13591C50 6.69753 49.7621 6.4739 49.5885 6.31062ZM47.648 6.48406H43.9829L43.8921 6.48445C43.7166 6.48562 43.3058 6.48865 43.2016 6.38513C43.1776 6.36121 43.1494 6.28132 43.1494 6.13298L43.1409 2.18621L47.648 6.48406ZM48.5352 38.8583H19.3631V24.5842C19.3631 24.1797 19.0352 23.8517 18.6307 23.8517C18.2262 23.8517 17.8983 24.1797 17.8983 24.5842V39.0678C17.8983 39.7599 18.4602 40.3231 19.1508 40.3231H32.902L16.0536 43.2127L10.0461 8.1741L17.8982 6.8281V21.1857C17.8982 21.5902 18.2261 21.9181 18.6306 21.9181C19.0351 21.9181 19.363 21.5902 19.363 21.1857V1.70828H41.675L41.6846 6.13464C41.6846 6.67117 41.8478 7.10515 42.1696 7.42468C42.664 7.9156 43.3629 7.94978 43.7968 7.94978C43.8341 7.94978 43.8695 7.94949 43.9026 7.94929L48.5352 7.949V38.8583Z" fill="#2F89CE"/>
		<path d="M22.8941 11.6161C22.8941 12.0206 23.222 12.3486 23.6265 12.3486H44.5675C44.972 12.3486 45.2999 12.0206 45.2999 11.6161C45.2999 11.2116 44.972 10.8837 44.5675 10.8837H23.6265C23.222 10.8837 22.8941 11.2116 22.8941 11.6161Z" fill="#2F89CE"/>
		<path d="M44.5675 16.0871H23.6265C23.222 16.0871 22.8941 16.415 22.8941 16.8195C22.8941 17.224 23.222 17.5519 23.6265 17.5519H44.5675C44.972 17.5519 45.2999 17.224 45.2999 16.8195C45.2999 16.415 44.972 16.0871 44.5675 16.0871Z" fill="#2F89CE"/>
		<path d="M44.5675 21.2904H23.6265C23.222 21.2904 22.8941 21.6183 22.8941 22.0228C22.8941 22.4273 23.222 22.7552 23.6265 22.7552H44.5675C44.972 22.7552 45.2999 22.4273 45.2999 22.0228C45.2999 21.6183 44.972 21.2904 44.5675 21.2904Z" fill="#2F89CE"/>
		<path d="M44.5675 26.4937H23.6265C23.222 26.4937 22.8941 26.8217 22.8941 27.2261C22.8941 27.6306 23.222 27.9586 23.6265 27.9586H44.5675C44.972 27.9586 45.2999 27.6306 45.2999 27.2261C45.2999 26.8217 44.972 26.4937 44.5675 26.4937Z" fill="#2F89CE"/>
		<path d="M44.5675 31.6972H23.6265C23.222 31.6972 22.8941 32.0251 22.8941 32.4296C22.8941 32.8341 23.222 33.162 23.6265 33.162H44.5675C44.972 33.162 45.2999 32.8341 45.2999 32.4296C45.2999 32.0251 44.972 31.6972 44.5675 31.6972Z" fill="#2F89CE"/>
	</symbol>
	<symbol id="icon-arrow-down" viewBox="0 0 16 16" fill="none">
		<path d="M12.666 6L7.99935 10.6667L3.33268 6" stroke-opacity="0.9" stroke-width="1.8" stroke-linecap="round" stroke-linejoin="round"/>
	</symbol>
	<symbol id="icon-clock-history" viewBox="0 0 18 18">
		<path d="M2.4 8.99999C2.4 8.50294 1.99706 8.09999 1.5 8.09999C1.00294 8.09999 0.6 8.50294 0.6 8.99999H2.4ZM3.69672 3.69667L3.06033 3.06027L3.06033 3.06027L3.69672 3.69667ZM2.8934 4.49999H1.9934C1.9934 4.99705 2.39634 5.39999 2.8934 5.39999V4.49999ZM3.7934 1.125C3.7934 0.627944 3.39045 0.225 2.8934 0.225C2.39634 0.225 1.9934 0.627944 1.9934 1.125H3.7934ZM6.27005 5.39999C6.7671 5.39999 7.17005 4.99705 7.17005 4.49999C7.17005 4.00294 6.7671 3.59999 6.27005 3.59999V5.39999ZM9.00006 9H8.10006C8.10006 9.23869 8.19488 9.46761 8.36366 9.6364L9.00006 9ZM9.90006 4.875C9.90006 4.37794 9.49712 3.975 9.00006 3.975C8.503 3.975 8.10006 4.37794 8.10006 4.875H9.90006ZM10.6137 11.8864C10.9651 12.2379 11.535 12.2379 11.8865 11.8864C12.2379 11.5349 12.2379 10.9651 11.8865 10.6136L10.6137 11.8864ZM15.6 8.99999C15.6 12.6451 12.6451 15.6 9 15.6V17.4C13.6392 17.4 17.4 13.6392 17.4 8.99999H15.6ZM9 15.6C5.35492 15.6 2.4 12.6451 2.4 8.99999H0.6C0.6 13.6392 4.36081 17.4 9 17.4V15.6ZM9 2.39999C12.6451 2.39999 15.6 5.35491 15.6 8.99999H17.4C17.4 4.3608 13.6392 0.599994 9 0.599994V2.39999ZM4.33312 4.33307C5.52846 3.13773 7.17722 2.39999 9 2.39999V0.599994C6.68067 0.599994 4.57944 1.54117 3.06033 3.06027L4.33312 4.33307ZM3.06033 3.06027L2.257 3.8636L3.52979 5.13639L4.33312 4.33307L3.06033 3.06027ZM3.7934 4.49999V1.125H1.9934V4.49999H3.7934ZM2.8934 5.39999H6.27005V3.59999H2.8934V5.39999ZM9.90006 9V4.875H8.10006V9H9.90006ZM8.36366 9.6364L10.6137 11.8864L11.8865 10.6136L9.63646 8.3636L8.36366 9.6364Z"/>
	</symbol>
	<symbol id="icon-info" viewBox="0 0 48 48" fill="none">
		<path d="M24 0C10.7659 0 0 10.7659 0 24C0 37.2341 10.7659 48 24 48C37.2341 48 48 37.2341 48 24C48 10.7659 37.2341 0 24 0ZM24 10.0001C25.1041 10.0001 25.9999 10.8959 25.9999 12C25.9999 13.1041 25.1041 13.9999 24 13.9999C22.8959 13.9999 22.0001 13.1041 22.0001 12C22.0001 10.8959 22.8959 10.0001 24 10.0001ZM28.5 37.9999H19.5C18.394 37.9999 17.5001 37.1041 17.5001 36C17.5001 34.8959 18.394 34.0001 19.5 34.0001H22.0001V22.0001H20.5001C19.3942 22.0001 18.4999 21.104 18.4999 19.9999C18.4999 18.8961 19.3942 18 20.5001 18H24C25.106 18 25.9999 18.8961 25.9999 19.9999V34.0001H28.5C29.606 34.0001 30.4999 34.8959 30.4999 36C30.4999 37.1041 29.606 37.9999 28.5 37.9999Z" fill="#B0C1FF"/>
	</symbol>
	<symbol id="icon-folder" viewBox="0 0 20 16">
		<path d="M0 3.2C0 2.0799 0 1.51984 0.217987 1.09202C0.409734 0.715695 0.715695 0.409734 1.09202 0.217987C1.51984 0 2.0799 0 3.2 0H6.28741C6.91355 0 7.22662 0 7.5108 0.0863016C7.76238 0.162704 7.99643 0.287962 8.19955 0.454909C8.42899 0.643487 8.60265 0.903978 8.94997 1.42496L9.05003 1.57504C9.39735 2.09602 9.57101 2.35651 9.80045 2.54509C10.0036 2.71204 10.2376 2.8373 10.4892 2.9137C10.7734 3 11.0864 3 11.7126 3H16.8C17.9201 3 18.4802 3 18.908 3.21799C19.2843 3.40973 19.5903 3.71569 19.782 4.09202C20 4.51984 20 5.0799 20 6.2V12.8C20 13.9201 20 14.4802 19.782 14.908C19.5903 15.2843 19.2843 15.5903 18.908 15.782C18.4802 16 17.9201 16 16.8 16H3.2C2.0799 16 1.51984 16 1.09202 15.782C0.715695 15.5903 0.409734 15.2843 0.217987 14.908C0 14.4802 0 13.9201 0 12.8V3.2Z"/>
	</symbol>
	<symbol id="icon-download" viewBox="0 0 14 17">
		<path d="M13 16H1M7 13V1M7 13L10.5 9.5M7 13L3.5 9.5" stroke="white" stroke-width="1.8" stroke-linecap="round" stroke-linejoin="round"/>
	</symbol>
	<symbol id="icon-video-play" viewBox="0 0 100 100">
		<path d="M50 0C22.4283 0 0 22.4305 0 50C0 77.5695 22.4283 100 50 100C77.5717 100 100 77.5695 100 50C100 22.4305 77.5717 0 50 0ZM69.8772 51.7518L40.7105 70.5018C40.3688 70.7234 39.974 70.8334 39.5834 70.8334C39.2416 70.8334 38.8957 70.7478 38.5865 70.5791C37.915 70.2129 37.5 69.5129 37.5 68.75V31.25C37.5 30.4871 37.915 29.7871 38.5865 29.4209C39.2457 29.0588 40.0717 29.0811 40.7105 29.4982L69.8772 48.2482C70.4713 48.6307 70.8334 49.292 70.8334 50C70.8334 50.708 70.4713 51.3691 69.8772 51.7518Z" />
	</symbol>
	<symbol id="icon-homework" viewBox="0 0 28 28">
		<path d="M4.70916 5.7058H13.1701V18.1471H14.7539V22.5234H13.2951V19.6059H3.45878V22.5234H2V18.1471C2.47237 18.161 2.90305 17.9943 3.29206 17.6469C3.68107 17.2857 3.98672 16.8272 4.20901 16.2715C4.54244 15.424 4.70916 14.2084 4.70916 12.6246V5.7058ZM6.2513 7.16458V12.6246C6.2513 14.3334 6.08458 15.6255 5.75114 16.5008C5.51496 17.126 5.16069 17.6747 4.68832 18.1471H11.6279V7.16458H6.2513Z"/>
		<path d="M18.3102 8.4358L17.1223 7.49801C18.0253 6.15038 19.3521 5.47656 21.1027 5.47656C22.3531 5.47656 23.3325 5.80305 24.0411 6.45603C24.7635 7.109 25.1247 7.96343 25.1247 9.01931C25.1247 9.70007 24.9441 10.2975 24.5829 10.8115C24.2356 11.3117 23.7771 11.6937 23.2075 11.9577C24.1105 12.1661 24.7982 12.5968 25.2706 13.2498C25.7569 13.9027 26 14.6669 26 15.5421C26 16.987 25.4234 18.1193 24.2703 18.939C23.3811 19.5503 22.3253 19.856 21.1027 19.856C19.8384 19.856 18.7895 19.5364 17.9559 18.8973C17.1223 18.2582 16.4971 17.4663 16.0803 16.5216L17.5808 15.8547C17.8586 16.6327 18.3171 17.251 18.9562 17.7095C19.5953 18.1679 20.3316 18.3972 21.1652 18.3972C22.0127 18.3972 22.7212 18.2027 23.2908 17.8137C24.0411 17.2857 24.4162 16.5424 24.4162 15.5838C24.4162 13.7638 23.1797 12.8538 20.7067 12.8538H19.4563V11.395H20.7067C21.6237 11.395 22.3253 11.1727 22.8115 10.7282C23.2978 10.2836 23.5409 9.72091 23.5409 9.04015C23.5409 8.44275 23.3534 7.95649 22.9782 7.58137C22.5614 7.15068 21.9363 6.93534 21.1027 6.93534C19.9356 6.93534 19.0048 7.43549 18.3102 8.4358Z"/>
	</symbol>
	<symbol id="icon-play-circle" viewBox="0 0 28 28">
		<path d="M13.9999 1.12C6.89269 1.12 1.11987 6.89281 1.11987 14C1.11987 21.1072 6.89269 26.88 13.9999 26.88C21.1071 26.88 26.8799 21.1072 26.8799 14C26.8799 6.89281 21.1071 1.12 13.9999 1.12ZM13.9999 2.24C20.5011 2.24 25.7599 7.49874 25.7599 14C25.7599 20.5012 20.5011 25.76 13.9999 25.76C7.49862 25.76 2.23987 20.5012 2.23987 14C2.23987 7.49874 7.49862 2.24 13.9999 2.24ZM10.0799 7.42V20.58L10.9199 20.09L20.4399 14.49L21.2624 14L20.4399 13.51L10.9199 7.91L10.0799 7.42ZM11.1999 9.38L19.0399 14L11.1999 18.62V9.38Z"/>
	</symbol>
	<symbol id="icon-book-material" viewBox="0 0 28 28">
		<path d="M3.36012 2.24001V21.84H3.92012C9.37137 21.84 13.7486 24.0209 13.7486 24.0209L14.0001 24.1456L14.2517 24.0209C14.2517 24.0209 18.6289 21.84 24.0801 21.84H24.6401V2.24001H24.0801C18.5698 2.24001 14.3589 4.26782 14.0001 4.44501C13.6414 4.26782 9.43043 2.24001 3.92012 2.24001H3.36012ZM4.48012 3.41032C9.09793 3.54157 12.6854 5.06626 13.4401 5.40751V22.6822C12.2479 22.1681 8.89668 20.8884 4.48012 20.7703V3.41032ZM23.5201 3.41032V20.7703C19.1036 20.8884 15.7523 22.1681 14.5601 22.6822V5.40751C15.3148 5.06626 18.9023 3.54157 23.5201 3.41032ZM1.12012 5.04001V24.08H1.68012C8.84418 24.08 13.7726 26.2719 13.7726 26.2719L14.0001 26.3725L14.2276 26.2719C14.2276 26.2719 19.1561 24.08 26.3201 24.08H26.8801V5.04001H25.7601V22.9994C18.9286 23.1153 14.3129 25.0381 14.0001 25.1738C13.6873 25.0381 9.07168 23.1153 2.24012 22.9994V5.04001H1.12012Z"/>
	</symbol>
	<symbol id="icon-download-material" viewBox="0 0 28 28">
		<path d="M13.125 3.5V17.9922L8.50391 13.3711L7.24609 14.6289L13.3711 20.7539L14 21.3555L14.6289 20.7539L20.7539 14.6289L19.4961 13.3711L14.875 17.9922V3.5H13.125ZM6.125 22.75V24.5H21.875V22.75H6.125Z"/>
	</symbol>
	<symbol id="icon-clock-fill" viewBox="0 0 12 12">
		<path d="M6 1C3.2385 1 1 3.2385 1 6C1 8.7615 3.2385 11 6 11C8.7615 11 11 8.7615 11 6C11 3.2385 8.7615 1 6 1ZM7.6465 8.3535L5.5 6.207V3H6.5V5.793L8.3535 7.6465L7.6465 8.3535Z"/>
	</symbol>
	<symbol id="icon-copy" viewBox="0 0 12 12">
		<path d="M4.4001 0.800049C3.9581 0.800049 3.6001 1.15805 3.6001 1.60005V8.00005C3.6001 8.44205 3.9581 8.80005 4.4001 8.80005H9.6001C10.0421 8.80005 10.4001 8.44205 10.4001 8.00005V3.40005C10.4001 3.29405 10.3581 3.19244 10.2829 3.11724L8.08291 0.917236C8.00771 0.842036 7.9061 0.800049 7.8001 0.800049H4.4001ZM7.6001 1.56177L9.63838 3.60005H8.0001C7.7793 3.60005 7.6001 3.42085 7.6001 3.20005V1.56177ZM2.4001 2.80005C1.9581 2.80005 1.6001 3.15805 1.6001 3.60005V10C1.6001 10.442 1.9581 10.8 2.4001 10.8H7.6001C8.0421 10.8 8.4001 10.442 8.4001 10V9.60005H4.4001C3.5177 9.60005 2.8001 8.88245 2.8001 8.00005V2.80005H2.4001Z"/>
	</symbol>
	<symbol id="icon-tv" viewBox="0 0 50 50" fill="none">
		<path d="M2.81239 8C2.33582 8.08984 1.99207 8.51172 1.99989 9V39C1.99989 39.5508 2.44911 40 2.99989 40H46.9999C47.5507 40 47.9999 39.5508 47.9999 39V9C47.9999 8.44922 47.5507 8 46.9999 8H2.99989C2.96864 8 2.93739 8 2.90614 8C2.87489 8 2.84364 8 2.81239 8ZM3.99989 10H45.9999V38H3.99989V10ZM24.9999 13C21.6991 13 18.9999 15.6992 18.9999 19C18.9999 21.0898 20.0897 22.9258 21.7186 24C18.5429 24.1445 15.9999 26.7891 15.9999 30H17.9999C17.9999 27.7812 19.7811 26 21.9999 26H27.9999C30.2186 26 31.9999 27.7812 31.9999 30H33.9999C33.9999 26.7891 31.4569 24.1445 28.2811 24C29.91 22.9258 30.9999 21.0898 30.9999 19C30.9999 15.6992 28.3007 13 24.9999 13ZM24.9999 15C27.2225 15 28.9999 16.7773 28.9999 19C28.9999 21.2227 27.2225 23 24.9999 23C22.7772 23 20.9999 21.2227 20.9999 19C20.9999 16.7773 22.7772 15 24.9999 15ZM9.99989 32V36H15.9999V32H9.99989ZM17.9999 32V36H23.9999V32H17.9999ZM25.9999 32V36H31.9999V32H25.9999ZM33.9999 32V36H39.9999V32H33.9999ZM14.7186 42C14.1679 42.0781 13.7811 42.5898 13.8593 43.1406C13.9374 43.6914 14.4491 44.0781 14.9999 44H34.9999C35.3593 44.0039 35.6952 43.8164 35.8788 43.5039C36.0585 43.1914 36.0585 42.8086 35.8788 42.4961C35.6952 42.1836 35.3593 41.9961 34.9999 42H14.9999C14.9686 42 14.9374 42 14.9061 42C14.8749 42 14.8436 42 14.8124 42C14.7811 42 14.7499 42 14.7186 42Z" fill="#644BEC"/>
	</symbol>

	<symbol id="icon-vk" viewBox="0 0 32 32" fill="none">
		<circle cx="16" cy="16" r="16" fill="#7294C7"/>
		<path d="M23.8448 20.0922C23.8448 20.0257 23.7784 20.0257 23.7784 19.9593C23.5127 19.428 22.915 18.7638 22.1179 18.0332C21.7194 17.7011 21.5202 17.4354 21.3873 17.3026C21.1881 17.0369 21.1881 16.8377 21.2545 16.572C21.3209 16.3727 21.5866 16.0406 22.0515 15.4429C22.3172 15.1108 22.45 14.9115 22.6493 14.7123C23.6455 13.3839 24.1105 12.5205 23.9776 12.122L23.9112 12.0555C23.8448 11.9891 23.7784 11.9227 23.6455 11.9227C23.5127 11.8563 23.3135 11.8563 23.1142 11.9227H20.5903C20.5239 11.9227 20.5239 11.9227 20.3911 11.9227C20.3246 11.9227 20.2582 11.9227 20.2582 11.9227H20.1918H20.1254L20.059 11.9891C19.9925 12.0555 19.9925 12.0555 19.9925 12.122C19.7269 12.8526 19.3948 13.4503 19.0627 14.1145C18.8634 14.4466 18.6642 14.7787 18.4649 15.0444C18.2657 15.31 18.1328 15.5093 18 15.6421C17.8672 15.775 17.7343 15.8414 17.6679 15.9742C17.6015 16.0406 17.4686 16.1071 17.4686 16.0406C17.4022 16.0406 17.3358 16.0406 17.3358 15.9742C17.2694 15.9078 17.203 15.8414 17.1366 15.775C17.0701 15.7085 17.0701 15.5757 17.0037 15.4429C17.0037 15.31 17.0037 15.1772 17.0037 15.1108C17.0037 15.0444 17.0037 14.8451 17.0037 14.7123C17.0037 14.513 17.0037 14.3802 17.0037 14.3138C17.0037 14.1145 17.0037 13.8488 17.0037 13.5832C17.0037 13.3175 17.0037 13.1182 17.0037 12.9854C17.0037 12.8526 17.0037 12.6533 17.0037 12.5205C17.0037 12.3212 17.0037 12.1884 17.0037 12.122C17.0037 12.0555 16.9373 11.9227 16.9373 11.8563C16.8709 11.7899 16.8045 11.7234 16.738 11.657C16.6716 11.5906 16.5388 11.5906 16.4724 11.5242C16.1403 11.4578 15.7418 11.3914 15.2769 11.3914C14.2142 11.3914 13.4836 11.4578 13.2179 11.5906C13.085 11.657 12.9522 11.7234 12.8858 11.8563C12.753 11.9891 12.7529 12.0555 12.8194 12.0555C13.1515 12.122 13.4171 12.2548 13.55 12.454L13.6164 12.5869C13.6828 12.6533 13.6828 12.7861 13.7492 12.9854C13.8156 13.1846 13.8156 13.3839 13.8156 13.6496C13.8156 14.0481 13.8156 14.4466 13.8156 14.7123C13.8156 15.0444 13.7492 15.2436 13.7492 15.4429C13.7492 15.6421 13.6828 15.775 13.6164 15.8414C13.55 15.9742 13.55 16.0406 13.4835 16.0406C13.4835 16.0406 13.4835 16.1071 13.4171 16.1071C13.3507 16.1071 13.2843 16.1735 13.1515 16.1735C13.085 16.1735 12.9522 16.1071 12.8858 16.0406C12.753 15.9742 12.6201 15.8414 12.5537 15.7085C12.4209 15.5757 12.288 15.3765 12.1552 15.1108C12.0223 14.8451 11.8231 14.5794 11.6902 14.1809L11.5574 13.9153C11.491 13.7824 11.3582 13.5167 11.2253 13.1847C11.0925 12.8526 10.9597 12.5869 10.8268 12.2548C10.7604 12.122 10.694 12.0555 10.6276 11.9891H10.5611C10.5611 11.9891 10.4947 11.9227 10.4283 11.9227C10.3619 11.9227 10.2955 11.8563 10.2291 11.8563H7.83799C7.57232 11.8563 7.43948 11.9227 7.37306 11.9891L7.30664 12.0555C7.30664 12.0555 7.30664 12.122 7.30664 12.1884C7.30664 12.2548 7.30664 12.3212 7.37306 12.454C7.70515 13.2511 8.10366 14.0481 8.50217 14.8451C8.90068 15.5757 9.2992 16.2399 9.56487 16.7048C9.89696 17.1698 10.1626 17.6347 10.4947 18.0332C10.8268 18.4317 11.0261 18.6974 11.0925 18.8302C11.2253 18.963 11.2917 19.0295 11.3582 19.0959L11.5574 19.2951C11.6903 19.428 11.8895 19.6272 12.1552 19.8265C12.4209 20.0257 12.7529 20.225 13.085 20.4242C13.4171 20.6235 13.8156 20.7563 14.2142 20.8892C14.6791 21.022 15.0776 21.0884 15.4761 21.022H16.4724C16.6716 21.022 16.8045 20.9556 16.9373 20.8228L17.0037 20.7563C17.0037 20.6899 17.0701 20.6899 17.0701 20.6235C17.0701 20.5571 17.0701 20.4907 17.0701 20.3578C17.0701 20.0922 17.0701 19.8929 17.1366 19.6937C17.203 19.4944 17.203 19.3616 17.2694 19.2287C17.3358 19.0959 17.4022 19.0295 17.4686 18.963C17.5351 18.8966 17.6015 18.8302 17.6015 18.8302H17.6679C17.8007 18.7638 18 18.8302 18.1328 18.963C18.3321 19.0959 18.5313 19.2951 18.6642 19.4944C18.797 19.6936 18.9963 19.8929 19.262 20.1586C19.5276 20.4243 19.7269 20.6235 19.8597 20.6899L20.059 20.8228C20.1918 20.8892 20.3246 20.9556 20.5239 21.022C20.7232 21.0884 20.856 21.0884 20.9888 21.0884L23.2471 21.022C23.4463 21.022 23.6456 20.9556 23.7784 20.8892C23.9112 20.8228 23.9776 20.7563 23.9776 20.6235C23.9776 20.5571 23.9776 20.4243 23.9776 20.3578C23.8448 20.225 23.8448 20.1586 23.8448 20.0922Z" fill="white"/>
	</symbol>
	<symbol id="icon-twitter" viewBox="0 0 32 32" fill="none">
		<circle cx="16" cy="16" r="16" fill="#55ACE3"/>
		<path d="M24.4798 11.9199C23.9198 12.1599 23.2798 12.3199 22.6398 12.3999C23.2798 11.9999 23.8398 11.3599 24.0798 10.6399C23.4398 11.0399 22.7998 11.2799 21.9998 11.4399C21.4398 10.7999 20.5598 10.3999 19.6798 10.3999C17.9198 10.3999 16.4798 11.8399 16.4798 13.5999C16.4798 13.8399 16.4798 14.0799 16.5598 14.3199C13.9198 14.1599 11.5198 12.8799 9.9198 10.9599C9.6798 11.4399 9.5198 11.9999 9.5198 12.5599C9.5198 13.6799 10.0798 14.6399 10.9598 15.1999C10.3998 15.1999 9.9198 15.0399 9.5198 14.7999C9.5198 16.3199 10.6398 17.6799 12.0798 17.9199C11.8398 17.9999 11.5198 17.9999 11.1998 17.9999C10.9598 17.9999 10.7998 17.9999 10.5598 17.9199C10.9598 19.1999 12.1598 20.1599 13.5998 20.1599C12.4798 21.0399 11.1198 21.5199 9.5998 21.5199C9.3598 21.5199 9.1198 21.5199 8.7998 21.4399C10.2398 22.3199 11.9198 22.8799 13.7598 22.8799C19.6798 22.8799 22.8798 17.9999 22.8798 13.7599V13.3599C23.5198 13.1199 24.0798 12.5599 24.4798 11.9199Z" fill="white"/>
	</symbol>
	<symbol id="icon-telegram-2" viewBox="0 0 32 32" fill="none">
		<circle cx="16" cy="16" r="16" fill="#2F89CE"/>
		<path d="M7.48076 16.2994L11.1592 17.671L12.5932 22.2847C12.6556 22.5964 13.0296 22.6587 13.279 22.4717L15.3365 20.7883C15.5235 20.6013 15.8352 20.6013 16.0846 20.7883L19.7631 23.4692C20.0125 23.6563 20.3866 23.5316 20.4489 23.2199L23.1922 10.127C23.2545 9.81529 22.9428 9.50356 22.6311 9.62825L7.48076 15.4889C7.10668 15.6135 7.10668 16.1747 7.48076 16.2994ZM12.4062 16.9852L19.6384 12.5586C19.7631 12.4962 19.8878 12.6832 19.7631 12.7456L13.8401 18.2945C13.6531 18.4815 13.4661 18.7309 13.4661 19.0426L13.279 20.5389C13.279 20.726 12.9673 20.7883 12.9049 20.5389L12.1568 17.7957C11.9697 17.484 12.0944 17.1099 12.4062 16.9852Z" fill="white"/>
	</symbol>
	<symbol id="icon-share" viewBox="0 0 32 32" fill="none">
		<g id="link">
		<path id="Shape" fill-rule="evenodd" clip-rule="evenodd" d="M0 15.9997C0 7.16384 7.16331 0 15.9995 0C24.8356 0 31.9998 7.16341 31.9998 15.9997C31.9998 24.8359 24.8356 32 15.9995 32C7.16331 32 0 24.8355 0 15.9997ZM20.1255 17.0654L24.0386 13.1522C24.9148 12.2763 24.9148 10.8505 24.0394 9.97483L22.5601 8.49505C22.1354 8.07073 21.5711 7.83691 20.971 7.83691C20.3709 7.83691 19.8065 8.07073 19.3819 8.49537L15.4684 12.4085C14.5928 13.2847 14.5928 14.7103 15.4689 15.5861L15.6217 15.7389L15.205 16.1555L15.0523 16.0028C14.6275 15.5785 14.0636 15.3446 13.4632 15.3446C12.8627 15.3446 12.2985 15.5784 11.874 16.0028L7.96055 19.9157C7.08471 20.7922 7.08471 22.2177 7.96087 23.0933L9.4398 24.5727C9.86444 24.9973 10.4288 25.2312 11.0291 25.2312C11.6296 25.2312 12.1938 24.9974 12.6183 24.573L16.5309 20.6598C17.4071 19.7837 17.4071 18.3581 16.5309 17.4819L16.3779 17.329L16.7946 16.9123L16.9479 17.0656C17.3723 17.4897 17.9367 17.7235 18.5367 17.7235C19.1368 17.7235 19.701 17.4898 20.1255 17.0654Z" fill="#644BEC"/>
		<path id="Path" fill-rule="evenodd" clip-rule="evenodd" d="M15.2041 18.5022L14.4476 19.2588L13.274 18.0856L14.0306 17.329L13.8779 17.1762C13.7669 17.0656 13.6195 17.0044 13.4629 17.0044C13.306 17.0044 13.1586 17.0655 13.0477 17.1762L9.13449 21.0889C8.90569 21.3179 8.90569 21.6903 9.13449 21.9191L10.614 23.3988C10.8361 23.621 11.2228 23.6207 11.4445 23.3992L15.3571 19.486C15.5862 19.257 15.5862 18.8843 15.3571 18.6552L15.2041 18.5022Z" fill="#644BEC"/>
		<path id="Path_2" fill-rule="evenodd" clip-rule="evenodd" d="M21.3859 9.66864C21.2749 9.5577 21.1272 9.49658 20.9703 9.49658C20.8134 9.49658 20.6656 9.5577 20.5547 9.66896L16.6415 13.5819C16.4131 13.8109 16.4131 14.1833 16.6419 14.4124L16.7948 14.5652L17.9553 13.4043L19.1289 14.5779L17.9684 15.7387L18.1213 15.8917C18.3435 16.1132 18.7296 16.1135 18.9518 15.8914L22.8648 11.9787C23.0936 11.7497 23.0936 11.3773 22.8648 11.1482L21.3859 9.66864Z" fill="#644BEC"/>
		</g>
	</symbol>
	<symbol id="icon-facebook-2" viewBox="0 0 32 32" fill="none">
		<circle cx="16" cy="16" r="16" fill="#4E6297"/>
		<path d="M23.2001 11.055C23.2001 9.85704 22.1431 8.80005 20.9452 8.80005H11.855C10.6571 8.80005 9.6001 9.85704 9.6001 11.055V20.1451C9.6001 21.343 10.6571 22.4 11.855 22.4H16.4353V17.256H14.7441V15.0011H16.4353V14.085C16.4353 12.5348 17.5628 11.1959 18.9721 11.1959H20.8042V13.4508H18.9721C18.7607 13.4508 18.5493 13.6622 18.5493 14.085V15.0011H20.8042V17.256H18.5493V22.4H20.9452C22.1431 22.4 23.2001 21.343 23.2001 20.1451V11.055Z" fill="white"/>
	</symbol>
	<symbol id="icon-live" viewBox="0 0 32 16" fill="none">
		<rect width="32" height="16" rx="2" fill="#E74040"/>
		<path d="M6.76501 4.69995H7.79101V10.046H11.103V11H6.76501V4.69995Z" fill="white"/>
		<path d="M11.9945 4.69995H13.0205V11H11.9945V4.69995Z" fill="white"/>
		<path d="M17.4681 11H16.4061L13.8681 4.69995H14.9751L16.9371 9.81195L18.8991 4.69995H20.0061L17.4681 11Z" fill="white"/>
		<path d="M20.8539 4.69995H25.1919V5.63595H21.8799V7.35495H24.9219V8.29095H21.8799V10.064H25.2459V11H20.8539V4.69995Z" fill="white"/>
	</symbol>
	<symbol id="icon-plus-2" viewBox="0 0 24 24" fill="none" xmlns="http://www.w3.org/2000/svg">
		<path d="M12 0.799999C5.81485 0.799999 0.800049 5.8148 0.800049 12C0.800049 18.1852 5.81485 23.2 12 23.2C18.1852 23.2 23.2 18.1852 23.2 12C23.2 5.8148 18.1852 0.799999 12 0.799999ZM17.6 12.9333H12.9334V17.6C12.9334 18.1161 12.5152 18.5333 12 18.5333C11.4848 18.5333 11.0667 18.1161 11.0667 17.6V12.9333H6.40005C5.88485 12.9333 5.46672 12.5161 5.46672 12C5.46672 11.4839 5.88485 11.0667 6.40005 11.0667H11.0667V6.4C11.0667 5.88387 11.4848 5.46667 12 5.46667C12.5152 5.46667 12.9334 5.88387 12.9334 6.4V11.0667H17.6C18.1152 11.0667 18.5334 11.4839 18.5334 12C18.5334 12.5161 18.1152 12.9333 17.6 12.9333Z" fill="#644BEC"/>
	</symbol>
	<symbol id="icon-check-mark" viewBox="0 0 18 18">
		<path d="M7.8748 14.6251C7.52793 14.6266 7.19153 14.5063 6.92418 14.2853L1.81405 9.89108C1.70351 9.79489 1.63459 9.65958 1.62179 9.51361C1.60899 9.36765 1.65331 9.22241 1.74543 9.10845L2.93193 7.65608C2.97952 7.59774 3.03835 7.54955 3.10491 7.51436C3.17148 7.47918 3.24443 7.45772 3.31944 7.45125C3.39445 7.44478 3.47 7.45343 3.54161 7.4767C3.61321 7.49997 3.67942 7.53737 3.7363 7.5867L7.7248 11.0495L14.1373 4.01033C14.2371 3.90057 14.3761 3.83466 14.5243 3.82694C14.6724 3.81921 14.8175 3.8703 14.9282 3.96908L16.3262 5.22383C16.3814 5.27331 16.4262 5.33321 16.4582 5.40008C16.4901 5.46696 16.5085 5.53949 16.5124 5.6135C16.5162 5.68752 16.5054 5.76156 16.4805 5.83138C16.4556 5.9012 16.4172 5.96541 16.3674 6.02033L8.9923 14.1275C8.85089 14.2836 8.67846 14.4084 8.48604 14.4941C8.29362 14.5798 8.08544 14.6244 7.8748 14.6251Z"/>
	</symbol>


</svg>