<svg width="39" height="39" viewBox="0 0 39 39" fill="none" xmlns="http://www.w3.org/2000/svg">
<g opacity="0.2" clip-path="url(#clip0)">
<path d="M13.291 9.02073L12.1244 7C9.29332 8.6345 8.03944 12.0534 9.14129 15.1308L11.6357 22.1008L8.94257 23.6557L10.1092 25.6764L12.4351 24.3336L14.7867 30.9045C15.5083 32.9194 14.6868 35.1579 12.8333 36.228L14 38.2487C16.831 36.6142 18.0849 33.1953 16.9831 30.1179L14.4886 23.1479L16.6766 21.8847L15.5099 19.864L13.6893 20.9152L11.3377 14.3442C10.6161 12.3293 11.4375 10.0908 13.291 9.02073Z" fill="#644BEC"/>
<path d="M16.6338 12.4788L15.4754 12.3392C15.4593 12.4731 15.1089 15.671 17.6079 19.9993C20.1068 24.3276 23.0515 25.6231 23.1755 25.6762L24.0916 23.5304C24.0692 23.5207 21.7093 22.4365 19.6286 18.8326C17.5485 15.2298 17.7905 12.6355 17.7928 12.6092L16.6338 12.4788Z" fill="#644BEC"/>
<path d="M24.7631 8.59361C24.786 8.60309 27.1459 9.68726 29.2266 13.2911C31.3067 16.894 31.0647 19.4883 31.0624 19.5146L32.2214 19.645L33.3798 19.7846C33.3964 19.6497 33.7463 16.4528 31.2473 12.1244C28.7484 7.79612 25.8037 6.50063 25.6797 6.44759L24.7631 8.59361Z" fill="#644BEC"/>
<path d="M23.5766 12.3923L23.3286 14.7426L21.1691 13.7822L20.2216 15.9145L23.0709 17.1815L22.7435 20.2826L25.0639 20.5282L25.3119 18.1778L27.4714 19.1382L28.4189 17.0059L25.5696 15.7389L25.897 12.6378L23.5766 12.3923Z" fill="#644BEC"/>
</g>
<defs>
<clipPath id="clip0">
<rect width="28" height="28" fill="white" transform="translate(0 14) rotate(-30)"/>
</clipPath>
</defs>
</svg>
