<svg width="39" height="39" viewBox="0 0 39 39" fill="none" xmlns="http://www.w3.org/2000/svg">
<g opacity="0.4" clip-path="url(#clip0)">
<path d="M5.21393 24.7197L3.17725 23.5775L14.5827 3.18174L16.6193 4.32391L17.7599 2.28433L13.6865 0L2.73764e-05 24.4749L4.07339 26.7593L5.21393 24.7197Z" fill="#B0C1FF"/>
<path d="M32.9127 13.4612L34.9494 14.6034L23.544 34.9992L21.5073 33.857L20.3667 35.8966L24.4401 38.1809L38.1266 13.706L34.0532 11.4216L32.9127 13.4612Z" fill="#B0C1FF"/>
<path d="M8.39105 23.8222L20.6111 30.6752L22.8922 26.5961L20.8555 25.4539L19.715 27.4935L12.3146 23.3434L20.9065 20.1241L19.1579 11.1059L26.5582 15.256L25.4177 17.2956L27.4544 18.4378L29.7355 14.3586L17.5154 7.50562L16.4513 9.40851L18.2383 18.6278L9.45516 21.9193L8.39105 23.8222Z" fill="#B0C1FF"/>
</g>
<defs>
<clipPath id="clip0">
<rect width="28.021" height="28.0418" fill="white" transform="matrix(0.87221 0.489132 -0.488075 0.872802 13.6865 0)"/>
</clipPath>
</defs>
</svg>
