<svg width="31" height="31" viewBox="0 0 31 31" fill="none" xmlns="http://www.w3.org/2000/svg">
<g opacity="0.4" clip-path="url(#clip0)">
<path d="M22.9538 19.5486C21.4365 19.4384 20.0753 20.3198 19.4965 21.6413L9.77627 20.9354C9.39391 19.5441 8.17397 18.4753 6.65662 18.3651C5.13927 18.2549 3.7781 19.1362 3.19929 20.4577L0.667344 20.2739L0.498507 22.6054L3.03045 22.7892C3.41281 24.1806 4.63276 25.2493 6.15011 25.3595C7.66746 25.4697 9.02862 24.5884 9.60743 23.2669L19.3277 23.9728C19.71 25.3641 20.93 26.4329 22.4473 26.5431C23.9647 26.6533 25.3258 25.7719 25.9047 24.4504L28.4366 24.6343L28.6054 22.3028L26.0735 22.1189C25.6911 20.7276 24.4712 19.6588 22.9538 19.5486ZM6.31894 23.028C5.67693 22.9814 5.19272 22.4207 5.23928 21.7778C5.28583 21.1348 5.84577 20.6499 6.48778 20.6966C7.12979 20.7432 7.61401 21.3039 7.56745 21.9468C7.52089 22.5898 6.96095 23.0747 6.31894 23.028ZM22.6162 24.2116C21.9742 24.165 21.4899 23.6042 21.5365 22.9613C21.5831 22.3184 22.143 21.8335 22.785 21.8801C23.427 21.9267 23.9112 22.4875 23.8647 23.1304C23.8181 23.7733 23.2582 24.2582 22.6162 24.2116Z" fill="#B0C1FF"/>
<path d="M23.9669 5.55977L20.4746 5.30615L19.6304 16.9636L23.1227 17.2172C25.0487 17.3571 26.7285 15.9024 26.8682 13.9736C26.9331 13.0771 26.6511 12.2369 26.1407 11.577C26.7409 10.9977 27.141 10.2071 27.2059 9.31061C27.3456 7.38184 25.8929 5.69964 23.9669 5.55977ZM22.6339 7.80672L23.798 7.89126C24.44 7.93788 24.9243 8.49861 24.8777 9.14154C24.8311 9.78446 24.2712 10.2694 23.6292 10.2227L22.4651 10.1382L22.6339 7.80672ZM23.2915 14.8857L22.1274 14.8012L22.2963 12.4697L23.4604 12.5542C24.1024 12.6009 24.5866 13.1616 24.54 13.8045C24.4935 14.4474 23.9335 14.9323 23.2915 14.8857Z" fill="#B0C1FF"/>
<path d="M10.3169 16.2872L10.9078 8.12702C11.0475 6.19825 9.59481 4.51605 7.66878 4.37617C5.74275 4.2363 4.06293 5.69102 3.92326 7.61979L3.33233 15.78L5.6605 15.9491L5.91376 12.4518L8.24193 12.6209L7.98868 16.1181L10.3169 16.2872ZM6.0826 10.1204L6.25143 7.78887C6.29799 7.14594 6.85793 6.66104 7.49994 6.70766C8.14195 6.75428 8.62617 7.31502 8.57961 7.95794L8.41077 10.2894L6.0826 10.1204Z" fill="#B0C1FF"/>
</g>
<defs>
<clipPath id="clip0">
<rect width="28.0117" height="28.0511" fill="white" transform="matrix(0.997373 0.0724315 -0.072227 0.997388 2.10254 0.456299)"/>
</clipPath>
</defs>
</svg>
