<svg width="258" height="70" viewBox="0 0 258 70" fill="none" xmlns="http://www.w3.org/2000/svg">
<mask id="mask0" mask-type="alpha" maskUnits="userSpaceOnUse" x="0" y="0" width="258" height="70">
<path d="M0 5.19998C0 2.32811 2.32811 0 5.19998 0H252.8C255.672 0 258 2.32811 258 5.19998V70H0V5.19998Z" fill="#AF48C9"/>
</mask>
<g mask="url(#mask0)">
<path d="M98.3004 23.4202H82.127V23.7166H98.3004C99.0967 23.7166 99.8604 24.0339 100.423 24.5987C100.986 25.1636 101.303 25.9296 101.303 26.7284C101.303 27.5272 100.986 28.2933 100.423 28.8581C99.8604 29.423 99.0967 29.7403 98.3004 29.7403H73.8273C73.031 29.7403 72.2674 29.423 71.7043 28.8581C71.1413 28.2933 70.8249 27.5272 70.8249 26.7284C70.8249 25.9296 71.1413 25.1636 71.7043 24.5987C72.2674 24.0339 73.031 23.7166 73.8273 23.7166H74.7418V23.4202H73.8273C72.9527 23.4202 72.1139 23.7688 71.4954 24.3892C70.877 25.0096 70.5295 25.851 70.5295 26.7284C70.5295 27.6058 70.877 28.4473 71.4954 29.0677C72.1139 29.6881 72.9527 30.0366 73.8273 30.0366H98.3004C99.1751 30.0366 100.014 29.6881 100.632 29.0677C101.251 28.4473 101.598 27.6058 101.598 26.7284C101.598 25.851 101.251 25.0096 100.632 24.3892C100.014 23.7688 99.1751 23.4202 98.3004 23.4202Z" fill="#E6E6E6"/>
<path d="M98.3004 33.6442H82.127V33.9405H98.3004C99.0966 33.9405 99.8603 34.2578 100.423 34.8227C100.986 35.3875 101.303 36.1536 101.303 36.9524C101.303 37.7512 100.986 38.5173 100.423 39.0821C99.8603 39.6469 99.0966 39.9642 98.3004 39.9642H73.8272C73.0309 39.9642 72.2673 39.6469 71.7043 39.0821C71.1412 38.5173 70.8249 37.7512 70.8249 36.9524C70.8249 36.1536 71.1412 35.3875 71.7043 34.8227C72.2673 34.2578 73.0309 33.9405 73.8272 33.9405H74.7418V33.6442H73.8272C72.953 33.6448 72.1148 33.9936 71.4968 34.6139C70.8789 35.2343 70.5317 36.0754 70.5317 36.9524C70.5317 37.8294 70.8789 38.6705 71.4968 39.2908C72.1148 39.9112 72.953 40.26 73.8272 40.2606H98.3004C99.1746 40.26 100.013 39.9112 100.631 39.2908C101.249 38.6705 101.596 37.8294 101.596 36.9524C101.596 36.0754 101.249 35.2343 100.631 34.6139C100.013 33.9936 99.1746 33.6448 98.3004 33.6442Z" fill="#6C63FF"/>
<path d="M98.3004 43.8681H82.127V44.1645H98.3004C99.0967 44.1645 99.8604 44.4818 100.423 45.0466C100.986 45.6114 101.303 46.3775 101.303 47.1763C101.303 47.9751 100.986 48.7412 100.423 49.306C99.8604 49.8709 99.0967 50.1882 98.3004 50.1882H73.8273C73.031 50.1882 72.2674 49.8709 71.7043 49.306C71.1413 48.7412 70.8249 47.9751 70.8249 47.1763C70.8249 46.3775 71.1413 45.6114 71.7043 45.0466C72.2674 44.4818 73.031 44.1645 73.8273 44.1645H74.7418V43.8681H73.8273C72.9527 43.8681 72.1139 44.2166 71.4954 44.8371C70.877 45.4575 70.5295 46.2989 70.5295 47.1763C70.5295 48.0537 70.877 48.8952 71.4954 49.5156C72.1139 50.136 72.9527 50.4845 73.8273 50.4845H98.3004C99.1747 50.4839 100.013 50.1351 100.631 49.5148C101.249 48.8944 101.596 48.0533 101.596 47.1763C101.596 46.2993 101.249 45.4582 100.631 44.8379C100.013 44.2175 99.1747 43.8687 98.3004 43.8681Z" fill="#E6E6E6"/>
<path d="M76.5673 22.6373C76.3369 22.6411 76.1172 22.7356 75.9556 22.9004C75.7939 23.0653 75.7034 23.2872 75.7034 23.5184C75.7034 23.7496 75.7939 23.9715 75.9556 24.1363C76.1172 24.3011 76.3369 24.3956 76.5673 24.3994H80.4203C80.653 24.403 80.8777 24.3138 81.045 24.1513C81.2122 23.9888 81.3083 23.7664 81.3121 23.5328C81.3159 23.2993 81.2272 23.0738 81.0654 22.9059C80.9035 22.738 80.6819 22.6414 80.4491 22.6373C80.4395 22.6372 80.4299 22.6372 80.4203 22.6373H76.5673Z" fill="#3F3D56"/>
<path d="M76.5673 33.0095C76.3369 33.0133 76.1172 33.1077 75.9556 33.2726C75.7939 33.4374 75.7034 33.6593 75.7034 33.8905C75.7034 34.1217 75.7939 34.3436 75.9556 34.5084C76.1172 34.6733 76.3369 34.7678 76.5673 34.7715H80.4203C80.6532 34.7754 80.8781 34.6862 81.0455 34.5237C81.2129 34.3612 81.3091 34.1386 81.313 33.905C81.3168 33.6713 81.2279 33.4457 81.0659 33.2777C80.9039 33.1098 80.6821 33.0133 80.4491 33.0095C80.4395 33.0093 80.4299 33.0093 80.4203 33.0095H76.5673Z" fill="#3F3D56"/>
<path d="M76.5673 43.0852C76.3369 43.089 76.1172 43.1835 75.9556 43.3483C75.7939 43.5131 75.7034 43.735 75.7034 43.9662C75.7034 44.1974 75.7939 44.4194 75.9556 44.5842C76.1172 44.749 76.3369 44.8435 76.5673 44.8473H80.4203C80.6532 44.8511 80.8781 44.762 81.0455 44.5995C81.2129 44.4369 81.3091 44.2144 81.313 43.9807C81.3168 43.747 81.2279 43.5214 81.0659 43.3535C80.9039 43.1855 80.6821 43.089 80.4491 43.0852C80.4395 43.085 80.4299 43.085 80.4203 43.0852H76.5673Z" fill="#3F3D56"/>
<path d="M75.039 25.8474C74.8086 25.8512 74.5889 25.9457 74.4272 26.1105C74.2656 26.2753 74.175 26.4973 74.175 26.7285C74.175 26.9597 74.2656 27.1816 74.4272 27.3464C74.5889 27.5112 74.8086 27.6057 75.039 27.6095H97.0595C97.2925 27.6133 97.5174 27.5242 97.6848 27.3617C97.8522 27.1992 97.9484 26.9766 97.9522 26.7429C97.956 26.5093 97.8672 26.2836 97.7052 26.1157C97.5432 25.9478 97.3213 25.8512 97.0884 25.8474C97.0788 25.8472 97.0692 25.8472 97.0595 25.8474H75.039Z" fill="#E6E6E6"/>
<path d="M98.3004 13.789H82.127V14.0853H98.3004C99.0966 14.0853 99.8603 14.4027 100.423 14.9675C100.986 15.5323 101.303 16.2984 101.303 17.0972C101.303 17.896 100.986 18.6621 100.423 19.2269C99.8603 19.7918 99.0966 20.1091 98.3004 20.1091H73.8272C73.0313 20.1085 72.2682 19.7909 71.7056 19.2262C71.1431 18.6614 70.827 17.8956 70.827 17.0972C70.827 16.2988 71.1431 15.533 71.7056 14.9683C72.2682 14.4035 73.0313 14.0859 73.8272 14.0853H74.7418V13.789H73.8272C72.953 13.7896 72.1148 14.1384 71.4968 14.7588C70.8789 15.3791 70.5317 16.2202 70.5317 17.0972C70.5317 17.9742 70.8789 18.8153 71.4968 19.4357C72.1148 20.056 72.953 20.4048 73.8272 20.4054H98.3004C99.1746 20.4048 100.013 20.056 100.631 19.4357C101.249 18.8153 101.596 17.9742 101.596 17.0972C101.596 16.2202 101.249 15.3791 100.631 14.7588C100.013 14.1384 99.1746 13.7896 98.3004 13.789Z" fill="#E6E6E6"/>
<path d="M76.5673 13.0061C76.3369 13.0099 76.1172 13.1044 75.9556 13.2692C75.7939 13.434 75.7034 13.6559 75.7034 13.8871C75.7034 14.1183 75.7939 14.3403 75.9556 14.5051C76.1172 14.6699 76.3369 14.7644 76.5673 14.7682H80.4203C80.6532 14.772 80.8781 14.6829 81.0455 14.5204C81.2129 14.3579 81.3091 14.1353 81.313 13.9016C81.3168 13.6679 81.2279 13.4423 81.0659 13.2744C80.9039 13.1064 80.6821 13.0099 80.4491 13.0061C80.4395 13.0059 80.4299 13.0059 80.4203 13.0061H76.5673Z" fill="#3F3D56"/>
<path d="M75.039 16.2161C74.8085 16.2199 74.5888 16.3144 74.4272 16.4792C74.2656 16.644 74.175 16.866 74.175 17.0972C74.175 17.3284 74.2656 17.5503 74.4272 17.7151C74.5888 17.8799 74.8085 17.9744 75.039 17.9782H97.0595C97.1749 17.9802 97.2896 17.9594 97.3969 17.9169C97.5043 17.8744 97.6023 17.8112 97.6852 17.7307C97.7682 17.6502 97.8346 17.5541 97.8805 17.4479C97.9265 17.3417 97.9511 17.2274 97.953 17.1116C97.9549 16.9959 97.934 16.8809 97.8916 16.7732C97.8491 16.6655 97.786 16.5673 97.7057 16.4841C97.6254 16.401 97.5295 16.3345 97.4236 16.2885C97.3177 16.2425 97.2037 16.2179 97.0883 16.2161C97.0787 16.216 97.0691 16.216 97.0595 16.2161H75.039Z" fill="#E6E6E6"/>
<path d="M75.039 36.0714C74.8086 36.0751 74.5889 36.1696 74.4272 36.3344C74.2656 36.4993 74.175 36.7212 74.175 36.9524C74.175 37.1836 74.2656 37.4055 74.4272 37.5703C74.5889 37.7352 74.8086 37.8296 75.039 37.8334H97.0595C97.1749 37.8353 97.2894 37.8144 97.3967 37.7719C97.504 37.7294 97.6019 37.6661 97.6848 37.5856C97.7677 37.5051 97.834 37.4091 97.8798 37.3029C97.9257 37.1968 97.9503 37.0826 97.9522 36.9669C97.9541 36.8512 97.9333 36.7362 97.8909 36.6286C97.8485 36.521 97.7854 36.4228 97.7052 36.3396C97.625 36.2565 97.5292 36.19 97.4234 36.144C97.3175 36.0979 97.2037 36.0733 97.0884 36.0714C97.0788 36.0712 97.0692 36.0712 97.0595 36.0714H75.039Z" fill="#6C63FF"/>
<path d="M75.039 46.2953C74.8086 46.2991 74.5889 46.3936 74.4272 46.5584C74.2656 46.7232 74.175 46.9451 74.175 47.1763C74.175 47.4075 74.2656 47.6295 74.4272 47.7943C74.5889 47.9591 74.8086 48.0536 75.039 48.0574H97.0595C97.1749 48.0593 97.2894 48.0384 97.3967 47.9958C97.504 47.9533 97.6019 47.89 97.6848 47.8095C97.7677 47.7291 97.834 47.633 97.8798 47.5269C97.9257 47.4207 97.9503 47.3065 97.9522 47.1908C97.9541 47.0751 97.9333 46.9602 97.8909 46.8525C97.8485 46.7449 97.7854 46.6467 97.7052 46.5636C97.625 46.4804 97.5292 46.4139 97.4234 46.3679C97.3175 46.3219 97.2037 46.2972 97.0884 46.2953C97.0788 46.2951 97.0692 46.2951 97.0595 46.2953H75.039Z" fill="#E6E6E6"/>
<path d="M108.161 37.0211L104.837 35.0963V38.9459L108.161 37.0211L104.837 35.0963V38.9459L108.161 37.0211Z" fill="#6C63FF"/>
<path d="M111.041 58.046H59.1078C58.9316 58.0458 58.7626 57.9755 58.638 57.8505C58.5134 57.7255 58.4433 57.556 58.4431 57.3792V6.1113C58.4433 5.93452 58.5134 5.76503 58.638 5.64003C58.7626 5.51502 58.9316 5.44471 59.1078 5.44452H113.02C113.196 5.44471 113.365 5.51502 113.489 5.64003C113.614 5.76503 113.684 5.93452 113.684 6.1113V36.4654H114.127V6.1113C114.127 5.81666 114.01 5.53419 113.803 5.32585C113.595 5.11751 113.313 5.00032 113.02 5H59.1078C58.8141 5.00032 58.5325 5.11751 58.3248 5.32585C58.1171 5.53419 58.0003 5.81666 58 6.1113V57.3792C58.0003 57.6738 58.1171 57.9563 58.3248 58.1647C58.5325 58.373 58.8141 58.4902 59.1078 58.4905H111.041V58.046Z" fill="#E6E6E6"/>
<path d="M158.688 35.7245H112.135C111.531 35.7245 111.041 36.1083 111.041 36.5812V46.6894H159.783V36.5812C159.783 36.1083 159.292 35.7245 158.688 35.7245Z" fill="#6C63FF"/>
<path d="M158.971 35.4282H111.853C111.56 35.4283 111.278 35.5454 111.07 35.7538C110.862 35.9622 110.746 36.2448 110.746 36.5395V74.3236C110.746 74.6183 110.862 74.9009 111.07 75.1093C111.278 75.3177 111.56 75.4348 111.853 75.4349H158.971C159.265 75.4348 159.546 75.3177 159.754 75.1093C159.962 74.9009 160.079 74.6183 160.079 74.3236V36.5395C160.079 36.2448 159.962 35.9622 159.754 35.7538C159.546 35.5454 159.265 35.4283 158.971 35.4282ZM159.636 74.3236C159.635 74.5004 159.565 74.6698 159.441 74.7948C159.316 74.9198 159.147 74.9901 158.971 74.9904H111.853C111.677 74.9901 111.508 74.9198 111.384 74.7948C111.259 74.6698 111.189 74.5004 111.189 74.3236V36.5395C111.189 36.3627 111.259 36.1933 111.384 36.0683C111.508 35.9433 111.677 35.8729 111.853 35.8727H158.971C159.147 35.8729 159.316 35.9433 159.441 36.0683C159.565 36.1933 159.635 36.3627 159.636 36.5395V74.3236Z" fill="#E6E6E6"/>
<path d="M147.648 52.2185H131.475V52.5149H147.648C148.445 52.5149 149.208 52.8322 149.771 53.397C150.334 53.9618 150.651 54.7279 150.651 55.5267C150.651 56.3255 150.334 57.0916 149.771 57.6564C149.208 58.2213 148.445 58.5386 147.648 58.5386H123.175C122.379 58.5386 121.615 58.2213 121.052 57.6564C120.489 57.0916 120.173 56.3255 120.173 55.5267C120.173 54.7279 120.489 53.9618 121.052 53.397C121.615 52.8322 122.379 52.5149 123.175 52.5149H124.09V52.2185H123.175C122.301 52.2185 121.462 52.5671 120.843 53.1875C120.225 53.8079 119.877 54.6493 119.877 55.5267C119.877 56.4041 120.225 57.2456 120.843 57.866C121.462 58.4864 122.301 58.8349 123.175 58.8349H147.648C148.523 58.8349 149.362 58.4864 149.98 57.866C150.599 57.2456 150.946 56.4041 150.946 55.5267C150.946 54.6493 150.599 53.8079 149.98 53.1875C149.362 52.5671 148.523 52.2185 147.648 52.2185Z" fill="#E6E6E6"/>
<path d="M147.648 62.4424H131.475V62.7388H147.648C148.445 62.7388 149.208 63.0561 149.771 63.6209C150.334 64.1858 150.651 64.9519 150.651 65.7507C150.651 66.5495 150.334 67.3155 149.771 67.8804C149.208 68.4452 148.445 68.7625 147.648 68.7625H123.175C122.379 68.7625 121.615 68.4452 121.052 67.8804C120.489 67.3155 120.173 66.5495 120.173 65.7507C120.173 64.9519 120.489 64.1858 121.052 63.6209C121.615 63.0561 122.379 62.7388 123.175 62.7388H124.09V62.4424H123.175C122.301 62.4424 121.462 62.791 120.843 63.4114C120.225 64.0318 119.877 64.8733 119.877 65.7507C119.877 66.628 120.225 67.4695 120.843 68.0899C121.462 68.7103 122.301 69.0589 123.175 69.0589H147.648C148.523 69.0589 149.362 68.7103 149.98 68.0899C150.599 67.4695 150.946 66.628 150.946 65.7507C150.946 64.8733 150.599 64.0318 149.98 63.4114C149.362 62.791 148.523 62.4424 147.648 62.4424Z" fill="#E6E6E6"/>
<path d="M125.915 51.5838C125.685 51.5876 125.465 51.6821 125.303 51.8469C125.142 52.0117 125.051 52.2336 125.051 52.4648C125.051 52.696 125.142 52.918 125.303 53.0828C125.465 53.2476 125.685 53.3421 125.915 53.3459H129.768C130.001 53.3497 130.226 53.2606 130.393 53.0981C130.561 52.9355 130.657 52.713 130.661 52.4793C130.665 52.2456 130.576 52.02 130.414 51.8521C130.252 51.6841 130.03 51.5876 129.797 51.5838C129.787 51.5836 129.778 51.5836 129.768 51.5838H125.915Z" fill="#3F3D56"/>
<path d="M125.915 61.6595C125.685 61.6633 125.465 61.7578 125.303 61.9226C125.142 62.0875 125.051 62.3094 125.051 62.5406C125.051 62.7718 125.142 62.9937 125.303 63.1585C125.465 63.3233 125.685 63.4178 125.915 63.4216H129.768C130.001 63.4255 130.226 63.3363 130.393 63.1738C130.561 63.0113 130.657 62.7887 130.661 62.5551C130.665 62.3214 130.576 62.0958 130.414 61.9278C130.252 61.7599 130.03 61.6634 129.797 61.6595C129.787 61.6594 129.778 61.6594 129.768 61.6595H125.915Z" fill="#3F3D56"/>
<path d="M124.387 54.6457C124.157 54.6495 123.937 54.744 123.776 54.9088C123.614 55.0736 123.523 55.2955 123.523 55.5267C123.523 55.7579 123.614 55.9799 123.776 56.1447C123.937 56.3095 124.157 56.404 124.387 56.4078H146.408C146.523 56.4097 146.638 56.3888 146.745 56.3462C146.852 56.3037 146.95 56.2404 147.033 56.16C147.116 56.0795 147.182 55.9834 147.228 55.8773C147.274 55.7711 147.299 55.6569 147.301 55.5412C147.302 55.4255 147.282 55.3106 147.239 55.2029C147.197 55.0953 147.134 54.9971 147.054 54.914C146.973 54.8308 146.878 54.7643 146.772 54.7183C146.666 54.6723 146.552 54.6476 146.437 54.6457C146.427 54.6455 146.418 54.6455 146.408 54.6457H124.387Z" fill="#E6E6E6"/>
<path d="M124.387 64.8696C124.157 64.8734 123.937 64.9679 123.776 65.1327C123.614 65.2975 123.523 65.5195 123.523 65.7507C123.523 65.9819 123.614 66.2038 123.776 66.3686C123.937 66.5334 124.157 66.6279 124.387 66.6317H146.408C146.523 66.6336 146.638 66.6127 146.745 66.5702C146.852 66.5277 146.95 66.4644 147.033 66.3839C147.116 66.3034 147.182 66.2074 147.228 66.1012C147.274 65.995 147.299 65.8808 147.301 65.7651C147.302 65.6494 147.282 65.5345 147.239 65.4269C147.197 65.3193 147.134 65.2211 147.054 65.1379C146.973 65.0548 146.878 64.9883 146.772 64.9422C146.666 64.8962 146.552 64.8715 146.437 64.8696C146.427 64.8695 146.418 64.8695 146.408 64.8696H124.387Z" fill="#E6E6E6"/>
<path d="M117.527 44.3944C119.282 44.3944 120.705 42.9674 120.705 41.207C120.705 39.4466 119.282 38.0195 117.527 38.0195C115.773 38.0195 114.35 39.4466 114.35 41.207C114.35 42.9674 115.773 44.3944 117.527 44.3944Z" fill="white"/>
<path d="M123.227 38.6907C123.02 38.6941 122.823 38.7788 122.678 38.9265C122.533 39.0742 122.452 39.2731 122.452 39.4804C122.452 39.6876 122.533 39.8865 122.678 40.0343C122.823 40.182 123.02 40.2667 123.227 40.2701H142.964C143.068 40.2718 143.17 40.253 143.266 40.2149C143.363 40.1768 143.45 40.1201 143.525 40.0479C143.599 39.9758 143.658 39.8897 143.699 39.7946C143.741 39.6994 143.763 39.597 143.764 39.4933C143.766 39.3896 143.747 39.2866 143.709 39.1901C143.671 39.0937 143.615 39.0057 143.543 38.9311C143.471 38.8566 143.385 38.797 143.29 38.7557C143.195 38.7145 143.093 38.6924 142.99 38.6907C142.981 38.6905 142.973 38.6905 142.964 38.6907H123.227Z" fill="white"/>
<path d="M123.227 42.1438C123.02 42.1472 122.823 42.2319 122.678 42.3796C122.533 42.5273 122.452 42.7263 122.452 42.9335C122.452 43.1407 122.533 43.3396 122.678 43.4874C122.823 43.6351 123.02 43.7198 123.227 43.7232H155.674C155.883 43.7266 156.084 43.6467 156.234 43.5011C156.384 43.3554 156.47 43.1559 156.474 42.9465C156.477 42.737 156.398 42.5348 156.252 42.3842C156.107 42.2337 155.908 42.1472 155.7 42.1438C155.691 42.1436 155.682 42.1436 155.674 42.1438H123.227Z" fill="white"/>
<path d="M185.727 45.2335L179.228 45.9743C179.316 43.9717 179.148 42.1038 178.489 40.4919L183.807 38.5657C183.33 40.5598 184.225 42.8346 185.727 45.2335Z" fill="#FBBEBE"/>
<path d="M186.51 67.472L188.616 71.2419C188.741 71.4664 188.821 71.7134 188.851 71.9688C188.881 72.2243 188.861 72.4832 188.791 72.7308C188.722 72.9783 188.604 73.2098 188.446 73.4118C188.287 73.6138 188.09 73.7825 187.866 73.9082C187.858 73.913 187.849 73.9176 187.841 73.9222C187.557 74.0761 187.24 74.1572 186.918 74.1581C186.595 74.1591 186.278 74.0799 185.993 73.9277C185.709 73.7754 185.466 73.5549 185.287 73.2857C185.108 73.0166 184.999 72.7071 184.968 72.3851L184.626 68.7824L183.46 55.0304L181.47 45.9851L185.601 44.8088L187.523 54.9806L186.51 67.472Z" fill="#FBBEBE"/>
<path d="M190.01 107.614L187.352 107.466L181.443 81.0914L168.889 107.614L166.23 107.466L173.911 66.5704L174.058 59.1617L183.659 58.569C187.247 62.5277 189.279 66.6217 189.567 70.8674L190.01 107.614Z" fill="#2F2E41"/>
<path d="M179.819 41.8255C182.347 41.8255 184.397 39.7689 184.397 37.2321C184.397 34.6953 182.347 32.6387 179.819 32.6387C177.29 32.6387 175.24 34.6953 175.24 37.2321C175.24 39.7689 177.29 41.8255 179.819 41.8255Z" fill="#FBBEBE"/>
<path d="M183.954 59.3099L174.058 59.9026L173.172 54.272C172.255 51.7409 173.401 49.4158 175.24 47.1597L179.08 42.8627L184.397 42.7145C185.113 42.9503 185.747 43.3854 186.226 43.9691C186.704 44.5528 187.007 45.261 187.1 46.011C187.483 49.161 186.91 52.3538 185.456 55.1719L183.954 59.3099Z" fill="#E6E6E6"/>
<path d="M173.172 71.9046L173.88 76.1669C173.922 76.4207 173.914 76.6803 173.856 76.9309C173.799 77.1815 173.692 77.4182 173.543 77.6275C173.394 77.8368 173.205 78.0147 172.988 78.1508C172.77 78.287 172.528 78.3789 172.275 78.4211C172.266 78.4227 172.256 78.4243 172.247 78.4257C171.928 78.4742 171.602 78.4426 171.298 78.334C170.995 78.2253 170.722 78.0429 170.506 77.8031C170.29 77.5632 170.136 77.2733 170.059 76.9593C169.981 76.6452 169.982 76.3169 170.062 76.0035L170.956 72.4973L174.501 59.1617L175.683 49.975L179.966 50.2713L178.342 60.4953L173.172 71.9046Z" fill="#FBBEBE"/>
<path d="M185.31 54.9388H185.204C183.207 53.2026 181.471 51.2564 182.873 48.8198C181.684 45.793 180.359 42.6498 180.439 40.7052C180.523 39.2675 180.061 37.8511 179.147 36.7405C177.884 35.2602 177.603 34.5991 175.296 35.1589C175.28 33.9959 175.725 32.8742 176.533 32.0404C177.342 31.2066 178.447 30.7291 179.606 30.7129C179.68 30.7119 179.753 30.7128 179.826 30.7154L181.267 30.768C182.37 30.8082 185.894 31.2604 186.65 31.9903C187.034 32.3729 187.324 32.8392 187.499 33.3528C187.673 33.8664 187.727 34.4135 187.655 34.9514C187.514 36.1583 187.893 37.2239 188.908 38.1175C190.849 40.1314 191.65 42.2212 190.549 44.4371C189.718 46.783 189.758 48.714 191.901 49.6423C192.597 52.322 188.07 54.9388 185.31 54.9388Z" fill="#2F2E41"/>
<path d="M180.409 51.7531C178.576 50.346 176.754 50.2349 174.944 51.6049L175.438 45.9783C175.425 45.1831 175.72 44.4138 176.262 43.8335C176.805 43.2532 177.551 42.9075 178.343 42.8697C178.743 42.8506 179.142 42.9107 179.519 43.0466C179.896 43.1825 180.243 43.3916 180.539 43.6618C180.835 43.9321 181.076 44.2582 181.246 44.6217C181.417 44.9851 181.515 45.3787 181.534 45.78C181.537 45.8455 181.538 45.911 181.537 45.9765L180.409 51.7531Z" fill="#E6E6E6"/>
<path d="M179.893 39.2324C180.219 39.2324 180.483 38.7349 180.483 38.1211C180.483 37.5074 180.219 37.0098 179.893 37.0098C179.566 37.0098 179.302 37.5074 179.302 38.1211C179.302 38.7349 179.566 39.2324 179.893 39.2324Z" fill="#FBBEBE"/>
</g>
</svg>
